<svg width="37" height="28" viewBox="0 0 37 28" fill="none" xmlns="http://www.w3.org/2000/svg">
<mask id="mask0_17319_480" style="mask-type:luminance" maskUnits="userSpaceOnUse" x="23" y="12" width="7" height="2">
<path d="M23.2764 12.6343C23.1376 12.6343 23.0234 12.7485 23.0234 12.889C23.0234 13.0295 23.1376 13.1437 23.2764 13.1437H29.5355C29.6761 13.1437 29.7902 13.0295 29.7902 12.889C29.7902 12.7485 29.6761 12.6343 29.5355 12.6343H23.2764Z" fill="white"/>
</mask>
<g mask="url(#mask0_17319_480)">
<path d="M29.7865 12.6343H23.0215V13.142H29.7865V12.6343Z" fill="url(#paint0_linear_17319_480)"/>
</g>
<mask id="mask1_17319_480" style="mask-type:luminance" maskUnits="userSpaceOnUse" x="23" y="14" width="7" height="1">
<path d="M23.2764 14.3223C23.1376 14.3223 23.0234 14.4365 23.0234 14.577C23.0234 14.7158 23.1376 14.83 23.2764 14.83H29.5355C29.6761 14.83 29.7902 14.7158 29.7902 14.577C29.7902 14.4365 29.6761 14.3223 29.5355 14.3223H23.2764Z" fill="white"/>
</mask>
<g mask="url(#mask1_17319_480)">
<path d="M29.7865 14.3223H23.0215V14.83H29.7865V14.3223Z" fill="url(#paint1_linear_17319_480)"/>
</g>
<mask id="mask2_17319_480" style="mask-type:luminance" maskUnits="userSpaceOnUse" x="23" y="16" width="7" height="1">
<path d="M23.2764 16.0122C23.1376 16.0122 23.0234 16.1264 23.0234 16.2669C23.0234 16.4075 23.1376 16.5216 23.2764 16.5216H29.5355C29.6761 16.5216 29.7902 16.4075 29.7902 16.2669C29.7902 16.1281 29.6761 16.0122 29.5355 16.0122H23.2764Z" fill="white"/>
</mask>
<g mask="url(#mask2_17319_480)">
<path d="M29.7865 16.0122H23.0215V16.5199H29.7865V16.0122Z" fill="url(#paint2_linear_17319_480)"/>
</g>
<mask id="mask3_17319_480" style="mask-type:luminance" maskUnits="userSpaceOnUse" x="23" y="17" width="7" height="2">
<path d="M23.2764 17.7002C23.1376 17.7002 23.0234 17.8144 23.0234 17.9549C23.0234 18.0955 23.1376 18.2096 23.2764 18.2096H29.5355C29.6761 18.2096 29.7902 18.0955 29.7902 17.9549C29.7902 17.8161 29.6761 17.7002 29.5355 17.7002H23.2764Z" fill="white"/>
</mask>
<g mask="url(#mask3_17319_480)">
<path d="M29.7865 17.7002H23.0215V18.2079H29.7865V17.7002Z" fill="url(#paint3_linear_17319_480)"/>
</g>
<mask id="mask4_17319_480" style="mask-type:luminance" maskUnits="userSpaceOnUse" x="23" y="19" width="7" height="1">
<path d="M23.2764 19.3887C23.1376 19.3887 23.0234 19.5029 23.0234 19.6434C23.0234 19.7822 23.1376 19.8981 23.2764 19.8981H29.5355C29.6761 19.8981 29.7902 19.7839 29.7902 19.6434C29.7902 19.5029 29.6761 19.3887 29.5355 19.3887H23.2764Z" fill="white"/>
</mask>
<g mask="url(#mask4_17319_480)">
<path d="M29.7865 19.3887H23.0215V19.8964H29.7865V19.3887Z" fill="url(#paint4_linear_17319_480)"/>
</g>
<path d="M8.72772 6.10791H27.8898C30.6847 6.10791 32.9403 8.40743 32.9403 11.2023V16.3881C32.9403 22.0236 28.3412 26.6683 22.6601 26.6683H13.9135C8.27801 26.6683 3.6333 22.0236 3.6333 16.3881V11.2023C3.6333 8.40743 5.93282 6.10791 8.72772 6.10791Z" fill="white"/>
<path d="M8.7276 5.61279H27.8897C29.4233 5.61279 30.7759 6.24345 31.8124 7.28166C32.8049 8.27419 33.4356 9.67076 33.4356 11.2044V16.3901C33.4356 19.366 32.2182 22.0256 30.2788 24.0107C28.3394 25.9501 25.6341 27.1675 22.6582 27.1675H13.9116C10.9358 27.1675 8.27613 25.9501 6.29106 24.0107C4.35167 22.0274 3.13428 19.366 3.13428 16.3901V11.2026C3.13428 9.66901 3.76493 8.27243 4.80314 7.2799C5.79743 6.24345 7.19401 5.61279 8.7276 5.61279ZM27.8914 6.60357H8.7276C7.46454 6.60357 6.29282 7.09896 5.48123 7.95623C4.62396 8.76782 4.12857 9.93954 4.12857 11.2026V16.3884C4.12857 19.0937 5.21069 21.5285 7.01482 23.2869C8.77328 25.0911 11.2081 26.1732 13.9134 26.1732H22.66C25.3653 26.1732 27.8001 25.0911 29.6042 23.2869C31.3626 21.5285 32.4904 19.0937 32.4904 16.3884V11.2026C32.4904 9.93954 31.9494 8.76782 31.1378 7.95623C30.2805 7.10072 29.1527 6.60357 27.8914 6.60357Z" fill="#262626"/>
<g opacity="0.4392">
<mask id="mask5_17319_480" style="mask-type:luminance" maskUnits="userSpaceOnUse" x="9" y="9" width="18" height="4">
<path d="M26.7635 9.53516H9.80957V12.511H26.7635V9.53516Z" fill="white"/>
</mask>
<g mask="url(#mask5_17319_480)">
<path d="M22.3454 11.6084H14.2294C12.6062 11.6084 11.164 10.7968 10.261 9.53369H9.80957V9.66896C10.5755 11.3378 12.29 12.5095 14.2277 12.5095H22.3436C24.3269 12.5095 25.9958 11.3378 26.7617 9.66896V9.53369H26.3102C25.4565 10.7968 24.0125 11.6084 22.3454 11.6084Z" fill="#262626"/>
</g>
</g>
<path d="M13.8239 25.5861C8.05317 25.5861 3.36279 20.8975 3.36279 15.125V15.847C3.36279 21.6178 8.05142 26.3081 13.8239 26.3081H22.7515C28.5222 26.3081 33.2565 21.6195 33.2565 15.847V15.125C33.2565 20.8958 28.5222 25.5861 22.7515 25.5861H13.8239Z" fill="#00A551"/>
<path d="M13.7323 1.28418H22.8408C27.7999 1.28418 31.9493 4.93635 32.7152 9.67065C32.0845 7.59599 30.1451 6.10807 27.8913 6.10807H8.72748C6.47363 6.10807 4.53424 7.59599 3.85791 9.67065C4.6695 4.93635 8.77315 1.28418 13.7323 1.28418Z" fill="white"/>
<path d="M13.7325 0.83252H22.841C25.4111 0.83252 27.8002 1.73371 29.6043 3.31298C31.4524 4.89049 32.7611 7.10042 33.2108 9.58087C33.2565 9.8514 33.0755 10.0763 32.805 10.1219C32.5345 10.1676 32.3096 10.0323 32.264 9.76181C31.9477 8.86063 31.3628 8.04903 30.5951 7.50797C29.8292 6.92123 28.8823 6.60678 27.8898 6.60678H8.72772C7.69127 6.60678 6.74441 6.92299 6.02241 7.50797C5.21081 8.04903 4.62407 8.86063 4.30963 9.80749C4.26395 10.078 3.99342 10.2133 3.72289 10.1237C3.49803 10.0341 3.36277 9.80749 3.40668 9.58263C3.81248 7.10217 5.11946 4.894 6.96927 3.31473C8.81731 1.73371 11.1625 0.83252 13.7325 0.83252ZM22.841 1.77938H13.7325C11.3874 1.77938 9.26878 2.63665 7.59992 4.03322C6.69873 4.79914 5.97673 5.70208 5.38999 6.73854L5.43567 6.69286C6.33685 6.01653 7.51033 5.61074 8.72772 5.61074H27.8898C29.1072 5.61074 30.235 6.01653 31.1361 6.69286L31.1818 6.73854C30.6408 5.70208 29.8748 4.79914 28.9719 4.03322C27.3505 2.63665 25.1862 1.77938 22.841 1.77938Z" fill="#262626"/>
<path d="M13.8677 1.28418H22.7056C21.8044 2.7721 20.1356 3.76464 18.2875 3.76464C16.4377 3.76288 14.8145 2.7721 13.8677 1.28418Z" fill="#00A551"/>
<path d="M13.8677 0.83252H22.7056C22.9762 0.83252 23.201 1.01346 23.201 1.28399C23.201 1.41926 23.1554 1.50885 23.1114 1.6002C22.5704 2.36612 21.894 3.04245 21.0368 3.53959C20.2252 3.99106 19.2783 4.26159 18.2858 4.26159C17.2933 4.26159 16.3464 3.99106 15.5348 3.53959C14.6775 3.0442 14.0012 2.36787 13.4601 1.55628C13.3249 1.33142 13.4145 1.01522 13.6411 0.87995C13.6885 0.83252 13.7781 0.83252 13.8677 0.83252ZM21.7131 1.77938H14.8602C15.1764 2.1395 15.5822 2.45571 15.988 2.68057C16.6644 3.04069 17.476 3.2673 18.2875 3.2673C19.1448 3.2673 19.9107 3.04245 20.5871 2.68057C20.9911 2.45571 21.3969 2.1395 21.7131 1.77938Z" fill="#262626"/>
<path d="M9.35846 9.76025H9.80993C10.5758 11.4291 12.2904 12.6008 14.228 12.6008H22.344C24.3273 12.6008 25.9961 11.4291 26.7621 9.76025H27.2135C29.0177 9.76025 30.5056 11.2482 30.5056 13.0523V16.4339C30.5056 20.0861 27.5297 23.062 23.8319 23.062H12.7401C9.08792 23.062 6.06641 20.0861 6.06641 16.4339V13.0523C6.06816 11.2482 7.55608 9.76025 9.35846 9.76025Z" fill="#262626"/>
<path d="M9.35798 9.26465H9.80945C10.0343 9.26465 10.2152 9.39991 10.2609 9.58085C10.621 10.3468 11.1621 10.9792 11.8841 11.4289C12.5604 11.8804 13.372 12.1509 14.2293 12.1509H22.3452C23.2025 12.1509 24.0141 11.8804 24.7343 11.4289C25.4107 10.9774 25.9974 10.3468 26.3575 9.58085C26.4032 9.39991 26.5824 9.26465 26.7633 9.26465H27.2148C28.2513 9.26465 29.1981 9.71612 29.8744 10.3924C30.5508 11.0688 31.0022 12.0156 31.0022 13.0521V16.4337C31.0022 18.3731 30.1906 20.1755 28.8837 21.4842C27.6206 22.7473 25.8182 23.5589 23.8332 23.5589H12.7414C10.7581 23.5589 8.99961 22.7473 7.69087 21.4842C6.38389 20.1773 5.61621 18.3731 5.61621 16.4337V13.0521C5.61621 12.0156 6.02201 11.0688 6.69834 10.3924C6.69834 10.3924 6.74401 10.3924 6.74401 10.3468C7.42034 9.67045 8.3672 9.26465 9.35798 9.26465ZM9.49324 10.2554H9.35798C8.59206 10.2554 7.91573 10.5716 7.41858 11.067H7.37291C6.87752 11.5624 6.56131 12.2844 6.56131 13.0503V16.432C6.56131 18.1008 7.23764 19.6784 8.36544 20.7605C9.49324 21.8883 11.0251 22.6085 12.7396 22.6085H23.8314C25.5442 22.6085 27.0778 21.8865 28.2056 20.7605C29.3334 19.6784 30.0097 18.1008 30.0097 16.432V13.0521C30.0097 12.2862 29.6935 11.5642 29.1981 11.0688C28.7027 10.5734 27.9807 10.2572 27.2148 10.2572H27.0795C26.6281 11.0688 25.9974 11.7451 25.2315 12.2405C24.4199 12.7816 23.4274 13.0978 22.3452 13.0978H14.2293C13.1928 13.0978 12.2003 12.7816 11.343 12.2405C10.5754 11.7433 9.94471 11.067 9.49324 10.2554Z" fill="#262626"/>
<path d="M12.3342 23.1971C12.3342 22.9265 12.6047 22.7456 12.8296 22.7456C13.1001 22.7913 13.3249 23.0161 13.281 23.2867C13.2353 23.7821 13.1914 24.2792 13.2353 24.7746C13.281 25.27 13.3706 25.7671 13.5059 26.2625C13.5516 26.533 13.4163 26.8036 13.1458 26.8493C12.8752 26.9388 12.6047 26.7597 12.559 26.4891C12.4238 25.9481 12.3342 25.407 12.2885 24.8659C12.2446 24.3231 12.2446 23.7381 12.3342 23.1971Z" fill="#262626"/>
<path d="M23.4714 23.2867C23.4258 23.0161 23.6067 22.7913 23.8772 22.7456C24.1478 22.7456 24.3726 22.9265 24.4183 23.1971C24.464 23.7381 24.5079 24.3249 24.464 24.8659C24.4183 25.407 24.3287 25.9481 24.1934 26.4891C24.1039 26.7597 23.8333 26.9406 23.6067 26.8493C23.3362 26.8036 23.1552 26.533 23.2466 26.2625C23.3819 25.7671 23.4714 25.27 23.4714 24.7746C23.5171 24.2792 23.5171 23.7821 23.4714 23.2867Z" fill="#262626"/>
<path d="M4.8048 21.0769C2.32434 20.2197 0.521973 17.8762 0.521973 15.1252C0.521973 12.6904 1.9203 10.5719 3.90361 9.48975C3.72267 10.0308 3.63308 10.6175 3.63308 11.2025V16.3883C3.63308 18.1011 4.03888 19.6803 4.8048 21.0769Z" fill="white"/>
<path d="M4.58002 21.5282C3.27304 21.0767 2.09956 20.1755 1.28797 19.0477C0.522047 17.9656 0.0249023 16.5673 0.0249023 15.125C0.0249023 13.8181 0.385025 12.6446 1.01744 11.6081C1.64809 10.526 2.59495 9.66874 3.72275 9.08376C3.94761 8.9485 4.21814 9.03809 4.3534 9.30862C4.39908 9.39821 4.39908 9.53348 4.39908 9.66874C4.30949 9.8936 4.21814 10.1641 4.17422 10.4347C4.12855 10.6595 4.12855 10.9301 4.12855 11.2006V16.3864C4.12855 17.1979 4.21814 17.9639 4.39908 18.6859C4.58002 19.4518 4.85055 20.1738 5.21067 20.8501C5.34594 21.1207 5.25635 21.3912 4.98582 21.5264C4.85055 21.5739 4.71528 21.5739 4.58002 21.5282ZM2.09956 18.5067C2.55103 19.1373 3.13601 19.6784 3.81234 20.1299C3.67708 19.7241 3.54181 19.3183 3.45222 18.9125C3.27128 18.1009 3.13601 17.2436 3.13601 16.3881V11.2023C3.13601 10.9775 3.18169 10.7509 3.18169 10.5717C2.64062 10.9775 2.18915 11.5185 1.82903 12.1053C1.33364 12.9626 1.01744 13.999 1.01744 15.1268C1.01744 16.3881 1.42323 17.5598 2.09956 18.5067Z" fill="#262626"/>
<path d="M8.7276 5.61279H27.8897C29.4233 5.61279 30.7759 6.24345 31.8124 7.28166C32.8049 8.27419 33.4356 9.67076 33.4356 11.2044V16.3901C33.4356 19.366 32.2182 22.0256 30.2788 24.0107C28.3394 25.9501 25.6341 27.1675 22.6582 27.1675H13.9116C10.9358 27.1675 8.27613 25.9501 6.29106 24.0107C4.35167 22.0274 3.13428 19.366 3.13428 16.3901V11.2026C3.13428 9.66901 3.76493 8.27243 4.80314 7.2799C5.79743 6.24345 7.19401 5.61279 8.7276 5.61279ZM27.8914 6.60357H8.7276C7.46454 6.60357 6.29282 7.09896 5.48123 7.95623C4.62396 8.76782 4.12857 9.93954 4.12857 11.2026V16.3884C4.12857 19.0937 5.21069 21.5285 7.01482 23.2869C8.77328 25.0911 11.2081 26.1732 13.9134 26.1732H22.66C25.3653 26.1732 27.8001 25.0911 29.6042 23.2869C31.3626 21.5285 32.4904 19.0937 32.4904 16.3884V11.2026C32.4904 9.93954 31.9494 8.76782 31.1378 7.95623C30.2805 7.10072 29.1527 6.60357 27.8914 6.60357Z" fill="#262626"/>
<g opacity="0.4392">
<mask id="mask6_17319_480" style="mask-type:luminance" maskUnits="userSpaceOnUse" x="0" y="12" width="5" height="9">
<path d="M4.21986 12.7817H0.592285V20.8977H4.21986V12.7817Z" fill="white"/>
</mask>
<g mask="url(#mask6_17319_480)">
<path d="M3.63319 15.5766C3.58752 16.9293 3.76846 18.6878 4.21993 20.8977C1.01923 19.1392 -0.0628997 16.4796 0.973552 12.7817C1.42327 14.6755 2.32445 15.6223 3.63319 15.5766Z" fill="#262626"/>
</g>
</g>
<path d="M4.21807 20.7164C4.1724 19.9505 4.12848 19.5447 4.12848 19.5447C1.87464 18.1921 0.882105 16.1174 1.15264 13.3682C0.160102 16.929 1.19831 19.3638 4.21807 20.7164Z" fill="#00A551"/>
<path d="M4.58002 21.5282C3.27304 21.0767 2.09956 20.1755 1.28797 19.0477C0.522047 17.9656 0.0249023 16.5673 0.0249023 15.125C0.0249023 13.8181 0.385025 12.6446 1.01744 11.6081C1.64809 10.526 2.59495 9.66874 3.72275 9.08376C3.94761 8.9485 4.21814 9.03809 4.3534 9.30862C4.39908 9.39821 4.39908 9.53348 4.39908 9.66874C4.30949 9.8936 4.21814 10.1641 4.17422 10.4347C4.12855 10.6595 4.12855 10.9301 4.12855 11.2006V16.3864C4.12855 17.1979 4.21814 17.9639 4.39908 18.6859C4.58002 19.4518 4.85055 20.1738 5.21067 20.8501C5.34594 21.1207 5.25635 21.3912 4.98582 21.5264C4.85055 21.5739 4.71528 21.5739 4.58002 21.5282ZM2.09956 18.5067C2.55103 19.1373 3.13601 19.6784 3.81234 20.1299C3.67708 19.7241 3.54181 19.3183 3.45222 18.9125C3.27128 18.1009 3.13601 17.2436 3.13601 16.3881V11.2023C3.13601 10.9775 3.18169 10.7509 3.18169 10.5717C2.64062 10.9775 2.18915 11.5185 1.82903 12.1053C1.33364 12.9626 1.01744 13.999 1.01744 15.1268C1.01744 16.3881 1.42323 17.5598 2.09956 18.5067Z" fill="#262626"/>
<path d="M31.814 21.0328C34.2944 20.1755 36.0529 17.8321 36.0529 15.0354C36.0529 12.6006 34.7002 10.4821 32.6712 9.44385C32.8522 9.98491 32.9418 10.526 32.9418 11.1127V16.3424C32.94 18.0113 32.5342 19.6344 31.814 21.0328Z" fill="white"/>
<path d="M32.761 20.0401C33.4374 19.6343 34.0241 19.0932 34.5195 18.4169C35.1958 17.47 35.5559 16.2983 35.5559 15.0353C35.5559 13.9531 35.2854 12.9167 34.7443 12.0137C34.3842 11.427 33.9328 10.9316 33.3917 10.4801C33.4374 10.705 33.4374 10.9316 33.4374 11.1108V16.3405C33.4374 17.1978 33.3478 18.0533 33.1212 18.8649C33.0316 19.2742 32.8963 19.68 32.761 20.0401ZM35.2854 19.0036C34.4738 20.1314 33.346 20.987 31.9934 21.4841C31.8581 21.5298 31.7228 21.5298 31.5876 21.4841C31.3627 21.3488 31.2714 21.0326 31.3627 20.8078C31.7228 20.1314 31.9934 19.4094 32.1743 18.6435C32.3552 17.8776 32.4905 17.1099 32.4905 16.344V11.1126C32.4905 10.842 32.4448 10.6172 32.4009 10.3466C32.3552 10.1218 32.3113 9.85125 32.22 9.62464C32.1743 9.48937 32.1743 9.35411 32.22 9.21884C32.3552 8.99398 32.6714 8.90263 32.8963 9.0379C33.9784 9.57896 34.9253 10.4801 35.5559 11.5184C36.1866 12.5548 36.5485 13.7722 36.5485 15.0353C36.5485 16.5232 36.097 17.8758 35.2854 19.0036Z" fill="#262626"/>
<g opacity="0.4392">
<mask id="mask7_17319_480" style="mask-type:luminance" maskUnits="userSpaceOnUse" x="32" y="12" width="4" height="9">
<path d="M35.9808 12.7358H32.355V20.8061H35.9808V12.7358Z" fill="white"/>
</mask>
<g mask="url(#mask7_17319_480)">
<path d="M32.9398 15.5307C33.0294 16.8377 32.8045 18.5962 32.353 20.8061C35.5537 19.0933 36.6359 16.388 35.5994 12.7358C35.1497 14.6296 34.2485 15.5764 32.9398 15.5307Z" fill="#262626"/>
</g>
</g>
<path d="M32.3989 20.6271C32.4446 19.8612 32.4446 19.4993 32.4446 19.4993C34.6984 18.1466 35.691 16.072 35.4661 13.3228C36.413 16.8836 35.4204 19.3184 32.3989 20.6271Z" fill="#00A551"/>
<path d="M32.761 20.0401C33.4374 19.6343 34.0241 19.0932 34.5195 18.4169C35.1958 17.47 35.5559 16.2983 35.5559 15.0353C35.5559 13.9531 35.2854 12.9167 34.7443 12.0137C34.3842 11.427 33.9328 10.9316 33.3917 10.4801C33.4374 10.705 33.4374 10.9316 33.4374 11.1108V16.3405C33.4374 17.1978 33.3478 18.0533 33.1212 18.8649C33.0316 19.2742 32.8963 19.68 32.761 20.0401ZM35.2854 19.0036C34.4738 20.1314 33.346 20.987 31.9934 21.4841C31.8581 21.5298 31.7228 21.5298 31.5876 21.4841C31.3627 21.3488 31.2714 21.0326 31.3627 20.8078C31.7228 20.1314 31.9934 19.4094 32.1743 18.6435C32.3552 17.8776 32.4905 17.1099 32.4905 16.344V11.1126C32.4905 10.842 32.4448 10.6172 32.4009 10.3466C32.3552 10.1218 32.3113 9.85125 32.22 9.62464C32.1743 9.48937 32.1743 9.35411 32.22 9.21884C32.3552 8.99398 32.6714 8.90263 32.8963 9.0379C33.9784 9.57896 34.9253 10.4801 35.5559 11.5184C36.1866 12.5548 36.5485 13.7722 36.5485 15.0353C36.5485 16.5232 36.097 17.8758 35.2854 19.0036Z" fill="#262626"/>
<path d="M17.8818 14.4944C17.8818 14.3135 18.0628 14.1343 18.242 14.1343C18.4668 14.1343 18.6021 14.3152 18.6021 14.4944V19.4536C18.6021 19.6345 18.4668 19.8137 18.242 19.8137C18.061 19.8137 17.8818 19.6327 17.8818 19.4536V14.4944Z" fill="#00A551"/>
<path d="M19.7754 15.1707C19.7754 14.9897 19.9563 14.8105 20.1355 14.8105C20.3604 14.8105 20.4956 14.9915 20.4956 15.1707V18.7772C20.4956 19.002 20.3604 19.1373 20.1355 19.1373C19.9546 19.1373 19.7754 19.002 19.7754 18.7772V15.1707Z" fill="#00A551"/>
<path d="M21.6689 14.719C21.6689 14.5381 21.8499 14.3589 22.0291 14.3589C22.2539 14.3589 22.3892 14.5398 22.3892 14.719V19.2285C22.3892 19.4533 22.2539 19.5886 22.0291 19.5886C21.8481 19.5886 21.6689 19.4533 21.6689 19.2285V14.719Z" fill="#00A551"/>
<path d="M23.4277 16.072C23.4277 15.8472 23.6087 15.7119 23.7879 15.7119C24.0127 15.7119 24.148 15.8472 24.148 16.072V17.9201C24.148 18.101 24.0127 18.2802 23.7879 18.2802C23.6069 18.2802 23.4277 18.0993 23.4277 17.9201V16.072Z" fill="#00A551"/>
<path d="M16.0776 15.1707C16.0776 14.9897 16.2586 14.8105 16.4378 14.8105C16.6626 14.8105 16.7979 14.9915 16.7979 15.1707V18.7772C16.7979 19.002 16.6626 19.1373 16.4378 19.1373C16.2568 19.1373 16.0776 19.002 16.0776 18.7772V15.1707Z" fill="#00A551"/>
<path d="M14.1841 14.719C14.1841 14.5381 14.365 14.3589 14.5442 14.3589C14.7691 14.3589 14.9043 14.5398 14.9043 14.719V19.2285C14.9043 19.4533 14.7691 19.5886 14.5442 19.5886C14.3633 19.5886 14.1841 19.4533 14.1841 19.2285V14.719Z" fill="#00A551"/>
<path d="M12.4253 16.072C12.4253 15.8472 12.6062 15.7119 12.7854 15.7119C13.0103 15.7119 13.1455 15.8472 13.1455 16.072V17.9201C13.1455 18.101 13.0103 18.2802 12.7854 18.2802C12.6045 18.2802 12.4253 18.0993 12.4253 17.9201V16.072Z" fill="#00A551"/>
<defs>
<linearGradient id="paint0_linear_17319_480" x1="26.4098" y1="12.6336" x2="26.4098" y2="13.1417" gradientUnits="userSpaceOnUse">
<stop stop-color="#F1F4F7"/>
<stop offset="1" stop-color="#D8E2EB"/>
</linearGradient>
<linearGradient id="paint1_linear_17319_480" x1="26.4098" y1="14.3224" x2="26.4098" y2="14.8302" gradientUnits="userSpaceOnUse">
<stop stop-color="#F1F4F7"/>
<stop offset="1" stop-color="#D8E2EB"/>
</linearGradient>
<linearGradient id="paint2_linear_17319_480" x1="26.4098" y1="16.011" x2="26.4098" y2="16.5191" gradientUnits="userSpaceOnUse">
<stop stop-color="#F1F4F7"/>
<stop offset="1" stop-color="#D8E2EB"/>
</linearGradient>
<linearGradient id="paint3_linear_17319_480" x1="26.4228" y1="17.6977" x2="26.4228" y2="18.2059" gradientUnits="userSpaceOnUse">
<stop stop-color="#F1F4F7"/>
<stop offset="1" stop-color="#D8E2EB"/>
</linearGradient>
<linearGradient id="paint4_linear_17319_480" x1="26.4228" y1="19.3868" x2="26.4228" y2="19.8949" gradientUnits="userSpaceOnUse">
<stop stop-color="#F1F4F7"/>
<stop offset="1" stop-color="#D8E2EB"/>
</linearGradient>
</defs>
</svg>
