<svg width="24" height="24" viewBox="0 0 24 24" fill="none" xmlns="http://www.w3.org/2000/svg">
<path d="M21.63 6.62646H2.36994C1.06007 6.63423 0.00195577 7.69758 0.000661727 9.00751C-0.000220576 9.0208 -0.000220576 9.03421 0.000661727 9.04751L1.37705 19.3175C1.39376 20.621 2.45452 21.6691 3.7581 21.6703H20.2513C21.5548 21.6691 22.6156 20.621 22.6323 19.3175L23.9993 9.04751C24.0002 9.03421 24.0002 9.0208 23.9993 9.00751C23.9981 7.69758 22.94 6.63423 21.63 6.62646Z" fill="#F8F8F8" fill-opacity="0.02"/>
<path d="M21.63 6.62646H2.36994C1.06007 6.63423 0.00195577 7.69758 0.000661727 9.00751C-0.000220576 9.0208 -0.000220576 9.03421 0.000661727 9.04751L1.37705 19.3175C1.39376 20.621 2.45452 21.6691 3.7581 21.6703H20.2513C21.5548 21.6691 22.6156 20.621 22.6323 19.3175L23.9993 9.04751C24.0002 9.03421 24.0002 9.0208 23.9993 9.00751C23.9981 7.69758 22.94 6.63423 21.63 6.62646Z" fill="url(#paint0_linear_15239_8882)" fill-opacity="0.25"/>
<path d="M21.6279 6.99561L21.833 7.00732C22.8431 7.11562 23.6289 7.97077 23.6299 9.0083V9.02002L22.2656 19.269L22.2627 19.2905V19.313C22.2485 20.4142 21.3523 21.2993 20.251 21.3003H3.75879C2.65741 21.2993 1.7613 20.4142 1.74707 19.313L1.74609 19.2905L1.74316 19.2681L0.370117 9.02002V9.0083C0.371211 7.9015 1.26534 7.0022 2.37207 6.99561H21.6279Z" stroke="url(#paint1_linear_15239_8882)" stroke-opacity="0.25" stroke-width="0.73913"/>
<path d="M19.8724 4.25482H12.1364L10.607 2.4361C10.5491 2.36645 10.4623 2.3274 10.3718 2.33022H4.1274C3.1534 2.33152 2.36409 3.12082 2.36279 4.09483V5.7912H2.951H21.6205C21.506 4.9129 20.7581 4.25564 19.8724 4.25482Z" fill="#13F584"/>
<defs>
<linearGradient id="paint0_linear_15239_8882" x1="0" y1="6.62646" x2="-2.28812" y2="33.9061" gradientUnits="userSpaceOnUse">
<stop stop-color="white" stop-opacity="0.4"/>
<stop offset="1" stop-color="white" stop-opacity="0"/>
</linearGradient>
<linearGradient id="paint1_linear_15239_8882" x1="12" y1="14.1484" x2="-3.7874" y2="3.81814" gradientUnits="userSpaceOnUse">
<stop stop-color="white" stop-opacity="0"/>
<stop offset="1" stop-color="white" stop-opacity="0.5"/>
</linearGradient>
</defs>
</svg>
