<svg width="1437" height="1070" viewBox="0 0 1437 1070" fill="none" xmlns="http://www.w3.org/2000/svg">
<g opacity="0.3" clip-path="url(#clip0_15037_494357)">
<mask id="mask0_15037_494357" style="mask-type:alpha" maskUnits="userSpaceOnUse" x="-35" y="105" width="501" height="501">
<circle cx="215.5" cy="355.5" r="250.5" fill="url(#paint0_radial_15037_494357)"/>
</mask>
<g mask="url(#mask0_15037_494357)">
<path d="M3.96413 2.11328H3.61212V708.705H3.96413V2.11328Z" fill="#858585"/>
<path d="M32.1924 2.11328H31.8404V708.705H32.1924V2.11328Z" fill="#858585"/>
<path d="M60.4207 2.11328H60.0687V708.705H60.4207V2.11328Z" fill="#858585"/>
<path d="M88.6489 2.11328H88.2969V708.705H88.6489V2.11328Z" fill="#858585"/>
<path d="M116.877 2.11328H116.525V708.705H116.877V2.11328Z" fill="#858585"/>
<path d="M145.105 2.11328H144.753V708.705H145.105V2.11328Z" fill="#858585"/>
<path d="M173.334 2.11328H172.982V708.705H173.334V2.11328Z" fill="#858585"/>
<path d="M201.562 2.11328H201.21V708.705H201.562V2.11328Z" fill="#858585"/>
<path d="M229.79 2.11328H229.438V708.705H229.79V2.11328Z" fill="#858585"/>
<path d="M258.018 2.11328H257.666V708.705H258.018V2.11328Z" fill="#858585"/>
<path d="M286.247 2.11328H285.895V708.705H286.247V2.11328Z" fill="#858585"/>
<path d="M314.475 2.11328H314.123V708.705H314.475V2.11328Z" fill="#858585"/>
<path d="M342.703 2.11328H342.351V708.705H342.703V2.11328Z" fill="#858585"/>
<path d="M370.931 2.11328H370.579V708.705H370.931V2.11328Z" fill="#858585"/>
<path d="M399.16 2.11328H398.808V708.705H399.16V2.11328Z" fill="#858585"/>
<path d="M427.388 2.11328H427.036V708.705H427.388V2.11328Z" fill="#858585"/>
<path d="M455.616 2.11328H455.264V708.705H455.616V2.11328Z" fill="#858585"/>
<path d="M568.705 115.23H-137.705V115.583H568.705V115.23Z" fill="#858585"/>
<path d="M568.705 143.467H-137.705V143.819H568.705V143.467Z" fill="#858585"/>
<path d="M568.705 171.703H-137.705V172.055H568.705V171.703Z" fill="#858585"/>
<path d="M568.705 199.938H-137.705V200.29H568.705V199.938Z" fill="#858585"/>
<path d="M568.705 228.174H-137.705V228.526H568.705V228.174Z" fill="#858585"/>
<path d="M568.705 256.408H-137.705V256.76H568.705V256.408Z" fill="#858585"/>
<path d="M568.705 284.645H-137.705V284.997H568.705V284.645Z" fill="#858585"/>
<path d="M568.705 312.881H-137.705V313.233H568.705V312.881Z" fill="#858585"/>
<path d="M568.705 341.115H-137.705V341.467H568.705V341.115Z" fill="#858585"/>
<path d="M568.705 369.352H-137.705V369.704H568.705V369.352Z" fill="#858585"/>
<path d="M568.705 397.586H-137.705V397.938H568.705V397.586Z" fill="#858585"/>
<path d="M568.705 425.822H-137.705V426.174H568.705V425.822Z" fill="#858585"/>
<path d="M568.705 454.057H-137.705V454.409H568.705V454.057Z" fill="#858585"/>
<path d="M568.705 482.293H-137.705V482.645H568.705V482.293Z" fill="#858585"/>
<path d="M568.705 510.529H-137.705V510.881H568.705V510.529Z" fill="#858585"/>
<path d="M568.705 538.764H-137.705V539.116H568.705V538.764Z" fill="#858585"/>
<path d="M568.705 567H-137.705V567.352H568.705V567Z" fill="#858585"/>
<path d="M568.705 595.234H-137.705V595.586H568.705V595.234Z" fill="#858585"/>
<path d="M4.14017 2.11328H3.43616V708.705H4.14017V2.11328Z" fill="white"/>
<path d="M145.281 2.11328H144.577V708.705H145.281V2.11328Z" fill="white"/>
<path d="M286.423 2.11328H285.719V708.705H286.423V2.11328Z" fill="white"/>
<path d="M427.564 2.11328H426.86V708.705H427.564V2.11328Z" fill="white"/>
<path d="M568.705 143.291H-137.705V143.995H568.705V143.291Z" fill="white"/>
<path d="M568.705 284.469H-137.705V285.173H568.705V284.469Z" fill="white"/>
<path d="M568.705 425.646H-137.705V426.351H568.705V425.646Z" fill="white"/>
<path d="M568.705 566.824H-137.705V567.528H568.705V566.824Z" fill="white"/>
<path d="M429.75 143.784C429.75 145.247 428.566 146.432 427.104 146.432C425.641 146.432 424.457 145.247 424.457 143.784C424.457 142.322 425.641 141.137 427.104 141.137C428.566 141.137 429.75 142.322 429.75 143.784Z" fill="white"/>
<path d="M429.777 284.929C429.777 286.391 428.593 287.576 427.131 287.576C425.668 287.576 424.484 286.391 424.484 284.929C424.484 283.466 425.668 282.281 427.131 282.281C428.593 282.281 429.777 283.466 429.777 284.929Z" fill="white"/>
<path d="M429.805 426.071C429.805 427.534 428.62 428.719 427.158 428.719C425.696 428.719 424.511 427.534 424.511 426.071C424.511 424.609 425.696 423.424 427.158 423.424C428.62 423.424 429.805 424.609 429.805 426.071Z" fill="white"/>
<path d="M429.832 567.208C429.832 568.671 428.647 569.856 427.185 569.856C425.723 569.856 424.538 568.671 424.538 567.208C424.538 565.745 425.723 564.561 427.185 564.561C428.647 564.561 429.832 565.745 429.832 567.208Z" fill="white"/>
<path d="M288.636 143.784C288.636 145.247 287.452 146.432 285.989 146.432C284.527 146.432 283.343 145.247 283.343 143.784C283.343 142.322 284.527 141.137 285.989 141.137C287.452 141.137 288.636 142.322 288.636 143.784Z" fill="white"/>
<path d="M288.657 284.929C288.657 286.391 287.472 287.576 286.01 287.576C284.548 287.576 283.363 286.391 283.363 284.929C283.363 283.466 284.548 282.281 286.01 282.281C287.472 282.281 288.657 283.466 288.657 284.929Z" fill="white"/>
<path d="M288.677 426.071C288.677 427.534 287.492 428.719 286.03 428.719C284.568 428.719 283.383 427.534 283.383 426.071C283.383 424.609 284.568 423.424 286.03 423.424C287.492 423.424 288.677 424.609 288.677 426.071Z" fill="white"/>
<path d="M288.697 567.208C288.697 568.671 287.512 569.856 286.05 569.856C284.588 569.856 283.403 568.671 283.403 567.208C283.403 565.745 284.588 564.561 286.05 564.561C287.512 564.561 288.697 565.745 288.697 567.208Z" fill="white"/>
<path d="M144.875 146.432C146.337 146.432 147.522 145.246 147.522 143.784C147.522 142.322 146.337 141.137 144.875 141.137C143.413 141.137 142.228 142.322 142.228 143.784C142.228 145.246 143.413 146.432 144.875 146.432Z" fill="white"/>
<path d="M147.536 284.929C147.536 286.391 146.351 287.576 144.889 287.576C143.427 287.576 142.242 286.391 142.242 284.929C142.242 283.466 143.427 282.281 144.889 282.281C146.351 282.281 147.536 283.466 147.536 284.929Z" fill="white"/>
<path d="M147.549 426.071C147.549 427.534 146.365 428.719 144.902 428.719C143.44 428.719 142.255 427.534 142.255 426.071C142.255 424.609 143.44 423.424 144.902 423.424C146.365 423.424 147.549 424.609 147.549 426.071Z" fill="white"/>
<path d="M147.563 567.208C147.563 568.671 146.378 569.856 144.916 569.856C143.454 569.856 142.269 568.671 142.269 567.208C142.269 565.745 143.454 564.561 144.916 564.561C146.378 564.561 147.563 565.745 147.563 567.208Z" fill="white"/>
<path d="M6.40784 143.784C6.40784 145.247 5.22321 146.432 3.76102 146.432C2.29884 146.432 1.1142 145.247 1.1142 143.784C1.1142 142.322 2.29884 141.137 3.76102 141.137C5.22321 141.137 6.40784 142.322 6.40784 143.784Z" fill="white"/>
<path d="M6.41463 284.929C6.41463 286.391 5.22998 287.576 3.7678 287.576C2.30562 287.576 1.12097 286.391 1.12097 284.929C1.12097 283.466 2.30562 282.281 3.7678 282.281C5.22998 282.281 6.41463 283.466 6.41463 284.929Z" fill="white"/>
<path d="M6.42139 426.071C6.42139 427.534 5.23674 428.719 3.77456 428.719C2.31238 428.719 1.12775 427.534 1.12775 426.071C1.12775 424.609 2.31238 423.424 3.77456 423.424C5.23674 423.424 6.42139 424.609 6.42139 426.071Z" fill="white"/>
<path d="M6.42816 567.208C6.42816 568.671 5.24353 569.856 3.78135 569.856C2.31917 569.856 1.13452 568.671 1.13452 567.208C1.13452 565.745 2.31917 564.561 3.78135 564.561C5.24353 564.561 6.42816 565.745 6.42816 567.208Z" fill="white"/>
<path d="M358.151 214.231C358.151 215.084 357.46 215.775 356.607 215.775C355.755 215.775 355.064 215.084 355.064 214.231C355.064 213.378 355.755 212.688 356.607 212.688C357.46 212.688 358.151 213.378 358.151 214.231Z" fill="white"/>
<path d="M358.104 355.415C358.104 356.241 357.433 356.918 356.601 356.918C355.775 356.918 355.098 356.248 355.098 355.415C355.098 354.582 355.768 353.912 356.601 353.912C357.433 353.912 358.104 354.582 358.104 355.415Z" fill="white"/>
<path d="M358.056 496.595C358.056 497.4 357.406 498.05 356.601 498.05C355.795 498.05 355.145 497.4 355.145 496.595C355.145 495.789 355.795 495.139 356.601 495.139C357.399 495.132 358.056 495.789 358.056 496.595Z" fill="white"/>
<path d="M216.928 214.238C216.928 215.064 216.258 215.741 215.426 215.741C214.6 215.741 213.923 215.07 213.923 214.238C213.923 213.411 214.593 212.734 215.426 212.734C216.251 212.741 216.928 213.411 216.928 214.238Z" fill="white"/>
<path d="M216.84 355.429C216.84 356.208 216.211 356.844 215.426 356.844C214.647 356.844 214.011 356.214 214.011 355.429C214.011 354.643 214.64 354.014 215.426 354.014C216.211 354.014 216.84 354.643 216.84 355.429Z" fill="white"/>
<path d="M216.759 496.613C216.759 497.345 216.163 497.941 215.432 497.941C214.701 497.941 214.106 497.345 214.106 496.613C214.106 495.882 214.701 495.293 215.432 495.293C216.17 495.286 216.759 495.882 216.759 496.613Z" fill="white"/>
<path d="M75.6991 214.253C75.6991 215.058 75.0492 215.708 74.2437 215.708C73.4381 215.708 72.7883 215.058 72.7883 214.253C72.7883 213.447 73.4381 212.797 74.2437 212.797C75.0492 212.797 75.6991 213.447 75.6991 214.253Z" fill="white"/>
<path d="M75.584 355.442C75.584 356.174 74.9951 356.763 74.264 356.763C73.5329 356.763 72.9372 356.167 72.9372 355.442C72.9372 354.711 73.5329 354.115 74.264 354.115C74.9883 354.115 75.584 354.711 75.584 355.442Z" fill="white"/>
<path d="M75.4622 496.635C75.4622 497.292 74.9274 497.827 74.2707 497.827C73.6141 497.827 73.0793 497.292 73.0793 496.635C73.0793 495.978 73.6141 495.443 74.2707 495.443C74.9274 495.443 75.4622 495.978 75.4622 496.635Z" fill="white"/>
</g>
<mask id="mask1_15037_494357" style="mask-type:alpha" maskUnits="userSpaceOnUse" x="-35" y="665" width="501" height="501">
<circle cx="215.5" cy="915.5" r="250.5" fill="url(#paint1_radial_15037_494357)"/>
</mask>
<g mask="url(#mask1_15037_494357)">
<path d="M3.96413 562.113H3.61212V1268.71H3.96413V562.113Z" fill="#858585"/>
<path d="M32.1924 562.113H31.8404V1268.71H32.1924V562.113Z" fill="#858585"/>
<path d="M60.4207 562.113H60.0687V1268.71H60.4207V562.113Z" fill="#858585"/>
<path d="M88.6489 562.113H88.2969V1268.71H88.6489V562.113Z" fill="#858585"/>
<path d="M116.877 562.113H116.525V1268.71H116.877V562.113Z" fill="#858585"/>
<path d="M145.105 562.113H144.753V1268.71H145.105V562.113Z" fill="#858585"/>
<path d="M173.334 562.113H172.982V1268.71H173.334V562.113Z" fill="#858585"/>
<path d="M201.562 562.113H201.21V1268.71H201.562V562.113Z" fill="#858585"/>
<path d="M229.79 562.113H229.438V1268.71H229.79V562.113Z" fill="#858585"/>
<path d="M258.018 562.113H257.666V1268.71H258.018V562.113Z" fill="#858585"/>
<path d="M286.247 562.113H285.895V1268.71H286.247V562.113Z" fill="#858585"/>
<path d="M314.475 562.113H314.123V1268.71H314.475V562.113Z" fill="#858585"/>
<path d="M342.703 562.113H342.351V1268.71H342.703V562.113Z" fill="#858585"/>
<path d="M370.931 562.113H370.579V1268.71H370.931V562.113Z" fill="#858585"/>
<path d="M399.16 562.113H398.808V1268.71H399.16V562.113Z" fill="#858585"/>
<path d="M427.388 562.113H427.036V1268.71H427.388V562.113Z" fill="#858585"/>
<path d="M455.616 562.113H455.264V1268.71H455.616V562.113Z" fill="#858585"/>
<path d="M568.705 675.23H-137.705V675.583H568.705V675.23Z" fill="#858585"/>
<path d="M568.705 703.467H-137.705V703.819H568.705V703.467Z" fill="#858585"/>
<path d="M568.705 731.703H-137.705V732.055H568.705V731.703Z" fill="#858585"/>
<path d="M568.705 759.938H-137.705V760.29H568.705V759.938Z" fill="#858585"/>
<path d="M568.705 788.174H-137.705V788.526H568.705V788.174Z" fill="#858585"/>
<path d="M568.705 816.408H-137.705V816.76H568.705V816.408Z" fill="#858585"/>
<path d="M568.705 844.645H-137.705V844.997H568.705V844.645Z" fill="#858585"/>
<path d="M568.705 872.881H-137.705V873.233H568.705V872.881Z" fill="#858585"/>
<path d="M568.705 901.115H-137.705V901.467H568.705V901.115Z" fill="#858585"/>
<path d="M568.705 929.352H-137.705V929.704H568.705V929.352Z" fill="#858585"/>
<path d="M568.705 957.586H-137.705V957.938H568.705V957.586Z" fill="#858585"/>
<path d="M568.705 985.822H-137.705V986.174H568.705V985.822Z" fill="#858585"/>
<path d="M568.705 1014.06H-137.705V1014.41H568.705V1014.06Z" fill="#858585"/>
<path d="M568.705 1042.29H-137.705V1042.65H568.705V1042.29Z" fill="#858585"/>
<path d="M4.14017 562.113H3.43616V1268.71H4.14017V562.113Z" fill="white"/>
<path d="M145.281 562.113H144.577V1268.71H145.281V562.113Z" fill="white"/>
<path d="M286.423 562.113H285.719V1268.71H286.423V562.113Z" fill="white"/>
<path d="M427.564 562.113H426.86V1268.71H427.564V562.113Z" fill="white"/>
<path d="M568.705 703.291H-137.705V703.995H568.705V703.291Z" fill="white"/>
<path d="M568.705 844.469H-137.705V845.173H568.705V844.469Z" fill="white"/>
<path d="M568.705 985.646H-137.705V986.351H568.705V985.646Z" fill="white"/>
<path d="M429.75 703.784C429.75 705.247 428.566 706.432 427.104 706.432C425.641 706.432 424.457 705.247 424.457 703.784C424.457 702.322 425.641 701.137 427.104 701.137C428.566 701.137 429.75 702.322 429.75 703.784Z" fill="white"/>
<path d="M429.777 844.929C429.777 846.391 428.593 847.576 427.131 847.576C425.668 847.576 424.484 846.391 424.484 844.929C424.484 843.466 425.668 842.281 427.131 842.281C428.593 842.281 429.777 843.466 429.777 844.929Z" fill="white"/>
<path d="M429.805 986.071C429.805 987.534 428.62 988.719 427.158 988.719C425.696 988.719 424.511 987.534 424.511 986.071C424.511 984.609 425.696 983.424 427.158 983.424C428.62 983.424 429.805 984.609 429.805 986.071Z" fill="white"/>
<path d="M288.636 703.784C288.636 705.247 287.452 706.432 285.989 706.432C284.527 706.432 283.343 705.247 283.343 703.784C283.343 702.322 284.527 701.137 285.989 701.137C287.452 701.137 288.636 702.322 288.636 703.784Z" fill="white"/>
<path d="M288.657 844.929C288.657 846.391 287.472 847.576 286.01 847.576C284.548 847.576 283.363 846.391 283.363 844.929C283.363 843.466 284.548 842.281 286.01 842.281C287.472 842.281 288.657 843.466 288.657 844.929Z" fill="white"/>
<path d="M288.677 986.071C288.677 987.534 287.492 988.719 286.03 988.719C284.568 988.719 283.383 987.534 283.383 986.071C283.383 984.609 284.568 983.424 286.03 983.424C287.492 983.424 288.677 984.609 288.677 986.071Z" fill="white"/>
<path d="M144.875 706.432C146.337 706.432 147.522 705.246 147.522 703.784C147.522 702.322 146.337 701.137 144.875 701.137C143.413 701.137 142.228 702.322 142.228 703.784C142.228 705.246 143.413 706.432 144.875 706.432Z" fill="white"/>
<path d="M147.536 844.929C147.536 846.391 146.351 847.576 144.889 847.576C143.427 847.576 142.242 846.391 142.242 844.929C142.242 843.466 143.427 842.281 144.889 842.281C146.351 842.281 147.536 843.466 147.536 844.929Z" fill="white"/>
<path d="M147.549 986.071C147.549 987.534 146.365 988.719 144.902 988.719C143.44 988.719 142.255 987.534 142.255 986.071C142.255 984.609 143.44 983.424 144.902 983.424C146.365 983.424 147.549 984.609 147.549 986.071Z" fill="white"/>
<path d="M6.40784 703.784C6.40784 705.247 5.22321 706.432 3.76102 706.432C2.29884 706.432 1.1142 705.247 1.1142 703.784C1.1142 702.322 2.29884 701.137 3.76102 701.137C5.22321 701.137 6.40784 702.322 6.40784 703.784Z" fill="white"/>
<path d="M6.41463 844.929C6.41463 846.391 5.22998 847.576 3.7678 847.576C2.30562 847.576 1.12097 846.391 1.12097 844.929C1.12097 843.466 2.30562 842.281 3.7678 842.281C5.22998 842.281 6.41463 843.466 6.41463 844.929Z" fill="white"/>
<path d="M6.42139 986.071C6.42139 987.534 5.23674 988.719 3.77456 988.719C2.31238 988.719 1.12775 987.534 1.12775 986.071C1.12775 984.609 2.31238 983.424 3.77456 983.424C5.23674 983.424 6.42139 984.609 6.42139 986.071Z" fill="white"/>
<path d="M358.151 774.231C358.151 775.084 357.46 775.775 356.607 775.775C355.755 775.775 355.064 775.084 355.064 774.231C355.064 773.378 355.755 772.688 356.607 772.688C357.46 772.688 358.151 773.378 358.151 774.231Z" fill="white"/>
<path d="M358.104 915.415C358.104 916.241 357.433 916.918 356.601 916.918C355.775 916.918 355.098 916.248 355.098 915.415C355.098 914.582 355.768 913.912 356.601 913.912C357.433 913.912 358.104 914.582 358.104 915.415Z" fill="white"/>
<path d="M358.056 1056.59C358.056 1057.4 357.406 1058.05 356.601 1058.05C355.795 1058.05 355.145 1057.4 355.145 1056.59C355.145 1055.79 355.795 1055.14 356.601 1055.14C357.399 1055.13 358.056 1055.79 358.056 1056.59Z" fill="white"/>
<path d="M216.928 774.238C216.928 775.064 216.258 775.741 215.426 775.741C214.6 775.741 213.923 775.07 213.923 774.238C213.923 773.411 214.593 772.734 215.426 772.734C216.251 772.741 216.928 773.411 216.928 774.238Z" fill="white"/>
<path d="M216.84 915.429C216.84 916.208 216.211 916.844 215.426 916.844C214.647 916.844 214.011 916.214 214.011 915.429C214.011 914.643 214.64 914.014 215.426 914.014C216.211 914.014 216.84 914.643 216.84 915.429Z" fill="white"/>
<path d="M216.759 1056.61C216.759 1057.34 216.163 1057.94 215.432 1057.94C214.701 1057.94 214.106 1057.34 214.106 1056.61C214.106 1055.88 214.701 1055.29 215.432 1055.29C216.17 1055.29 216.759 1055.88 216.759 1056.61Z" fill="white"/>
<path d="M75.6991 774.253C75.6991 775.058 75.0492 775.708 74.2437 775.708C73.4381 775.708 72.7883 775.058 72.7883 774.253C72.7883 773.447 73.4381 772.797 74.2437 772.797C75.0492 772.797 75.6991 773.447 75.6991 774.253Z" fill="white"/>
<path d="M75.584 915.442C75.584 916.174 74.9951 916.763 74.264 916.763C73.5329 916.763 72.9372 916.167 72.9372 915.442C72.9372 914.711 73.5329 914.115 74.264 914.115C74.9883 914.115 75.584 914.711 75.584 915.442Z" fill="white"/>
<path d="M75.4622 1056.64C75.4622 1057.29 74.9274 1057.83 74.2707 1057.83C73.6141 1057.83 73.0793 1057.29 73.0793 1056.64C73.0793 1055.98 73.6141 1055.44 74.2707 1055.44C74.9274 1055.44 75.4622 1055.98 75.4622 1056.64Z" fill="white"/>
</g>
<mask id="mask2_15037_494357" style="mask-type:alpha" maskUnits="userSpaceOnUse" x="585" y="105" width="501" height="501">
<circle cx="835.5" cy="355.5" r="250.5" fill="url(#paint2_radial_15037_494357)"/>
</mask>
<g mask="url(#mask2_15037_494357)">
<path d="M595.736 2.11328H595.384V708.705H595.736V2.11328Z" fill="#858585"/>
<path d="M623.964 2.11328H623.612V708.705H623.964V2.11328Z" fill="#858585"/>
<path d="M652.192 2.11328H651.84V708.705H652.192V2.11328Z" fill="#858585"/>
<path d="M680.421 2.11328H680.069V708.705H680.421V2.11328Z" fill="#858585"/>
<path d="M708.649 2.11328H708.297V708.705H708.649V2.11328Z" fill="#858585"/>
<path d="M736.877 2.11328H736.525V708.705H736.877V2.11328Z" fill="#858585"/>
<path d="M765.105 2.11328H764.753V708.705H765.105V2.11328Z" fill="#858585"/>
<path d="M793.334 2.11328H792.982V708.705H793.334V2.11328Z" fill="#858585"/>
<path d="M821.562 2.11328H821.21V708.705H821.562V2.11328Z" fill="#858585"/>
<path d="M849.79 2.11328H849.438V708.705H849.79V2.11328Z" fill="#858585"/>
<path d="M878.018 2.11328H877.666V708.705H878.018V2.11328Z" fill="#858585"/>
<path d="M906.247 2.11328H905.895V708.705H906.247V2.11328Z" fill="#858585"/>
<path d="M934.475 2.11328H934.123V708.705H934.475V2.11328Z" fill="#858585"/>
<path d="M962.703 2.11328H962.351V708.705H962.703V2.11328Z" fill="#858585"/>
<path d="M990.931 2.11328H990.579V708.705H990.931V2.11328Z" fill="#858585"/>
<path d="M1019.16 2.11328H1018.81V708.705H1019.16V2.11328Z" fill="#858585"/>
<path d="M1047.39 2.11328H1047.04V708.705H1047.39V2.11328Z" fill="#858585"/>
<path d="M1075.62 2.11328H1075.26V708.705H1075.62V2.11328Z" fill="#858585"/>
<path d="M1188.71 115.23H482.295V115.583H1188.71V115.23Z" fill="#858585"/>
<path d="M1188.71 143.467H482.295V143.819H1188.71V143.467Z" fill="#858585"/>
<path d="M1188.71 171.703H482.295V172.055H1188.71V171.703Z" fill="#858585"/>
<path d="M1188.71 199.938H482.295V200.29H1188.71V199.938Z" fill="#858585"/>
<path d="M1188.71 228.174H482.295V228.526H1188.71V228.174Z" fill="#858585"/>
<path d="M1188.71 256.408H482.295V256.76H1188.71V256.408Z" fill="#858585"/>
<path d="M1188.71 284.645H482.295V284.997H1188.71V284.645Z" fill="#858585"/>
<path d="M1188.71 312.881H482.295V313.233H1188.71V312.881Z" fill="#858585"/>
<path d="M1188.71 341.115H482.295V341.467H1188.71V341.115Z" fill="#858585"/>
<path d="M1188.71 369.352H482.295V369.704H1188.71V369.352Z" fill="#858585"/>
<path d="M1188.71 397.586H482.295V397.938H1188.71V397.586Z" fill="#858585"/>
<path d="M1188.71 425.822H482.295V426.174H1188.71V425.822Z" fill="#858585"/>
<path d="M1188.71 454.057H482.295V454.409H1188.71V454.057Z" fill="#858585"/>
<path d="M1188.71 482.293H482.295V482.645H1188.71V482.293Z" fill="#858585"/>
<path d="M1188.71 510.529H482.295V510.881H1188.71V510.529Z" fill="#858585"/>
<path d="M1188.71 538.764H482.295V539.116H1188.71V538.764Z" fill="#858585"/>
<path d="M1188.71 567H482.295V567.352H1188.71V567Z" fill="#858585"/>
<path d="M1188.71 595.234H482.295V595.586H1188.71V595.234Z" fill="#858585"/>
<path d="M624.14 2.11328H623.436V708.705H624.14V2.11328Z" fill="white"/>
<path d="M765.281 2.11328H764.577V708.705H765.281V2.11328Z" fill="white"/>
<path d="M906.423 2.11328H905.719V708.705H906.423V2.11328Z" fill="white"/>
<path d="M1047.56 2.11328H1046.86V708.705H1047.56V2.11328Z" fill="white"/>
<path d="M1188.71 143.291H482.295V143.995H1188.71V143.291Z" fill="white"/>
<path d="M1188.71 284.469H482.295V285.173H1188.71V284.469Z" fill="white"/>
<path d="M1188.71 425.646H482.295V426.351H1188.71V425.646Z" fill="white"/>
<path d="M1188.71 566.824H482.295V567.528H1188.71V566.824Z" fill="white"/>
<path d="M1049.75 143.784C1049.75 145.247 1048.57 146.432 1047.1 146.432C1045.64 146.432 1044.46 145.247 1044.46 143.784C1044.46 142.322 1045.64 141.137 1047.1 141.137C1048.57 141.137 1049.75 142.322 1049.75 143.784Z" fill="white"/>
<path d="M1049.78 284.929C1049.78 286.391 1048.59 287.576 1047.13 287.576C1045.67 287.576 1044.48 286.391 1044.48 284.929C1044.48 283.466 1045.67 282.281 1047.13 282.281C1048.59 282.281 1049.78 283.466 1049.78 284.929Z" fill="white"/>
<path d="M1049.8 426.071C1049.8 427.534 1048.62 428.719 1047.16 428.719C1045.7 428.719 1044.51 427.534 1044.51 426.071C1044.51 424.609 1045.7 423.424 1047.16 423.424C1048.62 423.424 1049.8 424.609 1049.8 426.071Z" fill="white"/>
<path d="M1049.83 567.208C1049.83 568.671 1048.65 569.856 1047.18 569.856C1045.72 569.856 1044.54 568.671 1044.54 567.208C1044.54 565.745 1045.72 564.561 1047.18 564.561C1048.65 564.561 1049.83 565.745 1049.83 567.208Z" fill="white"/>
<path d="M908.636 143.784C908.636 145.247 907.452 146.432 905.989 146.432C904.527 146.432 903.343 145.247 903.343 143.784C903.343 142.322 904.527 141.137 905.989 141.137C907.452 141.137 908.636 142.322 908.636 143.784Z" fill="white"/>
<path d="M908.657 284.929C908.657 286.391 907.472 287.576 906.01 287.576C904.548 287.576 903.363 286.391 903.363 284.929C903.363 283.466 904.548 282.281 906.01 282.281C907.472 282.281 908.657 283.466 908.657 284.929Z" fill="white"/>
<path d="M908.677 426.071C908.677 427.534 907.492 428.719 906.03 428.719C904.568 428.719 903.383 427.534 903.383 426.071C903.383 424.609 904.568 423.424 906.03 423.424C907.492 423.424 908.677 424.609 908.677 426.071Z" fill="white"/>
<path d="M908.697 567.208C908.697 568.671 907.513 569.856 906.05 569.856C904.588 569.856 903.403 568.671 903.403 567.208C903.403 565.745 904.588 564.561 906.05 564.561C907.513 564.561 908.697 565.745 908.697 567.208Z" fill="white"/>
<path d="M764.875 146.432C766.337 146.432 767.522 145.246 767.522 143.784C767.522 142.322 766.337 141.137 764.875 141.137C763.413 141.137 762.228 142.322 762.228 143.784C762.228 145.246 763.413 146.432 764.875 146.432Z" fill="white"/>
<path d="M767.536 284.929C767.536 286.391 766.351 287.576 764.889 287.576C763.427 287.576 762.242 286.391 762.242 284.929C762.242 283.466 763.427 282.281 764.889 282.281C766.351 282.281 767.536 283.466 767.536 284.929Z" fill="white"/>
<path d="M767.549 426.071C767.549 427.534 766.364 428.719 764.902 428.719C763.44 428.719 762.255 427.534 762.255 426.071C762.255 424.609 763.44 423.424 764.902 423.424C766.364 423.424 767.549 424.609 767.549 426.071Z" fill="white"/>
<path d="M767.563 567.208C767.563 568.671 766.378 569.856 764.916 569.856C763.454 569.856 762.269 568.671 762.269 567.208C762.269 565.745 763.454 564.561 764.916 564.561C766.378 564.561 767.563 565.745 767.563 567.208Z" fill="white"/>
<path d="M626.408 143.784C626.408 145.247 625.223 146.432 623.761 146.432C622.299 146.432 621.114 145.247 621.114 143.784C621.114 142.322 622.299 141.137 623.761 141.137C625.223 141.137 626.408 142.322 626.408 143.784Z" fill="white"/>
<path d="M626.415 284.929C626.415 286.391 625.23 287.576 623.768 287.576C622.306 287.576 621.121 286.391 621.121 284.929C621.121 283.466 622.306 282.281 623.768 282.281C625.23 282.281 626.415 283.466 626.415 284.929Z" fill="white"/>
<path d="M626.421 426.071C626.421 427.534 625.237 428.719 623.775 428.719C622.312 428.719 621.128 427.534 621.128 426.071C621.128 424.609 622.312 423.424 623.775 423.424C625.237 423.424 626.421 424.609 626.421 426.071Z" fill="white"/>
<path d="M626.428 567.208C626.428 568.671 625.244 569.856 623.781 569.856C622.319 569.856 621.134 568.671 621.134 567.208C621.134 565.745 622.319 564.561 623.781 564.561C625.244 564.561 626.428 565.745 626.428 567.208Z" fill="white"/>
<path d="M978.151 214.231C978.151 215.084 977.46 215.775 976.607 215.775C975.754 215.775 975.064 215.084 975.064 214.231C975.064 213.378 975.754 212.688 976.607 212.688C977.46 212.688 978.151 213.378 978.151 214.231Z" fill="white"/>
<path d="M978.103 355.415C978.103 356.241 977.433 356.918 976.601 356.918C975.775 356.918 975.098 356.248 975.098 355.415C975.098 354.582 975.768 353.912 976.601 353.912C977.433 353.912 978.103 354.582 978.103 355.415Z" fill="white"/>
<path d="M978.056 496.595C978.056 497.4 977.406 498.05 976.601 498.05C975.795 498.05 975.145 497.4 975.145 496.595C975.145 495.789 975.795 495.139 976.601 495.139C977.399 495.132 978.056 495.789 978.056 496.595Z" fill="white"/>
<path d="M836.928 214.238C836.928 215.064 836.258 215.741 835.426 215.741C834.6 215.741 833.923 215.07 833.923 214.238C833.923 213.411 834.593 212.734 835.426 212.734C836.251 212.741 836.928 213.411 836.928 214.238Z" fill="white"/>
<path d="M836.84 355.429C836.84 356.208 836.211 356.844 835.426 356.844C834.647 356.844 834.011 356.214 834.011 355.429C834.011 354.643 834.64 354.014 835.426 354.014C836.211 354.014 836.84 354.643 836.84 355.429Z" fill="white"/>
<path d="M836.759 496.613C836.759 497.345 836.163 497.941 835.432 497.941C834.701 497.941 834.106 497.345 834.106 496.613C834.106 495.882 834.701 495.293 835.432 495.293C836.17 495.286 836.759 495.882 836.759 496.613Z" fill="white"/>
<path d="M695.699 214.253C695.699 215.058 695.049 215.708 694.244 215.708C693.438 215.708 692.788 215.058 692.788 214.253C692.788 213.447 693.438 212.797 694.244 212.797C695.049 212.797 695.699 213.447 695.699 214.253Z" fill="white"/>
<path d="M695.584 355.442C695.584 356.174 694.995 356.763 694.264 356.763C693.533 356.763 692.937 356.167 692.937 355.442C692.937 354.711 693.533 354.115 694.264 354.115C694.988 354.115 695.584 354.711 695.584 355.442Z" fill="white"/>
<path d="M695.462 496.635C695.462 497.292 694.927 497.827 694.271 497.827C693.614 497.827 693.079 497.292 693.079 496.635C693.079 495.978 693.614 495.443 694.271 495.443C694.927 495.443 695.462 495.978 695.462 496.635Z" fill="white"/>
</g>
<mask id="mask3_15037_494357" style="mask-type:alpha" maskUnits="userSpaceOnUse" x="585" y="665" width="501" height="501">
<circle cx="835.5" cy="915.5" r="250.5" fill="url(#paint3_radial_15037_494357)"/>
</mask>
<g mask="url(#mask3_15037_494357)">
<path d="M595.736 562.113H595.384V1268.71H595.736V562.113Z" fill="#858585"/>
<path d="M623.964 562.113H623.612V1268.71H623.964V562.113Z" fill="#858585"/>
<path d="M652.192 562.113H651.84V1268.71H652.192V562.113Z" fill="#858585"/>
<path d="M680.421 562.113H680.069V1268.71H680.421V562.113Z" fill="#858585"/>
<path d="M708.649 562.113H708.297V1268.71H708.649V562.113Z" fill="#858585"/>
<path d="M736.877 562.113H736.525V1268.71H736.877V562.113Z" fill="#858585"/>
<path d="M765.105 562.113H764.753V1268.71H765.105V562.113Z" fill="#858585"/>
<path d="M793.334 562.113H792.982V1268.71H793.334V562.113Z" fill="#858585"/>
<path d="M821.562 562.113H821.21V1268.71H821.562V562.113Z" fill="#858585"/>
<path d="M849.79 562.113H849.438V1268.71H849.79V562.113Z" fill="#858585"/>
<path d="M878.018 562.113H877.666V1268.71H878.018V562.113Z" fill="#858585"/>
<path d="M906.247 562.113H905.895V1268.71H906.247V562.113Z" fill="#858585"/>
<path d="M934.475 562.113H934.123V1268.71H934.475V562.113Z" fill="#858585"/>
<path d="M962.703 562.113H962.351V1268.71H962.703V562.113Z" fill="#858585"/>
<path d="M990.931 562.113H990.579V1268.71H990.931V562.113Z" fill="#858585"/>
<path d="M1019.16 562.113H1018.81V1268.71H1019.16V562.113Z" fill="#858585"/>
<path d="M1047.39 562.113H1047.04V1268.71H1047.39V562.113Z" fill="#858585"/>
<path d="M1075.62 562.113H1075.26V1268.71H1075.62V562.113Z" fill="#858585"/>
<path d="M1188.71 675.23H482.295V675.583H1188.71V675.23Z" fill="#858585"/>
<path d="M1188.71 703.467H482.295V703.819H1188.71V703.467Z" fill="#858585"/>
<path d="M1188.71 731.703H482.295V732.055H1188.71V731.703Z" fill="#858585"/>
<path d="M1188.71 759.938H482.295V760.29H1188.71V759.938Z" fill="#858585"/>
<path d="M1188.71 788.174H482.295V788.526H1188.71V788.174Z" fill="#858585"/>
<path d="M1188.71 816.408H482.295V816.76H1188.71V816.408Z" fill="#858585"/>
<path d="M1188.71 844.645H482.295V844.997H1188.71V844.645Z" fill="#858585"/>
<path d="M1188.71 872.881H482.295V873.233H1188.71V872.881Z" fill="#858585"/>
<path d="M1188.71 901.115H482.295V901.467H1188.71V901.115Z" fill="#858585"/>
<path d="M1188.71 929.352H482.295V929.704H1188.71V929.352Z" fill="#858585"/>
<path d="M1188.71 957.586H482.295V957.938H1188.71V957.586Z" fill="#858585"/>
<path d="M1188.71 985.822H482.295V986.174H1188.71V985.822Z" fill="#858585"/>
<path d="M1188.71 1014.06H482.295V1014.41H1188.71V1014.06Z" fill="#858585"/>
<path d="M1188.71 1042.29H482.295V1042.65H1188.71V1042.29Z" fill="#858585"/>
<path d="M624.14 562.113H623.436V1268.71H624.14V562.113Z" fill="white"/>
<path d="M765.281 562.113H764.577V1268.71H765.281V562.113Z" fill="white"/>
<path d="M906.423 562.113H905.719V1268.71H906.423V562.113Z" fill="white"/>
<path d="M1047.56 562.113H1046.86V1268.71H1047.56V562.113Z" fill="white"/>
<path d="M1188.71 703.291H482.295V703.995H1188.71V703.291Z" fill="white"/>
<path d="M1188.71 844.469H482.295V845.173H1188.71V844.469Z" fill="white"/>
<path d="M1188.71 985.646H482.295V986.351H1188.71V985.646Z" fill="white"/>
<path d="M1049.75 703.784C1049.75 705.247 1048.57 706.432 1047.1 706.432C1045.64 706.432 1044.46 705.247 1044.46 703.784C1044.46 702.322 1045.64 701.137 1047.1 701.137C1048.57 701.137 1049.75 702.322 1049.75 703.784Z" fill="white"/>
<path d="M1049.78 844.929C1049.78 846.391 1048.59 847.576 1047.13 847.576C1045.67 847.576 1044.48 846.391 1044.48 844.929C1044.48 843.466 1045.67 842.281 1047.13 842.281C1048.59 842.281 1049.78 843.466 1049.78 844.929Z" fill="white"/>
<path d="M1049.8 986.071C1049.8 987.534 1048.62 988.719 1047.16 988.719C1045.7 988.719 1044.51 987.534 1044.51 986.071C1044.51 984.609 1045.7 983.424 1047.16 983.424C1048.62 983.424 1049.8 984.609 1049.8 986.071Z" fill="white"/>
<path d="M908.636 703.784C908.636 705.247 907.452 706.432 905.989 706.432C904.527 706.432 903.343 705.247 903.343 703.784C903.343 702.322 904.527 701.137 905.989 701.137C907.452 701.137 908.636 702.322 908.636 703.784Z" fill="white"/>
<path d="M908.657 844.929C908.657 846.391 907.472 847.576 906.01 847.576C904.548 847.576 903.363 846.391 903.363 844.929C903.363 843.466 904.548 842.281 906.01 842.281C907.472 842.281 908.657 843.466 908.657 844.929Z" fill="white"/>
<path d="M908.677 986.071C908.677 987.534 907.492 988.719 906.03 988.719C904.568 988.719 903.383 987.534 903.383 986.071C903.383 984.609 904.568 983.424 906.03 983.424C907.492 983.424 908.677 984.609 908.677 986.071Z" fill="white"/>
<path d="M764.875 706.432C766.337 706.432 767.522 705.246 767.522 703.784C767.522 702.322 766.337 701.137 764.875 701.137C763.413 701.137 762.228 702.322 762.228 703.784C762.228 705.246 763.413 706.432 764.875 706.432Z" fill="white"/>
<path d="M767.536 844.929C767.536 846.391 766.351 847.576 764.889 847.576C763.427 847.576 762.242 846.391 762.242 844.929C762.242 843.466 763.427 842.281 764.889 842.281C766.351 842.281 767.536 843.466 767.536 844.929Z" fill="white"/>
<path d="M767.549 986.071C767.549 987.534 766.364 988.719 764.902 988.719C763.44 988.719 762.255 987.534 762.255 986.071C762.255 984.609 763.44 983.424 764.902 983.424C766.364 983.424 767.549 984.609 767.549 986.071Z" fill="white"/>
<path d="M626.408 703.784C626.408 705.247 625.223 706.432 623.761 706.432C622.299 706.432 621.114 705.247 621.114 703.784C621.114 702.322 622.299 701.137 623.761 701.137C625.223 701.137 626.408 702.322 626.408 703.784Z" fill="white"/>
<path d="M626.415 844.929C626.415 846.391 625.23 847.576 623.768 847.576C622.306 847.576 621.121 846.391 621.121 844.929C621.121 843.466 622.306 842.281 623.768 842.281C625.23 842.281 626.415 843.466 626.415 844.929Z" fill="white"/>
<path d="M626.421 986.071C626.421 987.534 625.237 988.719 623.775 988.719C622.312 988.719 621.128 987.534 621.128 986.071C621.128 984.609 622.312 983.424 623.775 983.424C625.237 983.424 626.421 984.609 626.421 986.071Z" fill="white"/>
<path d="M978.151 774.231C978.151 775.084 977.46 775.775 976.607 775.775C975.754 775.775 975.064 775.084 975.064 774.231C975.064 773.378 975.754 772.688 976.607 772.688C977.46 772.688 978.151 773.378 978.151 774.231Z" fill="white"/>
<path d="M978.103 915.415C978.103 916.241 977.433 916.918 976.601 916.918C975.775 916.918 975.098 916.248 975.098 915.415C975.098 914.582 975.768 913.912 976.601 913.912C977.433 913.912 978.103 914.582 978.103 915.415Z" fill="white"/>
<path d="M978.056 1056.59C978.056 1057.4 977.406 1058.05 976.601 1058.05C975.795 1058.05 975.145 1057.4 975.145 1056.59C975.145 1055.79 975.795 1055.14 976.601 1055.14C977.399 1055.13 978.056 1055.79 978.056 1056.59Z" fill="white"/>
<path d="M836.928 774.238C836.928 775.064 836.258 775.741 835.426 775.741C834.6 775.741 833.923 775.07 833.923 774.238C833.923 773.411 834.593 772.734 835.426 772.734C836.251 772.741 836.928 773.411 836.928 774.238Z" fill="white"/>
<path d="M836.84 915.429C836.84 916.208 836.211 916.844 835.426 916.844C834.647 916.844 834.011 916.214 834.011 915.429C834.011 914.643 834.64 914.014 835.426 914.014C836.211 914.014 836.84 914.643 836.84 915.429Z" fill="white"/>
<path d="M836.759 1056.61C836.759 1057.34 836.163 1057.94 835.432 1057.94C834.701 1057.94 834.106 1057.34 834.106 1056.61C834.106 1055.88 834.701 1055.29 835.432 1055.29C836.17 1055.29 836.759 1055.88 836.759 1056.61Z" fill="white"/>
<path d="M695.699 774.253C695.699 775.058 695.049 775.708 694.244 775.708C693.438 775.708 692.788 775.058 692.788 774.253C692.788 773.447 693.438 772.797 694.244 772.797C695.049 772.797 695.699 773.447 695.699 774.253Z" fill="white"/>
<path d="M695.584 915.442C695.584 916.174 694.995 916.763 694.264 916.763C693.533 916.763 692.937 916.167 692.937 915.442C692.937 914.711 693.533 914.115 694.264 914.115C694.988 914.115 695.584 914.711 695.584 915.442Z" fill="white"/>
<path d="M695.462 1056.64C695.462 1057.29 694.927 1057.83 694.271 1057.83C693.614 1057.83 693.079 1057.29 693.079 1056.64C693.079 1055.98 693.614 1055.44 694.271 1055.44C694.927 1055.44 695.462 1055.98 695.462 1056.64Z" fill="white"/>
</g>
<mask id="mask4_15037_494357" style="mask-type:alpha" maskUnits="userSpaceOnUse" x="1185" y="105" width="501" height="501">
<circle cx="1435.5" cy="355.5" r="250.5" fill="url(#paint4_radial_15037_494357)"/>
</mask>
<g mask="url(#mask4_15037_494357)">
<path d="M1195.74 2.11328H1195.38V708.705H1195.74V2.11328Z" fill="#858585"/>
<path d="M1223.96 2.11328H1223.61V708.705H1223.96V2.11328Z" fill="#858585"/>
<path d="M1252.19 2.11328H1251.84V708.705H1252.19V2.11328Z" fill="#858585"/>
<path d="M1280.42 2.11328H1280.07V708.705H1280.42V2.11328Z" fill="#858585"/>
<path d="M1308.65 2.11328H1308.3V708.705H1308.65V2.11328Z" fill="#858585"/>
<path d="M1336.88 2.11328H1336.53V708.705H1336.88V2.11328Z" fill="#858585"/>
<path d="M1365.11 2.11328H1364.75V708.705H1365.11V2.11328Z" fill="#858585"/>
<path d="M1393.33 2.11328H1392.98V708.705H1393.33V2.11328Z" fill="#858585"/>
<path d="M1421.56 2.11328H1421.21V708.705H1421.56V2.11328Z" fill="#858585"/>
<path d="M1788.71 115.23H1082.29V115.583H1788.71V115.23Z" fill="#858585"/>
<path d="M1788.71 143.467H1082.29V143.819H1788.71V143.467Z" fill="#858585"/>
<path d="M1788.71 171.703H1082.29V172.055H1788.71V171.703Z" fill="#858585"/>
<path d="M1788.71 199.938H1082.29V200.29H1788.71V199.938Z" fill="#858585"/>
<path d="M1788.71 228.174H1082.29V228.526H1788.71V228.174Z" fill="#858585"/>
<path d="M1788.71 256.408H1082.29V256.76H1788.71V256.408Z" fill="#858585"/>
<path d="M1788.71 284.645H1082.29V284.997H1788.71V284.645Z" fill="#858585"/>
<path d="M1788.71 312.881H1082.29V313.233H1788.71V312.881Z" fill="#858585"/>
<path d="M1788.71 341.115H1082.29V341.467H1788.71V341.115Z" fill="#858585"/>
<path d="M1788.71 369.352H1082.29V369.704H1788.71V369.352Z" fill="#858585"/>
<path d="M1788.71 397.586H1082.29V397.938H1788.71V397.586Z" fill="#858585"/>
<path d="M1788.71 425.822H1082.29V426.174H1788.71V425.822Z" fill="#858585"/>
<path d="M1788.71 454.057H1082.29V454.409H1788.71V454.057Z" fill="#858585"/>
<path d="M1788.71 482.293H1082.29V482.645H1788.71V482.293Z" fill="#858585"/>
<path d="M1788.71 510.529H1082.29V510.881H1788.71V510.529Z" fill="#858585"/>
<path d="M1788.71 538.764H1082.29V539.116H1788.71V538.764Z" fill="#858585"/>
<path d="M1788.71 567H1082.29V567.352H1788.71V567Z" fill="#858585"/>
<path d="M1788.71 595.234H1082.29V595.586H1788.71V595.234Z" fill="#858585"/>
<path d="M1224.14 2.11328H1223.44V708.705H1224.14V2.11328Z" fill="white"/>
<path d="M1365.28 2.11328H1364.58V708.705H1365.28V2.11328Z" fill="white"/>
<path d="M1788.71 143.291H1082.29V143.995H1788.71V143.291Z" fill="white"/>
<path d="M1788.71 284.469H1082.29V285.173H1788.71V284.469Z" fill="white"/>
<path d="M1788.71 425.646H1082.29V426.351H1788.71V425.646Z" fill="white"/>
<path d="M1788.71 566.824H1082.29V567.528H1788.71V566.824Z" fill="white"/>
<path d="M1364.88 146.432C1366.34 146.432 1367.52 145.246 1367.52 143.784C1367.52 142.322 1366.34 141.137 1364.88 141.137C1363.41 141.137 1362.23 142.322 1362.23 143.784C1362.23 145.246 1363.41 146.432 1364.88 146.432Z" fill="white"/>
<path d="M1367.54 284.929C1367.54 286.391 1366.35 287.576 1364.89 287.576C1363.43 287.576 1362.24 286.391 1362.24 284.929C1362.24 283.466 1363.43 282.281 1364.89 282.281C1366.35 282.281 1367.54 283.466 1367.54 284.929Z" fill="white"/>
<path d="M1367.55 426.071C1367.55 427.534 1366.36 428.719 1364.9 428.719C1363.44 428.719 1362.26 427.534 1362.26 426.071C1362.26 424.609 1363.44 423.424 1364.9 423.424C1366.36 423.424 1367.55 424.609 1367.55 426.071Z" fill="white"/>
<path d="M1367.56 567.208C1367.56 568.671 1366.38 569.856 1364.92 569.856C1363.45 569.856 1362.27 568.671 1362.27 567.208C1362.27 565.745 1363.45 564.561 1364.92 564.561C1366.38 564.561 1367.56 565.745 1367.56 567.208Z" fill="white"/>
<path d="M1226.41 143.784C1226.41 145.247 1225.22 146.432 1223.76 146.432C1222.3 146.432 1221.11 145.247 1221.11 143.784C1221.11 142.322 1222.3 141.137 1223.76 141.137C1225.22 141.137 1226.41 142.322 1226.41 143.784Z" fill="white"/>
<path d="M1226.41 284.929C1226.41 286.391 1225.23 287.576 1223.77 287.576C1222.31 287.576 1221.12 286.391 1221.12 284.929C1221.12 283.466 1222.31 282.281 1223.77 282.281C1225.23 282.281 1226.41 283.466 1226.41 284.929Z" fill="white"/>
<path d="M1226.42 426.071C1226.42 427.534 1225.24 428.719 1223.77 428.719C1222.31 428.719 1221.13 427.534 1221.13 426.071C1221.13 424.609 1222.31 423.424 1223.77 423.424C1225.24 423.424 1226.42 424.609 1226.42 426.071Z" fill="white"/>
<path d="M1226.43 567.208C1226.43 568.671 1225.24 569.856 1223.78 569.856C1222.32 569.856 1221.13 568.671 1221.13 567.208C1221.13 565.745 1222.32 564.561 1223.78 564.561C1225.24 564.561 1226.43 565.745 1226.43 567.208Z" fill="white"/>
<path d="M1436.93 214.238C1436.93 215.064 1436.26 215.741 1435.43 215.741C1434.6 215.741 1433.92 215.07 1433.92 214.238C1433.92 213.411 1434.59 212.734 1435.43 212.734C1436.25 212.741 1436.93 213.411 1436.93 214.238Z" fill="white"/>
<path d="M1436.84 355.429C1436.84 356.208 1436.21 356.844 1435.43 356.844C1434.65 356.844 1434.01 356.214 1434.01 355.429C1434.01 354.643 1434.64 354.014 1435.43 354.014C1436.21 354.014 1436.84 354.643 1436.84 355.429Z" fill="white"/>
<path d="M1436.76 496.613C1436.76 497.345 1436.16 497.941 1435.43 497.941C1434.7 497.941 1434.11 497.345 1434.11 496.613C1434.11 495.882 1434.7 495.293 1435.43 495.293C1436.17 495.286 1436.76 495.882 1436.76 496.613Z" fill="white"/>
<path d="M1295.7 214.253C1295.7 215.058 1295.05 215.708 1294.24 215.708C1293.44 215.708 1292.79 215.058 1292.79 214.253C1292.79 213.447 1293.44 212.797 1294.24 212.797C1295.05 212.797 1295.7 213.447 1295.7 214.253Z" fill="white"/>
<path d="M1295.58 355.442C1295.58 356.174 1295 356.763 1294.26 356.763C1293.53 356.763 1292.94 356.167 1292.94 355.442C1292.94 354.711 1293.53 354.115 1294.26 354.115C1294.99 354.115 1295.58 354.711 1295.58 355.442Z" fill="white"/>
<path d="M1295.46 496.635C1295.46 497.292 1294.93 497.827 1294.27 497.827C1293.61 497.827 1293.08 497.292 1293.08 496.635C1293.08 495.978 1293.61 495.443 1294.27 495.443C1294.93 495.443 1295.46 495.978 1295.46 496.635Z" fill="white"/>
</g>
<mask id="mask5_15037_494357" style="mask-type:alpha" maskUnits="userSpaceOnUse" x="1185" y="665" width="501" height="501">
<circle cx="1435.5" cy="915.5" r="250.5" fill="url(#paint5_radial_15037_494357)"/>
</mask>
<g mask="url(#mask5_15037_494357)">
<path d="M1195.74 562.113H1195.38V1268.71H1195.74V562.113Z" fill="#858585"/>
<path d="M1223.96 562.113H1223.61V1268.71H1223.96V562.113Z" fill="#858585"/>
<path d="M1252.19 562.113H1251.84V1268.71H1252.19V562.113Z" fill="#858585"/>
<path d="M1280.42 562.113H1280.07V1268.71H1280.42V562.113Z" fill="#858585"/>
<path d="M1308.65 562.113H1308.3V1268.71H1308.65V562.113Z" fill="#858585"/>
<path d="M1336.88 562.113H1336.53V1268.71H1336.88V562.113Z" fill="#858585"/>
<path d="M1365.11 562.113H1364.75V1268.71H1365.11V562.113Z" fill="#858585"/>
<path d="M1393.33 562.113H1392.98V1268.71H1393.33V562.113Z" fill="#858585"/>
<path d="M1421.56 562.113H1421.21V1268.71H1421.56V562.113Z" fill="#858585"/>
<path d="M1788.71 675.23H1082.29V675.583H1788.71V675.23Z" fill="#858585"/>
<path d="M1788.71 703.467H1082.29V703.819H1788.71V703.467Z" fill="#858585"/>
<path d="M1788.71 731.703H1082.29V732.055H1788.71V731.703Z" fill="#858585"/>
<path d="M1788.71 759.938H1082.29V760.29H1788.71V759.938Z" fill="#858585"/>
<path d="M1788.71 788.174H1082.29V788.526H1788.71V788.174Z" fill="#858585"/>
<path d="M1788.71 816.408H1082.29V816.76H1788.71V816.408Z" fill="#858585"/>
<path d="M1788.71 844.645H1082.29V844.997H1788.71V844.645Z" fill="#858585"/>
<path d="M1788.71 872.881H1082.29V873.233H1788.71V872.881Z" fill="#858585"/>
<path d="M1788.71 901.115H1082.29V901.467H1788.71V901.115Z" fill="#858585"/>
<path d="M1788.71 929.352H1082.29V929.704H1788.71V929.352Z" fill="#858585"/>
<path d="M1788.71 957.586H1082.29V957.938H1788.71V957.586Z" fill="#858585"/>
<path d="M1788.71 985.822H1082.29V986.174H1788.71V985.822Z" fill="#858585"/>
<path d="M1788.71 1014.06H1082.29V1014.41H1788.71V1014.06Z" fill="#858585"/>
<path d="M1788.71 1042.29H1082.29V1042.65H1788.71V1042.29Z" fill="#858585"/>
<path d="M1224.14 562.113H1223.44V1268.71H1224.14V562.113Z" fill="white"/>
<path d="M1365.28 562.113H1364.58V1268.71H1365.28V562.113Z" fill="white"/>
<path d="M1788.71 703.291H1082.29V703.995H1788.71V703.291Z" fill="white"/>
<path d="M1788.71 844.469H1082.29V845.173H1788.71V844.469Z" fill="white"/>
<path d="M1788.71 985.646H1082.29V986.351H1788.71V985.646Z" fill="white"/>
<path d="M1364.88 706.432C1366.34 706.432 1367.52 705.246 1367.52 703.784C1367.52 702.322 1366.34 701.137 1364.88 701.137C1363.41 701.137 1362.23 702.322 1362.23 703.784C1362.23 705.246 1363.41 706.432 1364.88 706.432Z" fill="white"/>
<path d="M1367.54 844.929C1367.54 846.391 1366.35 847.576 1364.89 847.576C1363.43 847.576 1362.24 846.391 1362.24 844.929C1362.24 843.466 1363.43 842.281 1364.89 842.281C1366.35 842.281 1367.54 843.466 1367.54 844.929Z" fill="white"/>
<path d="M1367.55 986.071C1367.55 987.534 1366.36 988.719 1364.9 988.719C1363.44 988.719 1362.26 987.534 1362.26 986.071C1362.26 984.609 1363.44 983.424 1364.9 983.424C1366.36 983.424 1367.55 984.609 1367.55 986.071Z" fill="white"/>
<path d="M1226.41 703.784C1226.41 705.247 1225.22 706.432 1223.76 706.432C1222.3 706.432 1221.11 705.247 1221.11 703.784C1221.11 702.322 1222.3 701.137 1223.76 701.137C1225.22 701.137 1226.41 702.322 1226.41 703.784Z" fill="white"/>
<path d="M1226.41 844.929C1226.41 846.391 1225.23 847.576 1223.77 847.576C1222.31 847.576 1221.12 846.391 1221.12 844.929C1221.12 843.466 1222.31 842.281 1223.77 842.281C1225.23 842.281 1226.41 843.466 1226.41 844.929Z" fill="white"/>
<path d="M1226.42 986.071C1226.42 987.534 1225.24 988.719 1223.77 988.719C1222.31 988.719 1221.13 987.534 1221.13 986.071C1221.13 984.609 1222.31 983.424 1223.77 983.424C1225.24 983.424 1226.42 984.609 1226.42 986.071Z" fill="white"/>
<path d="M1436.93 774.238C1436.93 775.064 1436.26 775.741 1435.43 775.741C1434.6 775.741 1433.92 775.07 1433.92 774.238C1433.92 773.411 1434.59 772.734 1435.43 772.734C1436.25 772.741 1436.93 773.411 1436.93 774.238Z" fill="white"/>
<path d="M1436.84 915.429C1436.84 916.208 1436.21 916.844 1435.43 916.844C1434.65 916.844 1434.01 916.214 1434.01 915.429C1434.01 914.643 1434.64 914.014 1435.43 914.014C1436.21 914.014 1436.84 914.643 1436.84 915.429Z" fill="white"/>
<path d="M1436.76 1056.61C1436.76 1057.34 1436.16 1057.94 1435.43 1057.94C1434.7 1057.94 1434.11 1057.34 1434.11 1056.61C1434.11 1055.88 1434.7 1055.29 1435.43 1055.29C1436.17 1055.29 1436.76 1055.88 1436.76 1056.61Z" fill="white"/>
<path d="M1295.7 774.253C1295.7 775.058 1295.05 775.708 1294.24 775.708C1293.44 775.708 1292.79 775.058 1292.79 774.253C1292.79 773.447 1293.44 772.797 1294.24 772.797C1295.05 772.797 1295.7 773.447 1295.7 774.253Z" fill="white"/>
<path d="M1295.58 915.442C1295.58 916.174 1295 916.763 1294.26 916.763C1293.53 916.763 1292.94 916.167 1292.94 915.442C1292.94 914.711 1293.53 914.115 1294.26 914.115C1294.99 914.115 1295.58 914.711 1295.58 915.442Z" fill="white"/>
<path d="M1295.46 1056.64C1295.46 1057.29 1294.93 1057.83 1294.27 1057.83C1293.61 1057.83 1293.08 1057.29 1293.08 1056.64C1293.08 1055.98 1293.61 1055.44 1294.27 1055.44C1294.93 1055.44 1295.46 1055.98 1295.46 1056.64Z" fill="white"/>
</g>
</g>
<defs>
<radialGradient id="paint0_radial_15037_494357" cx="0" cy="0" r="1" gradientUnits="userSpaceOnUse" gradientTransform="translate(215.5 355.5) rotate(90) scale(250.5)">
<stop stop-color="#D9D9D9"/>
<stop offset="1" stop-color="#737373" stop-opacity="0"/>
</radialGradient>
<radialGradient id="paint1_radial_15037_494357" cx="0" cy="0" r="1" gradientUnits="userSpaceOnUse" gradientTransform="translate(215.5 915.5) rotate(90) scale(250.5)">
<stop stop-color="#D9D9D9"/>
<stop offset="1" stop-color="#737373" stop-opacity="0"/>
</radialGradient>
<radialGradient id="paint2_radial_15037_494357" cx="0" cy="0" r="1" gradientUnits="userSpaceOnUse" gradientTransform="translate(835.5 355.5) rotate(90) scale(250.5)">
<stop stop-color="#D9D9D9"/>
<stop offset="1" stop-color="#737373" stop-opacity="0"/>
</radialGradient>
<radialGradient id="paint3_radial_15037_494357" cx="0" cy="0" r="1" gradientUnits="userSpaceOnUse" gradientTransform="translate(835.5 915.5) rotate(90) scale(250.5)">
<stop stop-color="#D9D9D9"/>
<stop offset="1" stop-color="#737373" stop-opacity="0"/>
</radialGradient>
<radialGradient id="paint4_radial_15037_494357" cx="0" cy="0" r="1" gradientUnits="userSpaceOnUse" gradientTransform="translate(1435.5 355.5) rotate(90) scale(250.5)">
<stop stop-color="#D9D9D9"/>
<stop offset="1" stop-color="#737373" stop-opacity="0"/>
</radialGradient>
<radialGradient id="paint5_radial_15037_494357" cx="0" cy="0" r="1" gradientUnits="userSpaceOnUse" gradientTransform="translate(1435.5 915.5) rotate(90) scale(250.5)">
<stop stop-color="#D9D9D9"/>
<stop offset="1" stop-color="#737373" stop-opacity="0"/>
</radialGradient>
<clipPath id="clip0_15037_494357">
<rect width="1437" height="1080" fill="white"/>
</clipPath>
</defs>
</svg>
