<svg width="178" height="132" viewBox="0 0 178 132" fill="none" xmlns="http://www.w3.org/2000/svg">
<mask id="mask0_17271_16694" style="mask-type:alpha" maskUnits="userSpaceOnUse" x="-7" y="2" width="128" height="128">
<circle cx="57.1999" cy="65.999" r="63.25" fill="url(#paint0_radial_17271_16694)"/>
</mask>
<g mask="url(#mask0_17271_16694)">
<circle cx="57.1999" cy="65.9992" r="56.2768" fill="url(#paint1_radial_17271_16694)" fill-opacity="0.15" stroke="url(#paint2_linear_17271_16694)" stroke-width="0.589286"/>
</g>
<g clip-path="url(#clip0_17271_16694)">
<mask id="mask1_17271_16694" style="mask-type:alpha" maskUnits="userSpaceOnUse" x="-16" y="-7" width="146" height="146">
<circle cx="57.1999" cy="65.9986" r="72.2857" fill="url(#paint3_radial_17271_16694)"/>
</mask>
<g mask="url(#mask1_17271_16694)">
<g opacity="0.1">
<circle cx="5.93415" cy="6.87641" r="0.59125" fill="#F8F8F8"/>
<circle cx="13.9409" cy="7.02602" r="0.544579" fill="#F8F8F8"/>
<circle cx="29.5386" cy="6.90935" r="0.4279" fill="#F8F8F8"/>
<circle cx="37.522" cy="7.03563" r="0.357893" fill="#F8F8F8"/>
<circle cx="45.3094" cy="6.96562" r="0.287886" fill="#F8F8F8"/>
<circle cx="53.1041" cy="6.90339" r="0.225657" fill="#F8F8F8"/>
<circle cx="60.9323" cy="6.87416" r="0.196429" fill="#F8F8F8"/>
<circle cx="68.7891" cy="6.87416" r="0.196429" fill="#F8F8F8"/>
<circle cx="76.6463" cy="6.87416" r="0.196429" fill="#F8F8F8"/>
<circle cx="84.5034" cy="6.87416" r="0.196429" fill="#F8F8F8"/>
<circle cx="92.3606" cy="6.87416" r="0.196429" fill="#F8F8F8"/>
<circle cx="100.218" cy="6.87416" r="0.196429" fill="#F8F8F8"/>
<circle cx="108.075" cy="6.87416" r="0.196429" fill="#F8F8F8"/>
<circle cx="115.932" cy="6.87416" r="0.196429" fill="#F8F8F8"/>
<circle opacity="0.4" cx="6.1071" cy="14.9068" r="0.567914" fill="#F8F8F8"/>
<circle opacity="0.4" cx="21.7047" cy="14.7901" r="0.451236" fill="#F8F8F8"/>
<circle cx="29.6963" cy="14.9242" r="0.389007" fill="#F8F8F8"/>
<circle cx="37.4831" cy="14.8542" r="0.319" fill="#F8F8F8"/>
<circle cx="45.2705" cy="14.7841" r="0.248993" fill="#F8F8F8"/>
<circle cx="53.0748" cy="14.7316" r="0.196429" fill="#F8F8F8"/>
<circle cx="60.9323" cy="14.7316" r="0.196429" fill="#F8F8F8"/>
<circle cx="68.7891" cy="14.7316" r="0.196429" fill="#F8F8F8"/>
<circle cx="76.6463" cy="14.7316" r="0.196429" fill="#F8F8F8"/>
<circle cx="84.5034" cy="14.7316" r="0.196429" fill="#F8F8F8"/>
<circle cx="92.3606" cy="14.7316" r="0.196429" fill="#F8F8F8"/>
<circle cx="100.218" cy="14.7316" r="0.196429" fill="#F8F8F8"/>
<circle cx="108.075" cy="14.7316" r="0.196429" fill="#F8F8F8"/>
<circle cx="115.932" cy="14.7316" r="0.196429" fill="#F8F8F8"/>
<circle opacity="0.4" cx="6.06821" cy="22.7253" r="0.529021" fill="#F8F8F8"/>
<circle opacity="0.4" cx="21.658" cy="22.6009" r="0.404564" fill="#F8F8F8"/>
<circle cx="29.6574" cy="22.7427" r="0.350114" fill="#F8F8F8"/>
<circle cx="37.452" cy="22.6805" r="0.287886" fill="#F8F8F8"/>
<circle cx="45.2394" cy="22.6105" r="0.217879" fill="#F8F8F8"/>
<circle cx="53.0748" cy="22.589" r="0.196429" fill="#F8F8F8"/>
<circle cx="60.9323" cy="22.589" r="0.196429" fill="#F8F8F8"/>
<circle cx="68.7891" cy="22.589" r="0.196429" fill="#F8F8F8"/>
<circle cx="76.6463" cy="22.589" r="0.196429" fill="#F8F8F8"/>
<circle cx="84.5034" cy="22.589" r="0.196429" fill="#F8F8F8"/>
<circle cx="92.3606" cy="22.589" r="0.196429" fill="#F8F8F8"/>
<circle cx="108.075" cy="22.589" r="0.196429" fill="#F8F8F8"/>
<circle cx="115.932" cy="22.589" r="0.196429" fill="#F8F8F8"/>
<circle opacity="0.4" cx="6.02931" cy="30.5429" r="0.490129" fill="#F8F8F8"/>
<circle opacity="0.4" cx="13.832" cy="30.4884" r="0.435679" fill="#F8F8F8"/>
<circle opacity="0.4" cx="21.8309" cy="30.6303" r="0.381229" fill="#F8F8F8"/>
<circle cx="29.634" cy="30.5758" r="0.326779" fill="#F8F8F8"/>
<circle cx="37.4286" cy="30.5136" r="0.26455" fill="#F8F8F8"/>
<circle cx="45.2394" cy="30.4669" r="0.217879" fill="#F8F8F8"/>
<circle cx="53.0748" cy="30.4455" r="0.196429" fill="#F8F8F8"/>
<circle cx="60.9323" cy="30.4455" r="0.196429" fill="#F8F8F8"/>
<circle cx="68.7891" cy="30.4455" r="0.196429" fill="#F8F8F8"/>
<circle cx="76.6463" cy="30.4455" r="0.196429" fill="#F8F8F8"/>
<circle cx="84.5034" cy="30.4455" r="0.196429" fill="#F8F8F8"/>
<circle cx="92.3606" cy="30.4455" r="0.196429" fill="#F8F8F8"/>
<circle cx="100.218" cy="30.4455" r="0.196429" fill="#F8F8F8"/>
<circle cx="108.075" cy="30.4455" r="0.196429" fill="#F8F8F8"/>
<circle cx="115.932" cy="30.4455" r="0.196429" fill="#F8F8F8"/>
<circle cx="5.9982" cy="38.3692" r="0.459014" fill="#F8F8F8"/>
<circle cx="13.8086" cy="38.3225" r="0.412343" fill="#F8F8F8"/>
<circle cx="21.8076" cy="38.4643" r="0.357893" fill="#F8F8F8"/>
<circle cx="29.6263" cy="38.4254" r="0.319" fill="#F8F8F8"/>
<circle cx="37.4286" cy="38.371" r="0.26455" fill="#F8F8F8"/>
<circle cx="45.2472" cy="38.3321" r="0.225657" fill="#F8F8F8"/>
<circle cx="53.0807" cy="38.3088" r="0.202321" fill="#F8F8F8"/>
<circle cx="60.9323" cy="38.3029" r="0.196429" fill="#F8F8F8"/>
<circle cx="68.7891" cy="38.3029" r="0.196429" fill="#F8F8F8"/>
<circle cx="76.6463" cy="38.3029" r="0.196429" fill="#F8F8F8"/>
<circle cx="84.5034" cy="38.3029" r="0.196429" fill="#F8F8F8"/>
<circle cx="92.3606" cy="38.3029" r="0.196429" fill="#F8F8F8"/>
<circle cx="100.218" cy="38.3029" r="0.196429" fill="#F8F8F8"/>
<circle cx="108.075" cy="38.3029" r="0.196429" fill="#F8F8F8"/>
<circle cx="115.932" cy="38.3029" r="0.196429" fill="#F8F8F8"/>
<circle cx="5.96708" cy="46.1955" r="0.4279" fill="#F8F8F8"/>
<circle cx="13.9819" cy="46.3529" r="0.389007" fill="#F8F8F8"/>
<circle cx="100.218" cy="46.1603" r="0.196429" fill="#F8F8F8"/>
<circle cx="108.075" cy="46.1603" r="0.196429" fill="#F8F8F8"/>
<circle cx="115.932" cy="46.1603" r="0.196429" fill="#F8F8F8"/>
<circle cx="5.94375" cy="54.0286" r="0.404564" fill="#F8F8F8"/>
<circle cx="13.9663" cy="54.1947" r="0.37345" fill="#F8F8F8"/>
<circle cx="100.239" cy="54.0392" r="0.217879" fill="#F8F8F8"/>
<circle cx="108.075" cy="54.0177" r="0.196429" fill="#F8F8F8"/>
<circle cx="115.932" cy="54.0177" r="0.196429" fill="#F8F8F8"/>
<circle cx="6.12442" cy="62.0667" r="0.389007" fill="#F8F8F8"/>
<circle cx="13.9663" cy="62.0512" r="0.37345" fill="#F8F8F8"/>
<circle cx="100.301" cy="61.9578" r="0.280107" fill="#F8F8F8"/>
<circle cx="108.127" cy="61.9267" r="0.248993" fill="#F8F8F8"/>
<circle cx="115.961" cy="61.9034" r="0.225657" fill="#F8F8F8"/>
<circle cx="6.10886" cy="69.9086" r="0.37345" fill="#F8F8F8"/>
<circle cx="13.9663" cy="69.9086" r="0.37345" fill="#F8F8F8"/>
<circle cx="100.364" cy="69.8775" r="0.342336" fill="#F8F8F8"/>
<circle cx="108.19" cy="69.8464" r="0.311221" fill="#F8F8F8"/>
<circle cx="116.008" cy="69.8075" r="0.272329" fill="#F8F8F8"/>
<circle cx="6.10886" cy="77.766" r="0.37345" fill="#F8F8F8"/>
<circle cx="13.9741" cy="77.7738" r="0.381229" fill="#F8F8F8"/>
<circle cx="100.222" cy="77.5931" r="0.396786" fill="#F8F8F8"/>
<circle cx="108.236" cy="77.7505" r="0.357893" fill="#F8F8F8"/>
<circle cx="116.055" cy="77.7116" r="0.319" fill="#F8F8F8"/>
<circle cx="6.10886" cy="85.6235" r="0.37345" fill="#F8F8F8"/>
<circle cx="13.9819" cy="85.639" r="0.389007" fill="#F8F8F8"/>
<circle cx="100.253" cy="85.4806" r="0.4279" fill="#F8F8F8"/>
<circle cx="108.079" cy="85.4495" r="0.396786" fill="#F8F8F8"/>
<circle cx="116.094" cy="85.6079" r="0.357893" fill="#F8F8F8"/>
<circle opacity="0.5" cx="6.10886" cy="93.4799" r="0.37345" fill="#F8F8F8"/>
<circle opacity="0.5" cx="13.8009" cy="93.3147" r="0.404564" fill="#F8F8F8"/>
<circle cx="21.6892" cy="93.3458" r="0.435679" fill="#F8F8F8"/>
<circle cx="29.5697" cy="93.3692" r="0.459014" fill="#F8F8F8"/>
<circle cx="37.4501" cy="93.3925" r="0.48235" fill="#F8F8F8"/>
<circle cx="76.7671" cy="93.4236" r="0.513464" fill="#F8F8F8"/>
<circle cx="84.6161" cy="93.4158" r="0.505686" fill="#F8F8F8"/>
<circle cx="92.458" cy="93.4003" r="0.490129" fill="#F8F8F8"/>
<circle cx="100.299" cy="93.3847" r="0.474571" fill="#F8F8F8"/>
<circle cx="108.118" cy="93.3458" r="0.435679" fill="#F8F8F8"/>
<circle cx="115.936" cy="93.3069" r="0.396786" fill="#F8F8F8"/>
<circle opacity="0.5" cx="6.11664" cy="101.345" r="0.381229" fill="#F8F8F8"/>
<circle opacity="0.5" cx="13.8086" cy="101.18" r="0.412343" fill="#F8F8F8"/>
<circle cx="21.7047" cy="101.219" r="0.451236" fill="#F8F8F8"/>
<circle cx="29.5929" cy="101.25" r="0.48235" fill="#F8F8F8"/>
<circle cx="37.4812" cy="101.281" r="0.513464" fill="#F8F8F8"/>
<circle cx="76.8059" cy="101.32" r="0.552357" fill="#F8F8F8"/>
<circle cx="84.655" cy="101.312" r="0.544579" fill="#F8F8F8"/>
<circle cx="92.4969" cy="101.297" r="0.529021" fill="#F8F8F8"/>
<circle cx="100.33" cy="101.273" r="0.505686" fill="#F8F8F8"/>
<circle cx="115.967" cy="101.195" r="0.4279" fill="#F8F8F8"/>
<circle opacity="0.5" cx="6.12442" cy="109.21" r="0.389007" fill="#F8F8F8"/>
<circle opacity="0.5" cx="13.8242" cy="109.052" r="0.4279" fill="#F8F8F8"/>
<circle cx="21.7203" cy="109.091" r="0.466793" fill="#F8F8F8"/>
<circle cx="29.6085" cy="109.122" r="0.497907" fill="#F8F8F8"/>
<circle cx="37.4968" cy="109.153" r="0.529021" fill="#F8F8F8"/>
<circle cx="76.8293" cy="109.2" r="0.575693" fill="#F8F8F8"/>
<circle cx="84.6783" cy="109.192" r="0.567914" fill="#F8F8F8"/>
<circle opacity="0.3" cx="92.5203" cy="109.176" r="0.552357" fill="#F8F8F8"/>
<circle opacity="0.3" cx="100.362" cy="109.161" r="0.5368" fill="#F8F8F8"/>
<circle opacity="0.3" cx="108.188" cy="109.13" r="0.505686" fill="#F8F8F8"/>
<circle cx="115.998" cy="109.083" r="0.459014" fill="#F8F8F8"/>
<circle opacity="0.5" cx="5.93597" cy="116.878" r="0.396786" fill="#F8F8F8"/>
<circle opacity="0.5" cx="13.832" cy="116.917" r="0.435679" fill="#F8F8F8"/>
<circle cx="29.6163" cy="116.987" r="0.505686" fill="#F8F8F8"/>
<circle opacity="0.3" cx="37.5046" cy="117.018" r="0.5368" fill="#F8F8F8"/>
<circle opacity="0.3" cx="45.3851" cy="117.042" r="0.560136" fill="#F8F8F8"/>
<circle opacity="0.3" cx="53.2578" cy="117.057" r="0.575693" fill="#F8F8F8"/>
<circle opacity="0.3" cx="61.1227" cy="117.065" r="0.583471" fill="#F8F8F8"/>
<circle opacity="0.3" cx="68.7911" cy="116.876" r="0.59125" fill="#F8F8F8"/>
<circle opacity="0.3" cx="76.6483" cy="116.876" r="0.59125" fill="#F8F8F8"/>
<circle cx="84.6939" cy="117.065" r="0.583471" fill="#F8F8F8"/>
<circle opacity="0.3" cx="92.5436" cy="117.057" r="0.575693" fill="#F8F8F8"/>
<circle opacity="0.3" cx="100.385" cy="117.042" r="0.560136" fill="#F8F8F8"/>
<circle opacity="0.3" cx="108.211" cy="117.01" r="0.529021" fill="#F8F8F8"/>
<circle cx="116.029" cy="116.972" r="0.490129" fill="#F8F8F8"/>
<circle cx="21.7358" cy="6.9638" r="0.48235" fill="#F8F8F8"/>
<circle opacity="0.4" cx="13.9098" cy="14.8523" r="0.513464" fill="#F8F8F8"/>
<circle opacity="0.4" cx="13.8709" cy="22.6709" r="0.474571" fill="#F8F8F8"/>
<circle cx="100.218" cy="22.589" r="0.196429" fill="#F8F8F8"/>
<circle cx="108.157" cy="101.242" r="0.474571" fill="#F8F8F8"/>
<circle cx="21.7281" cy="116.956" r="0.474571" fill="#F8F8F8"/>
<circle opacity="0.5" cx="5.94375" cy="124.743" r="0.404564" fill="#F8F8F8"/>
<circle opacity="0.5" cx="13.8398" cy="124.782" r="0.443457" fill="#F8F8F8"/>
<circle cx="21.7281" cy="124.813" r="0.474571" fill="#F8F8F8"/>
<circle cx="29.6163" cy="124.845" r="0.505686" fill="#F8F8F8"/>
<circle opacity="0.3" cx="37.5046" cy="124.876" r="0.5368" fill="#F8F8F8"/>
<circle opacity="0.3" cx="45.3851" cy="124.899" r="0.560136" fill="#F8F8F8"/>
<circle opacity="0.3" cx="53.2578" cy="124.915" r="0.575693" fill="#F8F8F8"/>
<circle opacity="0.3" cx="61.1227" cy="124.922" r="0.583471" fill="#F8F8F8"/>
<circle opacity="0.3" cx="68.7911" cy="124.734" r="0.59125" fill="#F8F8F8"/>
<circle opacity="0.3" cx="76.6483" cy="124.734" r="0.59125" fill="#F8F8F8"/>
<circle cx="84.5054" cy="124.734" r="0.59125" fill="#F8F8F8"/>
<circle cx="92.3625" cy="124.734" r="0.59125" fill="#F8F8F8"/>
<circle cx="100.4" cy="124.915" r="0.575693" fill="#F8F8F8"/>
<circle cx="108.235" cy="124.891" r="0.552357" fill="#F8F8F8"/>
<circle cx="116.053" cy="124.852" r="0.513464" fill="#F8F8F8"/>
</g>
</g>
</g>
<circle cx="6.12845" cy="30.6429" r="0.392857" fill="#F8F8F8"/>
<circle opacity="0.4" cx="13.5928" cy="38.1067" r="0.392857" fill="#F8F8F8"/>
<circle opacity="0.2" cx="108.272" cy="93.4993" r="0.392857" fill="#F8F8F8"/>
<g filter="url(#filter0_f_17271_16694)">
<circle cx="6.12845" cy="77.7854" r="0.392857" fill="#F8F8F8"/>
</g>
<circle cx="108.075" cy="22.589" r="0.196429" fill="#F8F8F8"/>
<g filter="url(#filter1_f_17271_16694)">
<circle cx="115.932" cy="69.7316" r="0.196429" fill="#F8F8F8"/>
</g>
<g filter="url(#filter2_f_17271_16694)">
<circle cx="57.7279" cy="121.44" r="54.384" fill="url(#paint4_linear_17271_16694)" fill-opacity="0.4"/>
</g>
<path d="M58.9357 52.7925H58.1388V54.3862H58.9357C59.3796 54.3862 59.7325 54.0333 59.7325 53.5893C59.7325 53.1454 59.3796 52.7925 58.9357 52.7925ZM77.6849 72.5662C77.2409 72.5662 76.888 72.9191 76.888 73.3631V74.16H78.4817V73.3631C78.4817 72.9191 78.1288 72.5662 77.6849 72.5662Z" fill="#2E3760"/>
<path d="M65.1854 65.1543H61.8158C61.3718 65.1543 61.0189 65.5072 61.0189 65.9512V70.4819C61.0189 70.9259 61.3718 71.2788 61.8158 71.2788H65.1854C65.6294 71.2788 65.9823 70.9259 65.9823 70.4819V65.9512C65.9823 65.5072 65.6294 65.1543 65.1854 65.1543Z" fill="#13F584"/>
<path d="M70.8888 60.0781H67.5077C67.0638 60.0781 66.7109 60.431 66.7109 60.875V70.483C66.7109 70.9269 67.0638 71.2798 67.5077 71.2798H70.8888C71.3327 71.2798 71.6856 70.9269 71.6856 70.483V60.875C71.6856 60.431 71.3327 60.0781 70.8888 60.0781Z" fill="#13F584"/>
<path d="M76.592 63.2305H73.211C72.767 63.2305 72.4141 63.5834 72.4141 64.0273V70.482C72.4141 70.926 72.767 71.2789 73.211 71.2789H76.592C77.036 71.2789 77.3889 70.926 77.3889 70.482V64.0273C77.3889 63.5948 77.036 63.2305 76.592 63.2305Z" fill="#13F584"/>
<path d="M82.2953 58.3813H78.9257C78.4817 58.3813 78.1288 58.7342 78.1288 59.1782V70.4824C78.1288 70.9264 78.4817 71.2793 78.9257 71.2793H82.2953C82.7393 71.2793 83.0922 70.9264 83.0922 70.4824V59.1782C83.0922 58.7342 82.7393 58.3813 82.2953 58.3813Z" fill="#13F584"/>
<path d="M85.0047 73.3624C85.0047 73.8064 84.6518 74.1593 84.2078 74.1593H58.9357C58.4917 74.1593 58.1388 73.8064 58.1388 73.3624V46.4282C58.1388 45.9842 58.4917 45.6313 58.9357 45.6313C59.3796 45.6313 59.7325 45.9842 59.7325 46.4282V72.5655H84.2078C84.6518 72.5655 85.0047 72.9184 85.0047 73.3624Z" fill="#13F584"/>
<path d="M80.6788 53.4067C79.4608 53.4067 78.4818 54.3971 78.4818 55.6038C78.4818 55.6949 78.4931 55.7973 78.5045 55.8884L75.9773 57.2772C75.5903 56.9585 75.1008 56.765 74.5657 56.765C74.0079 56.765 73.4956 56.9813 73.1086 57.3228L71.105 56.2982C71.1164 56.2299 71.1164 56.1502 71.1164 56.0706C71.1164 54.8525 70.126 53.8735 68.9193 53.8735C67.7126 53.8735 66.7222 54.8639 66.7222 56.0706C66.7222 56.2982 66.7564 56.5145 66.8247 56.7308L64.2064 58.8254C63.8877 58.6319 63.512 58.5295 63.1022 58.5295C61.8955 58.5295 60.9051 59.5199 60.9051 60.7266C60.9051 61.9446 61.8955 62.9236 63.1022 62.9236C64.3089 62.9236 65.2993 61.9332 65.2993 60.7266C65.2993 60.4989 65.2651 60.2826 65.1968 60.0663L67.8151 57.9717C68.1338 58.1652 68.5095 58.2676 68.9193 58.2676C69.4771 58.2676 69.9894 58.0627 70.3765 57.7098L72.38 58.7344C72.3686 58.8027 72.3686 58.8824 72.3686 58.9621C72.3686 60.1801 73.359 61.1591 74.5657 61.1591C75.7838 61.1591 76.7628 60.1687 76.7628 58.9621C76.7628 58.8596 76.7514 58.7685 76.74 58.6775L79.2672 57.2886C79.6543 57.6074 80.1438 57.8009 80.6788 57.8009C81.8969 57.8009 82.8759 56.8105 82.8759 55.6038C82.8759 54.3971 81.8855 53.4067 80.6788 53.4067ZM63.0908 61.3299C62.7607 61.3299 62.4874 61.0567 62.4874 60.7266C62.4874 60.3964 62.7607 60.1232 63.0908 60.1232C63.2729 60.1232 63.4437 60.2143 63.5575 60.3395L63.5689 60.3509C63.6486 60.4533 63.6941 60.5786 63.6941 60.7266C63.6941 61.0567 63.4209 61.3299 63.0908 61.3299ZM68.8966 56.6739C68.703 56.6739 68.5323 56.5828 68.4298 56.4462C68.3501 56.3438 68.2932 56.2072 68.2932 56.0706C68.2932 55.7404 68.5664 55.4672 68.8966 55.4672C69.2267 55.4672 69.4999 55.7404 69.4999 56.0706C69.4999 56.1616 69.4771 56.2413 69.443 56.321C69.443 56.3324 69.4316 56.3324 69.4316 56.3438C69.4316 56.3552 69.4202 56.3665 69.4202 56.3665C69.3178 56.5487 69.1242 56.6739 68.8966 56.6739ZM74.5543 59.5654C74.2242 59.5654 73.951 59.2922 73.951 58.9621C73.951 58.6319 74.2242 58.3587 74.5543 58.3587C74.782 58.3587 74.9755 58.4839 75.078 58.6661C75.0894 58.6775 75.0894 58.6888 75.0894 58.6888C75.1349 58.7685 75.1577 58.871 75.1577 58.9621C75.1577 59.2922 74.8845 59.5654 74.5543 59.5654ZM80.6788 56.2072C80.4512 56.2072 80.2463 56.0819 80.1438 55.8884C80.0983 55.7973 80.0755 55.7063 80.0755 55.6038C80.0755 55.2737 80.3487 55.0005 80.6788 55.0005C81.009 55.0005 81.2822 55.2737 81.2822 55.6038C81.2822 55.9453 81.009 56.2072 80.6788 56.2072Z" fill="#13F584"/>
<path d="M69.4202 48.6938H79.051C79.4949 48.6938 79.8478 48.3409 79.8478 47.897C79.8478 47.453 79.4949 47.1001 79.051 47.1001H69.4202C68.9763 47.1001 68.6234 47.453 68.6234 47.897C68.6234 48.3409 68.9763 48.6938 69.4202 48.6938Z" fill="#13F584"/>
<path d="M66.3011 47.1001H62.385C61.941 47.1001 61.5881 47.453 61.5881 47.897C61.5881 48.3409 61.941 48.6938 62.385 48.6938H66.3011C66.745 48.6938 67.0979 48.3409 67.0979 47.897C67.0979 47.4644 66.745 47.1001 66.3011 47.1001Z" fill="#13F584"/>
<path d="M79.0396 49.9575H69.4088C68.9649 49.9575 68.612 50.3104 68.612 50.7544C68.612 51.1984 68.9649 51.5513 69.4088 51.5513H79.0396C79.4835 51.5513 79.8364 51.1984 79.8364 50.7544C79.8364 50.3104 79.4835 49.9575 79.0396 49.9575Z" fill="#13F584"/>
<path d="M66.3011 49.9575H62.385C61.941 49.9575 61.5881 50.3104 61.5881 50.7544C61.5881 51.1984 61.941 51.5513 62.385 51.5513H66.3011C66.745 51.5513 67.0979 51.1984 67.0979 50.7544C67.0979 50.3104 66.745 49.9575 66.3011 49.9575Z" fill="#13F584"/>
<g filter="url(#filter3_ii_17271_16694)">
<path d="M58.9357 74.16C58.4917 74.16 58.1388 73.8071 58.1388 73.3631V54.3862H37.9438C36.999 54.3862 36.2363 55.1489 36.2363 56.0938V70.2439C37.295 69.743 38.4675 69.4812 39.6856 69.4812C41.8599 69.4812 43.8976 70.3236 45.4344 71.8604C46.1971 72.6232 46.8005 73.5225 47.1989 74.4901C47.5746 75.4008 47.7795 76.3684 47.8136 77.3816H76.8994V74.16H58.9357Z" fill="#F8F8F8" fill-opacity="0.02"/>
<path d="M58.9357 74.16C58.4917 74.16 58.1388 73.8071 58.1388 73.3631V54.3862H37.9438C36.999 54.3862 36.2363 55.1489 36.2363 56.0938V70.2439C37.295 69.743 38.4675 69.4812 39.6856 69.4812C41.8599 69.4812 43.8976 70.3236 45.4344 71.8604C46.1971 72.6232 46.8005 73.5225 47.1989 74.4901C47.5746 75.4008 47.7795 76.3684 47.8136 77.3816H76.8994V74.16H58.9357Z" fill="url(#paint5_linear_17271_16694)" fill-opacity="0.25"/>
<path d="M37.9443 54.7661H57.7587V73.3628C57.7587 74.0166 58.2817 74.5404 58.9355 74.5405H76.5195V77.0015H48.1738C48.1152 76.2077 47.954 75.4403 47.6894 74.7056L47.5507 74.3452C47.1326 73.3298 46.5002 72.3884 45.7031 71.5913C44.0948 69.9832 41.9603 69.1011 39.6855 69.1011C38.6162 69.1011 37.5794 69.297 36.6161 69.6704V56.0942C36.6161 55.3593 37.2094 54.7661 37.9443 54.7661Z" stroke="url(#paint6_linear_17271_16694)" stroke-opacity="0.25" stroke-width="0.760243"/>
<path d="M46.4021 82.1746H53.5511L52.7656 85.9882C52.6859 86.3639 52.3672 86.6257 51.9801 86.6257H46.311C46.015 86.6257 45.7532 86.8761 45.7532 87.1835C45.7532 87.4795 46.0036 87.7413 46.311 87.7413H66.8133C67.1093 87.7413 67.3711 87.4909 67.3711 87.1835C67.3711 86.8761 67.1207 86.6257 66.8133 86.6257H61.1441C60.7685 86.6257 60.4383 86.3639 60.3587 85.9882L59.5732 82.1746H75.1804C76.1253 82.1746 76.888 81.4119 76.888 80.467V78.9644H47.6884C47.4949 80.1255 47.0509 81.207 46.4021 82.1746Z" fill="#F8F8F8" fill-opacity="0.02"/>
<path d="M46.4021 82.1746H53.5511L52.7656 85.9882C52.6859 86.3639 52.3672 86.6257 51.9801 86.6257H46.311C46.015 86.6257 45.7532 86.8761 45.7532 87.1835C45.7532 87.4795 46.0036 87.7413 46.311 87.7413H66.8133C67.1093 87.7413 67.3711 87.4909 67.3711 87.1835C67.3711 86.8761 67.1207 86.6257 66.8133 86.6257H61.1441C60.7685 86.6257 60.4383 86.3639 60.3587 85.9882L59.5732 82.1746H75.1804C76.1253 82.1746 76.888 81.4119 76.888 80.467V78.9644H47.6884C47.4949 80.1255 47.0509 81.207 46.4021 82.1746Z" fill="url(#paint7_linear_17271_16694)" fill-opacity="0.25"/>
<path d="M76.5081 79.3442V80.4673C76.5079 81.2019 75.9155 81.7942 75.1809 81.7944H59.1067L59.2004 82.2515L59.9866 86.0649V86.0669C60.1038 86.6196 60.5903 87.0052 61.1438 87.0054H66.8137C66.9108 87.0056 66.9912 87.086 66.9915 87.1831C66.9915 87.2754 66.9046 87.3606 66.8137 87.3608H46.3108C46.2184 87.3607 46.1331 87.2741 46.1331 87.1831C46.1333 87.0909 46.2199 87.0055 46.3108 87.0054H51.9797C52.548 87.0054 53.0213 86.6165 53.1379 86.0669V86.0649L53.9231 82.2515L54.0178 81.7944H47.0784C47.5078 81.0326 47.8218 80.212 48.0012 79.3442H76.5081Z" stroke="url(#paint8_linear_17271_16694)" stroke-opacity="0.25" stroke-width="0.760243"/>
</g>
<path d="M44.296 72.9872C43.6813 72.3725 42.9641 71.8943 42.1786 71.5642C41.3931 71.2341 40.5507 71.0747 39.6742 71.0747C38.3081 71.0747 37.0103 71.4845 35.9175 72.2586L35.9061 72.27C35.8947 72.2814 35.8833 72.2928 35.8719 72.2928C35.5874 72.4977 35.3141 72.7254 35.0637 72.9758C32.7642 75.2753 32.5479 78.8726 34.4034 81.434L29.3035 86.534C28.905 86.9324 28.905 87.5813 29.3035 87.9797L29.3832 88.0594C29.5767 88.2529 29.8271 88.3554 30.1003 88.3554C30.3735 88.3554 30.6354 88.2529 30.8175 88.0594L35.9402 82.9367C38.4902 84.7239 42.0306 84.4735 44.296 82.2081C45.4116 81.0925 46.0719 79.6581 46.1857 78.0985C46.1857 78.0872 46.1857 78.0872 46.1857 78.0758C46.1971 77.9164 46.2085 77.757 46.2085 77.5863C46.2085 75.8559 45.5368 74.2167 44.296 72.9872Z" fill="#13F584"/>
<defs>
<filter id="filter0_f_17271_16694" x="4.16417" y="75.8211" width="3.92856" height="3.9285" filterUnits="userSpaceOnUse" color-interpolation-filters="sRGB">
<feFlood flood-opacity="0" result="BackgroundImageFix"/>
<feBlend mode="normal" in="SourceGraphic" in2="BackgroundImageFix" result="shape"/>
<feGaussianBlur stdDeviation="0.785714" result="effect1_foregroundBlur_17271_16694"/>
</filter>
<filter id="filter1_f_17271_16694" x="114.164" y="67.9637" width="3.53571" height="3.53592" filterUnits="userSpaceOnUse" color-interpolation-filters="sRGB">
<feFlood flood-opacity="0" result="BackgroundImageFix"/>
<feBlend mode="normal" in="SourceGraphic" in2="BackgroundImageFix" result="shape"/>
<feGaussianBlur stdDeviation="0.785714" result="effect1_foregroundBlur_17271_16694"/>
</filter>
<filter id="filter2_f_17271_16694" x="-62.1281" y="1.58366" width="239.712" height="239.712" filterUnits="userSpaceOnUse" color-interpolation-filters="sRGB">
<feFlood flood-opacity="0" result="BackgroundImageFix"/>
<feBlend mode="normal" in="SourceGraphic" in2="BackgroundImageFix" result="shape"/>
<feGaussianBlur stdDeviation="32.736" result="effect1_foregroundBlur_17271_16694"/>
</filter>
<filter id="filter3_ii_17271_16694" x="3.79922" y="21.9492" width="105.537" height="98.2291" filterUnits="userSpaceOnUse" color-interpolation-filters="sRGB">
<feFlood flood-opacity="0" result="BackgroundImageFix"/>
<feBlend mode="normal" in="SourceGraphic" in2="BackgroundImageFix" result="shape"/>
<feColorMatrix in="SourceAlpha" type="matrix" values="0 0 0 0 0 0 0 0 0 0 0 0 0 0 0 0 0 0 127 0" result="hardAlpha"/>
<feOffset/>
<feGaussianBlur stdDeviation="2.02732"/>
<feComposite in2="hardAlpha" operator="arithmetic" k2="-1" k3="1"/>
<feColorMatrix type="matrix" values="0 0 0 0 1 0 0 0 0 1 0 0 0 0 1 0 0 0 1 0"/>
<feBlend mode="multiply" in2="shape" result="effect1_innerShadow_17271_16694"/>
<feColorMatrix in="SourceAlpha" type="matrix" values="0 0 0 0 0 0 0 0 0 0 0 0 0 0 0 0 0 0 127 0" result="hardAlpha"/>
<feOffset/>
<feGaussianBlur stdDeviation="2.02732"/>
<feComposite in2="hardAlpha" operator="arithmetic" k2="-1" k3="1"/>
<feColorMatrix type="matrix" values="0 0 0 0 0.972549 0 0 0 0 0.972549 0 0 0 0 0.972549 0 0 0 0.1 0"/>
<feBlend mode="normal" in2="effect1_innerShadow_17271_16694" result="effect2_innerShadow_17271_16694"/>
</filter>
<radialGradient id="paint0_radial_17271_16694" cx="0" cy="0" r="1" gradientUnits="userSpaceOnUse" gradientTransform="translate(57.1999 65.999) rotate(90.9687) scale(162.666)">
<stop stop-color="#F8F8F8"/>
<stop offset="0.362052" stop-color="#F8F8F8" stop-opacity="0"/>
</radialGradient>
<radialGradient id="paint1_radial_17271_16694" cx="0" cy="0" r="1" gradientUnits="userSpaceOnUse" gradientTransform="translate(57.1999 70.04) rotate(90) scale(167.961)">
<stop stop-color="#F8F8F8" stop-opacity="0.4"/>
<stop offset="1" stop-color="#F8F8F8" stop-opacity="0"/>
</radialGradient>
<linearGradient id="paint2_linear_17271_16694" x1="57.1999" y1="9.42773" x2="57.1999" y2="175.398" gradientUnits="userSpaceOnUse">
<stop stop-color="#F8F8F8" stop-opacity="0"/>
<stop offset="1" stop-color="#F8F8F8" stop-opacity="0.05"/>
</linearGradient>
<radialGradient id="paint3_radial_17271_16694" cx="0" cy="0" r="1" gradientUnits="userSpaceOnUse" gradientTransform="translate(57.1999 65.9986) rotate(90) scale(72.2857)">
<stop offset="0.608696" stop-color="white" stop-opacity="0"/>
<stop offset="1" stop-color="white"/>
</radialGradient>
<linearGradient id="paint4_linear_17271_16694" x1="57.7279" y1="121.44" x2="57.7279" y2="143.088" gradientUnits="userSpaceOnUse">
<stop stop-color="#13F584" stop-opacity="0.48"/>
<stop offset="1" stop-color="#13F584" stop-opacity="0"/>
</linearGradient>
<linearGradient id="paint5_linear_17271_16694" x1="36.2363" y1="54.3862" x2="33.0768" y2="96.1389" gradientUnits="userSpaceOnUse">
<stop stop-color="white" stop-opacity="0.4"/>
<stop offset="1" stop-color="white" stop-opacity="0"/>
</linearGradient>
<linearGradient id="paint6_linear_17271_16694" x1="56.5678" y1="65.8839" x2="31.535" y2="47.728" gradientUnits="userSpaceOnUse">
<stop stop-color="white" stop-opacity="0"/>
<stop offset="1" stop-color="white" stop-opacity="0.5"/>
</linearGradient>
<linearGradient id="paint7_linear_17271_16694" x1="45.7532" y1="78.9644" x2="45.1494" y2="94.9691" gradientUnits="userSpaceOnUse">
<stop stop-color="white" stop-opacity="0.4"/>
<stop offset="1" stop-color="white" stop-opacity="0"/>
</linearGradient>
<linearGradient id="paint8_linear_17271_16694" x1="61.3206" y1="83.3528" x2="51.9364" y2="69.6992" gradientUnits="userSpaceOnUse">
<stop stop-color="white" stop-opacity="0"/>
<stop offset="1" stop-color="white" stop-opacity="0.5"/>
</linearGradient>
<clipPath id="clip0_17271_16694">
<rect width="132" height="132" fill="white" transform="translate(-8.80005 -0.000976562)"/>
</clipPath>
</defs>
</svg>
