<svg width="64" height="64" viewBox="0 0 64 64" fill="none" xmlns="http://www.w3.org/2000/svg">
<path d="M33.9357 17.7925H33.1388V19.3862H33.9357C34.3796 19.3862 34.7325 19.0333 34.7325 18.5893C34.7325 18.1454 34.3796 17.7925 33.9357 17.7925ZM52.6849 37.5662C52.2409 37.5662 51.888 37.9191 51.888 38.3631V39.16H53.4817V38.3631C53.4817 37.9191 53.1288 37.5662 52.6849 37.5662Z" fill="#2E3760"/>
<path d="M40.1854 30.1543H36.8158C36.3718 30.1543 36.0189 30.5072 36.0189 30.9512V35.4819C36.0189 35.9259 36.3718 36.2788 36.8158 36.2788H40.1854C40.6294 36.2788 40.9823 35.9259 40.9823 35.4819V30.9512C40.9823 30.5072 40.6294 30.1543 40.1854 30.1543Z" fill="#13F584"/>
<path d="M45.8888 25.0781H42.5077C42.0638 25.0781 41.7109 25.431 41.7109 25.875V35.483C41.7109 35.9269 42.0638 36.2798 42.5077 36.2798H45.8888C46.3327 36.2798 46.6856 35.9269 46.6856 35.483V25.875C46.6856 25.431 46.3327 25.0781 45.8888 25.0781Z" fill="#13F584"/>
<path d="M51.592 28.2305H48.211C47.767 28.2305 47.4141 28.5834 47.4141 29.0273V35.482C47.4141 35.926 47.767 36.2789 48.211 36.2789H51.592C52.036 36.2789 52.3889 35.926 52.3889 35.482V29.0273C52.3889 28.5948 52.036 28.2305 51.592 28.2305Z" fill="#13F584"/>
<path d="M57.2953 23.3813H53.9257C53.4817 23.3813 53.1288 23.7342 53.1288 24.1782V35.4824C53.1288 35.9264 53.4817 36.2793 53.9257 36.2793H57.2953C57.7393 36.2793 58.0922 35.9264 58.0922 35.4824V24.1782C58.0922 23.7342 57.7393 23.3813 57.2953 23.3813Z" fill="#13F584"/>
<path d="M60.0047 38.3624C60.0047 38.8064 59.6518 39.1593 59.2078 39.1593H33.9357C33.4917 39.1593 33.1388 38.8064 33.1388 38.3624V11.4282C33.1388 10.9842 33.4917 10.6313 33.9357 10.6313C34.3796 10.6313 34.7325 10.9842 34.7325 11.4282V37.5655H59.2078C59.6518 37.5655 60.0047 37.9184 60.0047 38.3624Z" fill="#13F584"/>
<path d="M55.6788 18.4067C54.4608 18.4067 53.4818 19.3971 53.4818 20.6038C53.4818 20.6949 53.4931 20.7973 53.5045 20.8884L50.9773 22.2772C50.5903 21.9585 50.1008 21.765 49.5657 21.765C49.0079 21.765 48.4956 21.9813 48.1086 22.3228L46.105 21.2982C46.1164 21.2299 46.1164 21.1502 46.1164 21.0706C46.1164 19.8525 45.126 18.8735 43.9193 18.8735C42.7126 18.8735 41.7222 19.8639 41.7222 21.0706C41.7222 21.2982 41.7564 21.5145 41.8247 21.7308L39.2064 23.8254C38.8877 23.6319 38.512 23.5295 38.1022 23.5295C36.8955 23.5295 35.9051 24.5199 35.9051 25.7266C35.9051 26.9446 36.8955 27.9236 38.1022 27.9236C39.3089 27.9236 40.2993 26.9332 40.2993 25.7266C40.2993 25.4989 40.2651 25.2826 40.1968 25.0663L42.8151 22.9717C43.1338 23.1652 43.5095 23.2676 43.9193 23.2676C44.4771 23.2676 44.9894 23.0627 45.3765 22.7098L47.38 23.7344C47.3686 23.8027 47.3686 23.8824 47.3686 23.9621C47.3686 25.1801 48.359 26.1591 49.5657 26.1591C50.7838 26.1591 51.7628 25.1687 51.7628 23.9621C51.7628 23.8596 51.7514 23.7685 51.74 23.6775L54.2672 22.2886C54.6543 22.6074 55.1438 22.8009 55.6788 22.8009C56.8969 22.8009 57.8759 21.8105 57.8759 20.6038C57.8759 19.3971 56.8855 18.4067 55.6788 18.4067ZM38.0908 26.3299C37.7607 26.3299 37.4874 26.0567 37.4874 25.7266C37.4874 25.3964 37.7607 25.1232 38.0908 25.1232C38.2729 25.1232 38.4437 25.2143 38.5575 25.3395L38.5689 25.3509C38.6486 25.4533 38.6941 25.5786 38.6941 25.7266C38.6941 26.0567 38.4209 26.3299 38.0908 26.3299ZM43.8966 21.6739C43.703 21.6739 43.5323 21.5828 43.4298 21.4462C43.3501 21.3438 43.2932 21.2072 43.2932 21.0706C43.2932 20.7404 43.5664 20.4672 43.8966 20.4672C44.2267 20.4672 44.4999 20.7404 44.4999 21.0706C44.4999 21.1616 44.4771 21.2413 44.443 21.321C44.443 21.3324 44.4316 21.3324 44.4316 21.3438C44.4316 21.3552 44.4202 21.3665 44.4202 21.3665C44.3178 21.5487 44.1242 21.6739 43.8966 21.6739ZM49.5543 24.5654C49.2242 24.5654 48.951 24.2922 48.951 23.9621C48.951 23.6319 49.2242 23.3587 49.5543 23.3587C49.782 23.3587 49.9755 23.4839 50.078 23.6661C50.0894 23.6775 50.0894 23.6888 50.0894 23.6888C50.1349 23.7685 50.1577 23.871 50.1577 23.9621C50.1577 24.2922 49.8845 24.5654 49.5543 24.5654ZM55.6788 21.2072C55.4512 21.2072 55.2463 21.0819 55.1438 20.8884C55.0983 20.7973 55.0755 20.7063 55.0755 20.6038C55.0755 20.2737 55.3487 20.0005 55.6788 20.0005C56.009 20.0005 56.2822 20.2737 56.2822 20.6038C56.2822 20.9453 56.009 21.2072 55.6788 21.2072Z" fill="#13F584"/>
<path d="M44.4202 13.6938H54.051C54.4949 13.6938 54.8478 13.3409 54.8478 12.897C54.8478 12.453 54.4949 12.1001 54.051 12.1001H44.4202C43.9763 12.1001 43.6234 12.453 43.6234 12.897C43.6234 13.3409 43.9763 13.6938 44.4202 13.6938Z" fill="#13F584"/>
<path d="M41.3011 12.1001H37.385C36.941 12.1001 36.5881 12.453 36.5881 12.897C36.5881 13.3409 36.941 13.6938 37.385 13.6938H41.3011C41.745 13.6938 42.0979 13.3409 42.0979 12.897C42.0979 12.4644 41.745 12.1001 41.3011 12.1001Z" fill="#13F584"/>
<path d="M54.0396 14.9575H44.4088C43.9649 14.9575 43.612 15.3104 43.612 15.7544C43.612 16.1984 43.9649 16.5513 44.4088 16.5513H54.0396C54.4835 16.5513 54.8364 16.1984 54.8364 15.7544C54.8364 15.3104 54.4835 14.9575 54.0396 14.9575Z" fill="#13F584"/>
<path d="M41.3011 14.9575H37.385C36.941 14.9575 36.5881 15.3104 36.5881 15.7544C36.5881 16.1984 36.941 16.5513 37.385 16.5513H41.3011C41.745 16.5513 42.0979 16.1984 42.0979 15.7544C42.0979 15.3104 41.745 14.9575 41.3011 14.9575Z" fill="#13F584"/>
<g filter="url(#filter0_ii_17319_17615)">
<path d="M33.9357 39.16C33.4917 39.16 33.1388 38.8071 33.1388 38.3631V19.3862H12.9438C11.999 19.3862 11.2363 20.1489 11.2363 21.0938V35.2439C12.295 34.743 13.4675 34.4812 14.6856 34.4812C16.8599 34.4812 18.8976 35.3236 20.4344 36.8604C21.1971 37.6232 21.8005 38.5225 22.1989 39.4901C22.5746 40.4008 22.7795 41.3684 22.8136 42.3816H51.8994V39.16H33.9357Z" fill="#F8F8F8" fill-opacity="0.02"/>
<path d="M33.9357 39.16C33.4917 39.16 33.1388 38.8071 33.1388 38.3631V19.3862H12.9438C11.999 19.3862 11.2363 20.1489 11.2363 21.0938V35.2439C12.295 34.743 13.4675 34.4812 14.6856 34.4812C16.8599 34.4812 18.8976 35.3236 20.4344 36.8604C21.1971 37.6232 21.8005 38.5225 22.1989 39.4901C22.5746 40.4008 22.7795 41.3684 22.8136 42.3816H51.8994V39.16H33.9357Z" fill="url(#paint0_linear_17319_17615)" fill-opacity="0.25"/>
<path d="M12.9443 19.7661H32.7587V38.3628C32.7587 39.0166 33.2817 39.5404 33.9355 39.5405H51.5195V42.0015H23.1738C23.1152 41.2077 22.954 40.4403 22.6894 39.7056L22.5507 39.3452C22.1326 38.3298 21.5002 37.3884 20.7031 36.5913C19.0948 34.9832 16.9603 34.1011 14.6855 34.1011C13.6162 34.1011 12.5794 34.297 11.6161 34.6704V21.0942C11.6161 20.3593 12.2094 19.7661 12.9443 19.7661Z" stroke="url(#paint1_linear_17319_17615)" stroke-opacity="0.25" stroke-width="0.760243"/>
<path d="M21.4021 47.1746H28.5511L27.7656 50.9882C27.6859 51.3639 27.3672 51.6257 26.9801 51.6257H21.311C21.015 51.6257 20.7532 51.8761 20.7532 52.1835C20.7532 52.4795 21.0036 52.7413 21.311 52.7413H41.8133C42.1093 52.7413 42.3711 52.4909 42.3711 52.1835C42.3711 51.8761 42.1207 51.6257 41.8133 51.6257H36.1441C35.7685 51.6257 35.4383 51.3639 35.3587 50.9882L34.5732 47.1746H50.1804C51.1253 47.1746 51.888 46.4119 51.888 45.467V43.9644H22.6884C22.4949 45.1255 22.0509 46.207 21.4021 47.1746Z" fill="#F8F8F8" fill-opacity="0.02"/>
<path d="M21.4021 47.1746H28.5511L27.7656 50.9882C27.6859 51.3639 27.3672 51.6257 26.9801 51.6257H21.311C21.015 51.6257 20.7532 51.8761 20.7532 52.1835C20.7532 52.4795 21.0036 52.7413 21.311 52.7413H41.8133C42.1093 52.7413 42.3711 52.4909 42.3711 52.1835C42.3711 51.8761 42.1207 51.6257 41.8133 51.6257H36.1441C35.7685 51.6257 35.4383 51.3639 35.3587 50.9882L34.5732 47.1746H50.1804C51.1253 47.1746 51.888 46.4119 51.888 45.467V43.9644H22.6884C22.4949 45.1255 22.0509 46.207 21.4021 47.1746Z" fill="url(#paint2_linear_17319_17615)" fill-opacity="0.25"/>
<path d="M51.5081 44.3442V45.4673C51.5079 46.2019 50.9155 46.7942 50.1809 46.7944H34.1067L34.2004 47.2515L34.9866 51.0649V51.0669C35.1038 51.6196 35.5903 52.0052 36.1438 52.0054H41.8137C41.9108 52.0056 41.9912 52.086 41.9915 52.1831C41.9915 52.2754 41.9046 52.3606 41.8137 52.3608H21.3108C21.2184 52.3607 21.1331 52.2741 21.1331 52.1831C21.1333 52.0909 21.2199 52.0055 21.3108 52.0054H26.9797C27.548 52.0054 28.0213 51.6165 28.1379 51.0669V51.0649L28.9231 47.2515L29.0178 46.7944H22.0784C22.5078 46.0326 22.8218 45.212 23.0012 44.3442H51.5081Z" stroke="url(#paint3_linear_17319_17615)" stroke-opacity="0.25" stroke-width="0.760243"/>
</g>
<path d="M19.296 37.9872C18.6813 37.3725 17.9641 36.8943 17.1786 36.5642C16.3931 36.2341 15.5507 36.0747 14.6742 36.0747C13.3081 36.0747 12.0103 36.4845 10.9175 37.2586L10.9061 37.27C10.8947 37.2814 10.8833 37.2928 10.8719 37.2928C10.5874 37.4977 10.3141 37.7254 10.0637 37.9758C7.76416 40.2753 7.54786 43.8726 9.40343 46.434L4.30346 51.534C3.90503 51.9324 3.90503 52.5813 4.30346 52.9797L4.38315 53.0594C4.57668 53.2529 4.82712 53.3554 5.10033 53.3554C5.37355 53.3554 5.63538 53.2529 5.81752 53.0594L10.9402 47.9367C13.4902 49.7239 17.0306 49.4735 19.296 47.2081C20.4116 46.0925 21.0719 44.6581 21.1857 43.0985C21.1857 43.0872 21.1857 43.0872 21.1857 43.0758C21.1971 42.9164 21.2085 42.757 21.2085 42.5863C21.2085 40.8559 20.5368 39.2167 19.296 37.9872Z" fill="#13F584"/>
<defs>
<filter id="filter0_ii_17319_17615" x="-21.2008" y="-13.0508" width="105.537" height="98.2291" filterUnits="userSpaceOnUse" color-interpolation-filters="sRGB">
<feFlood flood-opacity="0" result="BackgroundImageFix"/>
<feBlend mode="normal" in="SourceGraphic" in2="BackgroundImageFix" result="shape"/>
<feColorMatrix in="SourceAlpha" type="matrix" values="0 0 0 0 0 0 0 0 0 0 0 0 0 0 0 0 0 0 127 0" result="hardAlpha"/>
<feOffset/>
<feGaussianBlur stdDeviation="2.02732"/>
<feComposite in2="hardAlpha" operator="arithmetic" k2="-1" k3="1"/>
<feColorMatrix type="matrix" values="0 0 0 0 1 0 0 0 0 1 0 0 0 0 1 0 0 0 1 0"/>
<feBlend mode="multiply" in2="shape" result="effect1_innerShadow_17319_17615"/>
<feColorMatrix in="SourceAlpha" type="matrix" values="0 0 0 0 0 0 0 0 0 0 0 0 0 0 0 0 0 0 127 0" result="hardAlpha"/>
<feOffset/>
<feGaussianBlur stdDeviation="2.02732"/>
<feComposite in2="hardAlpha" operator="arithmetic" k2="-1" k3="1"/>
<feColorMatrix type="matrix" values="0 0 0 0 0.972549 0 0 0 0 0.972549 0 0 0 0 0.972549 0 0 0 0.1 0"/>
<feBlend mode="normal" in2="effect1_innerShadow_17319_17615" result="effect2_innerShadow_17319_17615"/>
</filter>
<linearGradient id="paint0_linear_17319_17615" x1="11.2363" y1="19.3862" x2="8.07678" y2="61.1389" gradientUnits="userSpaceOnUse">
<stop stop-color="white" stop-opacity="0.4"/>
<stop offset="1" stop-color="white" stop-opacity="0"/>
</linearGradient>
<linearGradient id="paint1_linear_17319_17615" x1="31.5678" y1="30.8839" x2="6.535" y2="12.728" gradientUnits="userSpaceOnUse">
<stop stop-color="white" stop-opacity="0"/>
<stop offset="1" stop-color="white" stop-opacity="0.5"/>
</linearGradient>
<linearGradient id="paint2_linear_17319_17615" x1="20.7532" y1="43.9644" x2="20.1494" y2="59.9691" gradientUnits="userSpaceOnUse">
<stop stop-color="white" stop-opacity="0.4"/>
<stop offset="1" stop-color="white" stop-opacity="0"/>
</linearGradient>
<linearGradient id="paint3_linear_17319_17615" x1="36.3206" y1="48.3528" x2="26.9364" y2="34.6992" gradientUnits="userSpaceOnUse">
<stop stop-color="white" stop-opacity="0"/>
<stop offset="1" stop-color="white" stop-opacity="0.5"/>
</linearGradient>
</defs>
</svg>
