<svg width="24" height="24" viewBox="0 0 24 24" fill="none" xmlns="http://www.w3.org/2000/svg">
<path d="M7.875 7.875H16.125C16.5045 7.875 16.8125 7.567 16.8125 7.1875V3.0625C16.8125 2.683 16.5045 2.375 16.125 2.375H7.875C7.4955 2.375 7.1875 2.683 7.1875 3.0625V7.1875C7.1875 7.567 7.4955 7.875 7.875 7.875Z" fill="#F8F8F8" fill-opacity="0.02"/>
<path d="M7.875 7.875H16.125C16.5045 7.875 16.8125 7.567 16.8125 7.1875V3.0625C16.8125 2.683 16.5045 2.375 16.125 2.375H7.875C7.4955 2.375 7.1875 2.683 7.1875 3.0625V7.1875C7.1875 7.567 7.4955 7.875 7.875 7.875Z" fill="url(#paint0_linear_17120_113652)" fill-opacity="0.25"/>
<path d="M7.875 2.75H16.125C16.2974 2.75 16.4375 2.89011 16.4375 3.0625V7.1875C16.4375 7.35989 16.2974 7.5 16.125 7.5H7.875C7.70261 7.5 7.5625 7.35989 7.5625 7.1875V3.0625C7.5625 2.89011 7.70261 2.75 7.875 2.75Z" stroke="url(#paint1_linear_17120_113652)" stroke-opacity="0.25" stroke-width="0.75"/>
<path d="M9.9375 16.125H1.6875C1.308 16.125 1 16.433 1 16.8125V20.9375C1 21.317 1.308 21.625 1.6875 21.625H9.9375C10.317 21.625 10.625 21.317 10.625 20.9375V16.8125C10.625 16.433 10.317 16.125 9.9375 16.125Z" fill="#F8F8F8" fill-opacity="0.02"/>
<path d="M9.9375 16.125H1.6875C1.308 16.125 1 16.433 1 16.8125V20.9375C1 21.317 1.308 21.625 1.6875 21.625H9.9375C10.317 21.625 10.625 21.317 10.625 20.9375V16.8125C10.625 16.433 10.317 16.125 9.9375 16.125Z" fill="url(#paint2_linear_17120_113652)" fill-opacity="0.25"/>
<path d="M1.6875 16.5H9.9375C10.1099 16.5 10.25 16.6401 10.25 16.8125V20.9375C10.25 21.1099 10.1099 21.25 9.9375 21.25H1.6875C1.51511 21.25 1.375 21.1099 1.375 20.9375V16.8125C1.375 16.6401 1.51511 16.5 1.6875 16.5Z" stroke="url(#paint3_linear_17120_113652)" stroke-opacity="0.25" stroke-width="0.75"/>
<path d="M22.3125 16.125H14.0625C13.683 16.125 13.375 16.433 13.375 16.8125V20.9375C13.375 21.317 13.683 21.625 14.0625 21.625H22.3125C22.692 21.625 23 21.317 23 20.9375V16.8125C23 16.433 22.692 16.125 22.3125 16.125Z" fill="#13F584"/>
<path d="M6.5 12.6875H17.5V15.4375H18.875V12C18.875 11.6205 18.567 11.3125 18.1875 11.3125H12.6875V8.5625H11.3125V11.3125H5.8125C5.433 11.3125 5.125 11.6205 5.125 12V15.4375H6.5V12.6875Z" fill="#F8F8F8" fill-opacity="0.02"/>
<path d="M6.5 12.6875H17.5V15.4375H18.875V12C18.875 11.6205 18.567 11.3125 18.1875 11.3125H12.6875V8.5625H11.3125V11.3125H5.8125C5.433 11.3125 5.125 11.6205 5.125 12V15.4375H6.5V12.6875Z" fill="url(#paint4_linear_17120_113652)" fill-opacity="0.25"/>
<path d="M12.3125 8.9375V11.6875H18.1875C18.3599 11.6875 18.5 11.8276 18.5 12V15.0625H17.875V12.3125H6.125V15.0625H5.5V12C5.5 11.8276 5.64011 11.6875 5.8125 11.6875H11.6875V8.9375H12.3125Z" stroke="url(#paint5_linear_17120_113652)" stroke-opacity="0.25" stroke-width="0.75"/>
<defs>
<linearGradient id="paint0_linear_17120_113652" x1="7.1875" y1="2.375" x2="6.424" y2="12.3601" gradientUnits="userSpaceOnUse">
<stop stop-color="white" stop-opacity="0.4"/>
<stop offset="1" stop-color="white" stop-opacity="0"/>
</linearGradient>
<linearGradient id="paint1_linear_17120_113652" x1="12" y1="5.125" x2="6.03231" y2="0.841551" gradientUnits="userSpaceOnUse">
<stop stop-color="white" stop-opacity="0"/>
<stop offset="1" stop-color="white" stop-opacity="0.5"/>
</linearGradient>
<linearGradient id="paint2_linear_17120_113652" x1="1" y1="16.125" x2="0.2365" y2="26.1101" gradientUnits="userSpaceOnUse">
<stop stop-color="white" stop-opacity="0.4"/>
<stop offset="1" stop-color="white" stop-opacity="0"/>
</linearGradient>
<linearGradient id="paint3_linear_17120_113652" x1="5.8125" y1="18.875" x2="-0.15519" y2="14.5916" gradientUnits="userSpaceOnUse">
<stop stop-color="white" stop-opacity="0"/>
<stop offset="1" stop-color="white" stop-opacity="0.5"/>
</linearGradient>
<linearGradient id="paint4_linear_17120_113652" x1="5.125" y1="8.5625" x2="4.28878" y2="21.061" gradientUnits="userSpaceOnUse">
<stop stop-color="white" stop-opacity="0.4"/>
<stop offset="1" stop-color="white" stop-opacity="0"/>
</linearGradient>
<linearGradient id="paint5_linear_17120_113652" x1="12" y1="12" x2="4.27845" y2="5.66592" gradientUnits="userSpaceOnUse">
<stop stop-color="white" stop-opacity="0"/>
<stop offset="1" stop-color="white" stop-opacity="0.5"/>
</linearGradient>
</defs>
</svg>
