<svg width="24" height="24" viewBox="0 0 24 24" fill="none" xmlns="http://www.w3.org/2000/svg">
<path d="M9.14582 0.666504H2.2708C1.38625 0.666504 0.666687 1.38606 0.666687 2.27062V6.39563C0.666687 7.28035 1.38625 7.99991 2.2708 7.99991H9.14582C10.0305 7.99991 10.7501 7.28035 10.7501 6.39563V2.27062C10.7501 1.38606 10.0305 0.666504 9.14582 0.666504Z" fill="#F8F8F8" fill-opacity="0.02"/>
<path d="M9.14582 0.666504H2.2708C1.38625 0.666504 0.666687 1.38606 0.666687 2.27062V6.39563C0.666687 7.28035 1.38625 7.99991 2.2708 7.99991H9.14582C10.0305 7.99991 10.7501 7.28035 10.7501 6.39563V2.27062C10.7501 1.38606 10.0305 0.666504 9.14582 0.666504Z" fill="url(#paint0_linear_17351_40057)" fill-opacity="0.25"/>
<path d="M2.27118 1.0415H9.14618C9.82366 1.0417 10.3747 1.59369 10.3747 2.271V6.396C10.3745 7.07332 9.82351 7.62432 9.14618 7.62451H2.27118C1.59388 7.62451 1.04189 7.07347 1.04169 6.396V2.271C1.04169 1.59355 1.59373 1.0415 2.27118 1.0415Z" stroke="url(#paint1_linear_17351_40057)" stroke-opacity="0.25" stroke-width="0.75"/>
<path d="M9.14582 9.83301H2.2708C1.38625 9.83301 0.666687 10.5526 0.666687 11.4373V21.0623C0.666687 21.9469 1.38625 22.6664 2.2708 22.6664H9.14582C10.0305 22.6664 10.7501 21.9469 10.7501 21.0623V11.4373C10.7501 10.5526 10.0305 9.83301 9.14582 9.83301Z" fill="#F8F8F8" fill-opacity="0.02"/>
<path d="M9.14582 9.83301H2.2708C1.38625 9.83301 0.666687 10.5526 0.666687 11.4373V21.0623C0.666687 21.9469 1.38625 22.6664 2.2708 22.6664H9.14582C10.0305 22.6664 10.7501 21.9469 10.7501 21.0623V11.4373C10.7501 10.5526 10.0305 9.83301 9.14582 9.83301Z" fill="url(#paint2_linear_17351_40057)" fill-opacity="0.25"/>
<path d="M2.27118 10.208H9.14618C9.82363 10.2082 10.3747 10.76 10.3747 11.4375V21.0625C10.3746 21.7397 9.82359 22.2908 9.14618 22.291H2.27118C1.59379 22.291 1.04179 21.7399 1.04169 21.0625V11.4375C1.04169 10.7599 1.59376 10.208 2.27118 10.208Z" stroke="url(#paint3_linear_17351_40057)" stroke-opacity="0.25" stroke-width="0.75"/>
<path d="M21.0626 15.333H14.1876C13.3029 15.333 12.5833 16.0526 12.5833 16.9373V21.0623C12.5833 21.9469 13.3029 22.6664 14.1876 22.6664H21.0626C21.9472 22.6664 22.6667 21.9469 22.6667 21.0623V16.9373C22.6667 16.0526 21.9472 15.333 21.0626 15.333Z" fill="#13F584"/>
<path d="M21.0626 0.666504H14.1876C13.3029 0.666504 12.5833 1.38606 12.5833 2.27062V11.8956C12.5833 12.7804 13.3029 13.4999 14.1876 13.4999H21.0626C21.9472 13.4999 22.6667 12.7804 22.6667 11.8956V2.27062C22.6667 1.38606 21.9472 0.666504 21.0626 0.666504Z" fill="#F8F8F8" fill-opacity="0.02"/>
<path d="M21.0626 0.666504H14.1876C13.3029 0.666504 12.5833 1.38606 12.5833 2.27062V11.8956C12.5833 12.7804 13.3029 13.4999 14.1876 13.4999H21.0626C21.9472 13.4999 22.6667 12.7804 22.6667 11.8956V2.27062C22.6667 1.38606 21.9472 0.666504 21.0626 0.666504Z" fill="url(#paint4_linear_17351_40057)" fill-opacity="0.25"/>
<path d="M14.1878 1.0415H21.0628C21.7402 1.04161 22.2913 1.59361 22.2913 2.271V11.896C22.2911 12.5734 21.74 13.1244 21.0628 13.1245H14.1878C13.5103 13.1245 12.9585 12.5734 12.9583 11.896V2.271C12.9583 1.59357 13.5102 1.0415 14.1878 1.0415Z" stroke="url(#paint5_linear_17351_40057)" stroke-opacity="0.25" stroke-width="0.75"/>
<defs>
<linearGradient id="paint0_linear_17351_40057" x1="0.666687" y1="0.666504" x2="-0.624314" y2="13.9324" gradientUnits="userSpaceOnUse">
<stop stop-color="white" stop-opacity="0.4"/>
<stop offset="1" stop-color="white" stop-opacity="0"/>
</linearGradient>
<linearGradient id="paint1_linear_17351_40057" x1="5.70839" y1="4.33321" x2="-1.47863" y2="0.279987" gradientUnits="userSpaceOnUse">
<stop stop-color="white" stop-opacity="0"/>
<stop offset="1" stop-color="white" stop-opacity="0.5"/>
</linearGradient>
<linearGradient id="paint2_linear_17351_40057" x1="0.666687" y1="9.83301" x2="-3.21193" y2="32.6075" gradientUnits="userSpaceOnUse">
<stop stop-color="white" stop-opacity="0.4"/>
<stop offset="1" stop-color="white" stop-opacity="0"/>
</linearGradient>
<linearGradient id="paint3_linear_17351_40057" x1="5.70839" y1="16.2497" x2="-2.87325" y2="13.4841" gradientUnits="userSpaceOnUse">
<stop stop-color="white" stop-opacity="0"/>
<stop offset="1" stop-color="white" stop-opacity="0.5"/>
</linearGradient>
<linearGradient id="paint4_linear_17351_40057" x1="12.5833" y1="0.666504" x2="8.7047" y2="23.441" gradientUnits="userSpaceOnUse">
<stop stop-color="white" stop-opacity="0.4"/>
<stop offset="1" stop-color="white" stop-opacity="0"/>
</linearGradient>
<linearGradient id="paint5_linear_17351_40057" x1="17.625" y1="7.08321" x2="9.04337" y2="4.31764" gradientUnits="userSpaceOnUse">
<stop stop-color="white" stop-opacity="0"/>
<stop offset="1" stop-color="white" stop-opacity="0.5"/>
</linearGradient>
</defs>
</svg>
