<svg width="24" height="24" viewBox="0 0 24 24" fill="none" xmlns="http://www.w3.org/2000/svg">
<path d="M9.74988 12C9.74988 11.4033 9.98693 10.831 10.4089 10.409C10.8308 9.98705 11.4031 9.75 11.9999 9.75C12.5966 9.75 13.1689 9.98705 13.5909 10.409C14.0128 10.831 14.2499 11.4033 14.2499 12C14.2499 12.5967 14.0128 13.169 13.5909 13.591C13.1689 14.0129 12.5966 14.25 11.9999 14.25C11.4031 14.25 10.8308 14.0129 10.4089 13.591C9.98693 13.169 9.74988 12.5967 9.74988 12Z" fill="#919EAB"/>
<path fill-rule="evenodd" clip-rule="evenodd" d="M1.99988 12C1.99988 13.64 2.42488 14.191 3.27488 15.296C4.97188 17.5 7.81788 20 11.9999 20C16.1819 20 19.0279 17.5 20.7249 15.296C21.5749 14.192 21.9999 13.639 21.9999 12C21.9999 10.36 21.5749 9.809 20.7249 8.704C19.0279 6.5 16.1819 4 11.9999 4C7.81788 4 4.97188 6.5 3.27488 8.704C2.42488 9.81 1.99988 10.361 1.99988 12ZM11.9999 8.25C11.0053 8.25 10.0515 8.64509 9.34823 9.34835C8.64497 10.0516 8.24988 11.0054 8.24988 12C8.24988 12.9946 8.64497 13.9484 9.34823 14.6517C10.0515 15.3549 11.0053 15.75 11.9999 15.75C12.9944 15.75 13.9483 15.3549 14.6515 14.6517C15.3548 13.9484 15.7499 12.9946 15.7499 12C15.7499 11.0054 15.3548 10.0516 14.6515 9.34835C13.9483 8.64509 12.9944 8.25 11.9999 8.25Z" fill="#919EAB"/>
</svg>
