<svg width="24" height="24" viewBox="0 0 24 24" fill="none" xmlns="http://www.w3.org/2000/svg">
<path d="M14.0625 1H3.52093C2.12761 1 1.00012 2.12749 1.00012 3.52081V17.729C1.00012 19.1223 2.12761 20.2498 3.52093 20.2498H10.9825C10.1759 19.1498 9.70836 17.8115 9.70836 16.354C9.70836 12.6874 12.6875 9.70824 16.3541 9.70824C16.4275 9.70824 16.51 9.70824 16.5833 9.71741V3.52081C16.5833 2.12749 15.4558 1 14.0625 1ZM4.66675 4.66663H8.33338C8.83754 4.66663 9.25003 5.07912 9.25003 5.58328C9.25003 6.08745 8.83754 6.49994 8.33338 6.49994H4.66675C4.16259 6.49994 3.75009 6.08745 3.75009 5.58328C3.75009 5.07912 4.16259 4.66663 4.66675 4.66663ZM9.25003 13.8332H4.66675C4.16259 13.8332 3.75009 13.4207 3.75009 12.9165C3.75009 12.4124 4.16259 11.9999 4.66675 11.9999H9.25003C9.7542 11.9999 10.1667 12.4124 10.1667 12.9165C10.1667 13.4207 9.7542 13.8332 9.25003 13.8332ZM12.9167 10.1666H4.66675C4.16259 10.1666 3.75009 9.75407 3.75009 9.24991C3.75009 8.74575 4.16259 8.33325 4.66675 8.33325H12.9167C13.4208 8.33325 13.8333 8.74575 13.8333 9.24991C13.8333 9.75407 13.4208 10.1666 12.9167 10.1666Z" fill="#F8F8F8" fill-opacity="0.02"/>
<path d="M14.0625 1H3.52093C2.12761 1 1.00012 2.12749 1.00012 3.52081V17.729C1.00012 19.1223 2.12761 20.2498 3.52093 20.2498H10.9825C10.1759 19.1498 9.70836 17.8115 9.70836 16.354C9.70836 12.6874 12.6875 9.70824 16.3541 9.70824C16.4275 9.70824 16.51 9.70824 16.5833 9.71741V3.52081C16.5833 2.12749 15.4558 1 14.0625 1ZM4.66675 4.66663H8.33338C8.83754 4.66663 9.25003 5.07912 9.25003 5.58328C9.25003 6.08745 8.83754 6.49994 8.33338 6.49994H4.66675C4.16259 6.49994 3.75009 6.08745 3.75009 5.58328C3.75009 5.07912 4.16259 4.66663 4.66675 4.66663ZM9.25003 13.8332H4.66675C4.16259 13.8332 3.75009 13.4207 3.75009 12.9165C3.75009 12.4124 4.16259 11.9999 4.66675 11.9999H9.25003C9.7542 11.9999 10.1667 12.4124 10.1667 12.9165C10.1667 13.4207 9.7542 13.8332 9.25003 13.8332ZM12.9167 10.1666H4.66675C4.16259 10.1666 3.75009 9.75407 3.75009 9.24991C3.75009 8.74575 4.16259 8.33325 4.66675 8.33325H12.9167C13.4208 8.33325 13.8333 8.74575 13.8333 9.24991C13.8333 9.75407 13.4208 10.1666 12.9167 10.1666Z" fill="url(#paint0_linear_17120_111971)" fill-opacity="0.25"/>
<path d="M3.52063 1.375H14.0626C15.2487 1.37508 16.208 2.33448 16.2081 3.52051V9.33691C15.4817 9.35178 14.7825 9.4763 14.1261 9.69629C14.1778 9.55686 14.2081 9.40702 14.2081 9.25C14.2081 8.53888 13.6282 7.95825 12.9171 7.95801H4.66711C3.95585 7.95801 3.37512 8.53873 3.37512 9.25C3.37517 9.96123 3.95588 10.542 4.66711 10.542H12.4181C11.6478 11.065 10.987 11.7372 10.4767 12.5166C10.3075 12.0002 9.82172 11.625 9.25012 11.625H4.66711C3.95585 11.625 3.37512 12.2057 3.37512 12.917C3.37537 13.6281 3.956 14.208 4.66711 14.208H9.25012C9.40714 14.208 9.55698 14.1777 9.69641 14.126C9.46177 14.8262 9.33318 15.575 9.33313 16.3535C9.33313 17.6389 9.67853 18.8378 10.2882 19.875H3.52063C2.33456 19.8748 1.37512 18.9146 1.37512 17.7285V3.52051C1.37528 2.33453 2.33466 1.37516 3.52063 1.375ZM4.66711 4.29199C3.95594 4.29199 3.37527 4.87187 3.37512 5.58301C3.37512 6.29428 3.95585 6.875 4.66711 6.875H8.33313C9.0444 6.875 9.62512 6.29428 9.62512 5.58301C9.62497 4.87187 9.04431 4.29199 8.33313 4.29199H4.66711Z" stroke="url(#paint1_linear_17120_111971)" stroke-opacity="0.25" stroke-width="0.75"/>
<path d="M16.3541 21.1666C13.7004 21.1666 11.5417 19.0079 11.5417 16.3542C11.5417 13.7005 13.7004 11.5417 16.3541 11.5417C19.0079 11.5417 21.1666 13.7005 21.1666 16.3542C21.1666 19.0079 19.0079 21.1666 16.3541 21.1666ZM16.3541 13.3751C14.7115 13.3751 13.375 14.7115 13.375 16.3542C13.375 17.9968 14.7115 19.3333 16.3541 19.3333C17.9968 19.3333 19.3333 17.9968 19.3333 16.3542C19.3333 14.7115 17.9968 13.3751 16.3541 13.3751Z" fill="#13F584"/>
<path d="M22.0832 22.9999C21.8486 22.9999 21.6139 22.9101 21.4351 22.7314L18.456 19.7522C18.0976 19.3938 18.0976 18.8145 18.456 18.4561C18.8144 18.0977 19.3937 18.0977 19.7522 18.4561L22.7313 21.4352C23.0897 21.7936 23.0897 22.3729 22.7313 22.7314C22.5525 22.9101 22.3179 22.9999 22.0832 22.9999Z" fill="#13F584"/>
<defs>
<linearGradient id="paint0_linear_17120_111971" x1="1.00012" y1="1" x2="-4.65583" y2="35.217" gradientUnits="userSpaceOnUse">
<stop stop-color="white" stop-opacity="0.4"/>
<stop offset="1" stop-color="white" stop-opacity="0"/>
</linearGradient>
<linearGradient id="paint1_linear_17120_111971" x1="8.79171" y1="10.6249" x2="-4.39427" y2="6.24674" gradientUnits="userSpaceOnUse">
<stop stop-color="white" stop-opacity="0"/>
<stop offset="1" stop-color="white" stop-opacity="0.5"/>
</linearGradient>
</defs>
</svg>
