<svg width="1440" height="1080" viewBox="0 0 1440 1080" fill="none" xmlns="http://www.w3.org/2000/svg">
<g clip-path="url(#clip0_15291_253868)">
<g opacity="0.4" filter="url(#filter0_f_15291_253868)">
<path style="mix-blend-mode:lighten" d="M699.073 695.561C795.254 695.561 873.225 498.566 873.225 255.561C873.225 12.5551 795.254 -184.44 699.073 -184.44C602.891 -184.44 524.921 12.5551 524.921 255.561C524.921 498.566 602.891 695.561 699.073 695.561Z" fill="url(#paint0_radial_15291_253868)"/>
<path style="mix-blend-mode:lighten" d="M699.073 695.561C755.742 695.561 801.681 498.566 801.681 255.561C801.681 12.5551 755.742 -184.44 699.073 -184.44C642.404 -184.44 596.465 12.5551 596.465 255.561C596.465 498.566 642.404 695.561 699.073 695.561Z" fill="url(#paint1_radial_15291_253868)"/>
<path style="mix-blend-mode:lighten" d="M902.549 672.327C957.678 659.192 956.82 456.901 900.632 220.497C844.443 -15.9071 754.203 -196.903 699.073 -183.768C643.944 -170.633 644.802 31.6582 700.991 268.062C757.179 504.466 847.42 685.462 902.549 672.327Z" fill="url(#paint2_radial_15291_253868)"/>
<path style="mix-blend-mode:lighten" d="M697.155 268.063C753.344 31.6589 754.202 -170.632 699.073 -183.767C643.943 -196.902 553.702 -15.9067 497.514 220.497C441.325 456.901 440.467 659.192 495.596 672.327C550.725 685.462 640.967 504.467 697.155 268.063Z" fill="url(#paint3_radial_15291_253868)"/>
<path style="mix-blend-mode:lighten" d="M596.465 249.896C504.282 474.691 400.763 645.091 365.249 630.492C329.736 615.893 375.675 421.826 467.857 197.029C560.04 -27.7669 663.559 -198.165 699.073 -183.567C734.587 -168.969 688.648 25.0988 596.465 249.896Z" fill="url(#paint4_radial_15291_253868)"/>
<path style="mix-blend-mode:lighten" d="M1032.9 630.492C1068.41 615.893 1022.47 421.826 930.288 197.029C838.105 -27.7667 734.587 -198.166 699.073 -183.567C663.559 -168.968 709.498 25.0993 801.681 249.895C893.864 474.692 997.382 645.09 1032.9 630.492Z" fill="url(#paint5_radial_15291_253868)"/>
<path style="mix-blend-mode:lighten" d="M720 635.848C1109.91 635.848 1426 602.028 1426 560.31C1426 518.592 1109.91 484.772 720 484.772C330.087 484.772 14 518.592 14 560.31C14 602.028 330.087 635.848 720 635.848Z" fill="url(#paint6_radial_15291_253868)"/>
</g>
<g style="mix-blend-mode:lighten" opacity="0.4" filter="url(#filter1_f_15291_253868)">
<path d="M716.573 338C849.397 338 957.073 185.329 957.073 -2.99997C957.073 -191.329 849.397 -344 716.573 -344C583.748 -344 476.073 -191.329 476.073 -2.99997C476.073 185.329 583.748 338 716.573 338Z" fill="url(#paint7_radial_15291_253868)" style="mix-blend-mode:lighten"/>
</g>
</g>
<defs>
<filter id="filter0_f_15291_253868" x="-150" y="-348.44" width="1740" height="1208" filterUnits="userSpaceOnUse" color-interpolation-filters="sRGB">
<feFlood flood-opacity="0" result="BackgroundImageFix"/>
<feBlend mode="normal" in="SourceGraphic" in2="BackgroundImageFix" result="shape"/>
<feGaussianBlur stdDeviation="82" result="effect1_foregroundBlur_15291_253868"/>
</filter>
<filter id="filter1_f_15291_253868" x="312.073" y="-508" width="809" height="1010" filterUnits="userSpaceOnUse" color-interpolation-filters="sRGB">
<feFlood flood-opacity="0" result="BackgroundImageFix"/>
<feBlend mode="normal" in="SourceGraphic" in2="BackgroundImageFix" result="shape"/>
<feGaussianBlur stdDeviation="82" result="effect1_foregroundBlur_15291_253868"/>
</filter>
<radialGradient id="paint0_radial_15291_253868" cx="0" cy="0" r="1" gradientUnits="userSpaceOnUse" gradientTransform="translate(699.073 255.561) scale(174.157 439.988)">
<stop stop-color="#5BE49B"/>
<stop offset="1" stop-color="white" stop-opacity="0"/>
</radialGradient>
<radialGradient id="paint1_radial_15291_253868" cx="0" cy="0" r="1" gradientUnits="userSpaceOnUse" gradientTransform="translate(699 233.56) rotate(91.2394) scale(416.097 97.0337)">
<stop stop-color="#5BE49B"/>
<stop offset="1" stop-color="#5BE49B" stop-opacity="0"/>
</radialGradient>
<radialGradient id="paint2_radial_15291_253868" cx="0" cy="0" r="1" gradientTransform="matrix(99.8084 -23.8069 101.747 428.065 800.758 244.258)" gradientUnits="userSpaceOnUse">
<stop stop-color="#13F584"/>
<stop offset="1" stop-color="#13F584" stop-opacity="0"/>
</radialGradient>
<radialGradient id="paint3_radial_15291_253868" cx="0" cy="0" r="1" gradientTransform="matrix(-99.8083 -23.807 -101.743 428.066 597.238 244.328)" gradientUnits="userSpaceOnUse">
<stop stop-color="#13F584"/>
<stop offset="1" stop-color="#13F584" stop-opacity="0"/>
</radialGradient>
<radialGradient id="paint4_radial_15291_253868" cx="0" cy="0" r="1" gradientTransform="matrix(64.2956 26.4445 -166.914 407.052 532.161 223.463)" gradientUnits="userSpaceOnUse">
<stop stop-color="#13F584"/>
<stop offset="1" stop-color="#13F584" stop-opacity="0"/>
</radialGradient>
<radialGradient id="paint5_radial_15291_253868" cx="0" cy="0" r="1" gradientTransform="matrix(-64.2942 26.4434 166.912 407.052 865.915 223.523)" gradientUnits="userSpaceOnUse">
<stop stop-color="#13F584"/>
<stop offset="1" stop-color="#13F584" stop-opacity="0"/>
</radialGradient>
<radialGradient id="paint6_radial_15291_253868" cx="0" cy="0" r="1" gradientUnits="userSpaceOnUse" gradientTransform="translate(720 560.31) scale(706.042 75.5331)">
<stop stop-color="#0C9551"/>
<stop offset="1" stop-color="#13F584" stop-opacity="0"/>
</radialGradient>
<radialGradient id="paint7_radial_15291_253868" cx="0" cy="0" r="1" gradientTransform="matrix(-21.0949 322.4 -227.382 -1.62657 716.403 -20.0501)" gradientUnits="userSpaceOnUse">
<stop stop-color="#5BE49B"/>
<stop offset="1" stop-color="#5BE49B" stop-opacity="0"/>
</radialGradient>
<clipPath id="clip0_15291_253868">
<rect width="1440" height="1080" fill="white"/>
</clipPath>
</defs>
</svg>
