<svg width="25" height="24" viewBox="0 0 25 24" fill="none" xmlns="http://www.w3.org/2000/svg">
<path d="M19.844 22.7314C20.0498 22.7314 20.2528 22.8097 20.4073 22.9589C21.3947 23.9124 22.835 24.2298 24.1153 23.8325C23.2913 22.1158 23.1771 20.1491 23.8157 18.3282C24.6082 16.0625 24.8068 13.7917 23.9049 11.5142C23.1125 9.51344 21.5835 7.8512 19.6483 6.90332C19.7674 7.53801 19.8274 8.18471 19.8274 8.83823C19.8274 11.6122 18.7607 14.2212 16.824 16.1847C14.887 18.1484 12.2905 19.2526 9.51282 19.2939C8.99676 19.3019 8.48302 19.2716 7.9751 19.2046C9.50165 21.8804 12.3807 23.6232 15.5444 23.6701C16.9284 23.6915 18.2573 23.4015 19.4948 22.8106C19.6062 22.7573 19.7256 22.7314 19.844 22.7314Z" fill="#13F584"/>
<path d="M9.53549 0.00176341C4.60801 -0.0960782 0.511908 3.89018 0.500027 8.81659C0.497116 10.0202 0.732066 11.1872 1.1984 12.2852C1.20518 12.3012 1.21147 12.3174 1.21718 12.3338C1.85573 14.1548 1.74161 16.1214 0.917532 17.8381C2.19803 18.2353 3.63815 17.918 4.62559 16.9645C4.86886 16.7295 5.23284 16.6703 5.53807 16.8162C6.77543 17.4072 8.10446 17.698 9.48838 17.6758C14.3773 17.6032 18.2069 13.7213 18.2069 8.83834C18.2069 4.06192 14.3169 0.0978822 9.53549 0.00176341ZM4.63094 10.1583C3.923 10.1583 3.34908 9.58537 3.34908 8.87861C3.34908 8.17186 3.923 7.59889 4.63094 7.59889C5.33888 7.59889 5.9128 8.17186 5.9128 8.87861C5.91274 9.58537 5.33888 10.1583 4.63094 10.1583ZM9.35347 10.1583C8.64553 10.1583 8.07161 9.58537 8.07161 8.87861C8.07161 8.17186 8.64553 7.59889 9.35347 7.59889C10.0614 7.59889 10.6353 8.17186 10.6353 8.87861C10.6353 9.58537 10.0614 10.1583 9.35347 10.1583ZM14.0761 10.1583C13.3681 10.1583 12.7942 9.58537 12.7942 8.87861C12.7942 8.17186 13.3681 7.59889 14.0761 7.59889C14.784 7.59889 15.3579 8.17186 15.3579 8.87861C15.3579 9.58537 14.784 10.1583 14.0761 10.1583Z" fill="#F8F8F8" fill-opacity="0.02"/>
<path d="M9.53549 0.00176341C4.60801 -0.0960782 0.511908 3.89018 0.500027 8.81659C0.497116 10.0202 0.732066 11.1872 1.1984 12.2852C1.20518 12.3012 1.21147 12.3174 1.21718 12.3338C1.85573 14.1548 1.74161 16.1214 0.917532 17.8381C2.19803 18.2353 3.63815 17.918 4.62559 16.9645C4.86886 16.7295 5.23284 16.6703 5.53807 16.8162C6.77543 17.4072 8.10446 17.698 9.48838 17.6758C14.3773 17.6032 18.2069 13.7213 18.2069 8.83834C18.2069 4.06192 14.3169 0.0978822 9.53549 0.00176341ZM4.63094 10.1583C3.923 10.1583 3.34908 9.58537 3.34908 8.87861C3.34908 8.17186 3.923 7.59889 4.63094 7.59889C5.33888 7.59889 5.9128 8.17186 5.9128 8.87861C5.91274 9.58537 5.33888 10.1583 4.63094 10.1583ZM9.35347 10.1583C8.64553 10.1583 8.07161 9.58537 8.07161 8.87861C8.07161 8.17186 8.64553 7.59889 9.35347 7.59889C10.0614 7.59889 10.6353 8.17186 10.6353 8.87861C10.6353 9.58537 10.0614 10.1583 9.35347 10.1583ZM14.0761 10.1583C13.3681 10.1583 12.7942 9.58537 12.7942 8.87861C12.7942 8.17186 13.3681 7.59889 14.0761 7.59889C14.784 7.59889 15.3579 8.17186 15.3579 8.87861C15.3579 9.58537 14.784 10.1583 14.0761 10.1583Z" fill="url(#paint0_linear_17436_39796)" fill-opacity="0.25"/>
<defs>
<linearGradient id="paint0_linear_17436_39796" x1="0.5" y1="0" x2="-3.89252" y2="32.2819" gradientUnits="userSpaceOnUse">
<stop stop-color="white" stop-opacity="0.4"/>
<stop offset="1" stop-color="white" stop-opacity="0"/>
</linearGradient>
</defs>
</svg>
