<svg width="25" height="24" viewBox="0 0 25 24" fill="none" xmlns="http://www.w3.org/2000/svg">
<g clip-path="url(#clip0_17436_39782)">
<path d="M20.1798 12.3954C20.1798 11.9154 19.8128 11.5483 19.3328 11.5483C18.8528 11.5483 18.4857 11.9154 18.4857 12.3954C18.4857 15.6989 15.8034 18.3813 12.4998 18.3813C9.1963 18.3813 6.51394 15.6989 6.51394 12.3954C6.51394 11.9154 6.14688 11.5483 5.66688 11.5483C5.18688 11.5483 4.81982 11.9154 4.81982 12.3954C4.81982 16.3201 7.7563 19.6236 11.6528 20.0472V22.306H8.57512C8.09512 22.306 7.72806 22.673 7.72806 23.153C7.72806 23.633 8.09512 24.0001 8.57512 24.0001H16.4245C16.9045 24.0001 17.2716 23.633 17.2716 23.153C17.2716 22.673 16.9045 22.306 16.4245 22.306H13.3469V20.0472C17.2434 19.6236 20.1798 16.3201 20.1798 12.3954Z" fill="#13F584"/>
<path d="M12.5 0C9.90232 0 7.78467 2.11765 7.78467 4.71529V12.3671C7.78467 14.9929 9.90232 17.0824 12.5 17.1106C15.0976 17.1106 17.2153 14.9929 17.2153 12.3953V4.71529C17.2153 2.11765 15.0976 0 12.5 0Z" fill="#F8F8F8" fill-opacity="0.02"/>
<path d="M12.5 0C9.90232 0 7.78467 2.11765 7.78467 4.71529V12.3671C7.78467 14.9929 9.90232 17.0824 12.5 17.1106C15.0976 17.1106 17.2153 14.9929 17.2153 12.3953V4.71529C17.2153 2.11765 15.0976 0 12.5 0Z" fill="url(#paint0_linear_17436_39782)" fill-opacity="0.25"/>
</g>
<defs>
<linearGradient id="paint0_linear_17436_39782" x1="7.78467" y1="0" x2="0.621019" y2="29.5063" gradientUnits="userSpaceOnUse">
<stop stop-color="white" stop-opacity="0.4"/>
<stop offset="1" stop-color="white" stop-opacity="0"/>
</linearGradient>
<clipPath id="clip0_17436_39782">
<rect width="24" height="24" fill="white" transform="translate(0.5)"/>
</clipPath>
</defs>
</svg>
