<svg width="24" height="17" viewBox="0 0 24 17" fill="none" xmlns="http://www.w3.org/2000/svg">
<path fill-rule="evenodd" clip-rule="evenodd" d="M8.59273 16.5L8.42248 16.3305C7.68823 15.5978 7.68673 14.4075 8.41948 13.6725C8.88148 13.2097 9.52573 13.038 10.1227 13.1587L10.1205 11.2523C10.1197 10.215 10.9605 9.372 11.9977 9.3705C13.035 9.36975 13.878 10.2105 13.8795 11.2477L13.8817 13.1572C14.4757 13.0395 15.1162 13.2097 15.5775 13.6695C16.3117 14.4022 16.3132 15.5925 15.5805 16.3275L15.408 16.5H18.75C21.2332 16.5 23.25 14.4833 23.25 12C23.25 8.76 20.8012 7.8495 19.4467 7.59825C19.482 7.32075 19.5 7.03725 19.5 6.75C19.5 3.02475 16.4752 0 12.75 0C9.53398 0 6.84073 2.25375 6.16423 5.26575C3.16273 5.37975 0.76123 7.85175 0.76123 10.881C0.76123 13.9822 3.27973 16.5 6.38098 16.5H8.59273Z" fill="#F8F8F8" fill-opacity="0.02"/>
<path fill-rule="evenodd" clip-rule="evenodd" d="M8.59273 16.5L8.42248 16.3305C7.68823 15.5978 7.68673 14.4075 8.41948 13.6725C8.88148 13.2097 9.52573 13.038 10.1227 13.1587L10.1205 11.2523C10.1197 10.215 10.9605 9.372 11.9977 9.3705C13.035 9.36975 13.878 10.2105 13.8795 11.2477L13.8817 13.1572C14.4757 13.0395 15.1162 13.2097 15.5775 13.6695C16.3117 14.4022 16.3132 15.5925 15.5805 16.3275L15.408 16.5H18.75C21.2332 16.5 23.25 14.4833 23.25 12C23.25 8.76 20.8012 7.8495 19.4467 7.59825C19.482 7.32075 19.5 7.03725 19.5 6.75C19.5 3.02475 16.4752 0 12.75 0C9.53398 0 6.84073 2.25375 6.16423 5.26575C3.16273 5.37975 0.76123 7.85175 0.76123 10.881C0.76123 13.9822 3.27973 16.5 6.38098 16.5H8.59273Z" fill="url(#paint0_linear_17377_10829)" fill-opacity="0.25"/>
<path d="M12.7495 0.554688C16.1686 0.554688 18.9458 3.33091 18.9458 6.75C18.9458 7.01409 18.9292 7.27424 18.897 7.52832L18.8306 8.04785L19.3452 8.14355C19.9744 8.26026 20.8193 8.52428 21.4976 9.10059C22.1539 9.65825 22.6958 10.5411 22.6958 12C22.6958 14.1771 20.9266 15.9453 18.7495 15.9453H16.4917C16.834 15.1322 16.7161 14.1716 16.1362 13.4619L15.9692 13.2773L15.854 13.1699C15.4449 12.811 14.9445 12.6129 14.4351 12.5742L14.4341 11.2471L14.4214 10.998C14.2949 9.77169 13.2566 8.81561 11.9976 8.81641H11.9966C10.6533 8.81854 9.56495 9.90996 9.56592 11.2529L9.56787 12.5742C9.05547 12.6123 8.55223 12.8115 8.14209 13.1729L8.02686 13.2812C7.30798 14.0024 7.13619 15.0614 7.5083 15.9453H6.38135C3.58616 15.9453 1.31592 13.6759 1.31592 10.8809C1.31599 8.15093 3.48023 5.92217 6.18506 5.81934L6.61182 5.80371L6.70557 5.3877C7.32647 2.62323 9.79883 0.554907 12.7495 0.554688Z" stroke="url(#paint1_linear_17377_10829)" stroke-opacity="0.25" stroke-width="1.1087"/>
<defs>
<linearGradient id="paint0_linear_17377_10829" x1="0.76123" y1="0" x2="-2.16867" y2="29.8429" gradientUnits="userSpaceOnUse">
<stop stop-color="white" stop-opacity="0.4"/>
<stop offset="1" stop-color="white" stop-opacity="0"/>
</linearGradient>
<linearGradient id="paint1_linear_17377_10829" x1="12.0056" y1="8.25" x2="-4.09115" y2="-0.74848" gradientUnits="userSpaceOnUse">
<stop stop-color="white" stop-opacity="0"/>
<stop offset="1" stop-color="white" stop-opacity="0.5"/>
</linearGradient>
</defs>
</svg>
