<svg width="20" height="20" viewBox="0 0 20 20" fill="none" xmlns="http://www.w3.org/2000/svg">
<path d="M9.1998 16.4008C9.1998 16.613 9.28409 16.8164 9.43412 16.9665C9.58415 17.1165 9.78763 17.2008 9.9998 17.2008C10.212 17.2008 10.4155 17.1165 10.5655 16.9665C10.7155 16.8164 10.7998 16.613 10.7998 16.4008V10.8008H16.3998C16.612 10.8008 16.8155 10.7165 16.9655 10.5665C17.1155 10.4164 17.1998 10.213 17.1998 10.0008C17.1998 9.78861 17.1155 9.58513 16.9655 9.4351C16.8155 9.28507 16.612 9.20078 16.3998 9.20078H10.7998V3.60078C10.7998 3.38861 10.7155 3.18512 10.5655 3.0351C10.4155 2.88507 10.212 2.80078 9.9998 2.80078C9.78763 2.80078 9.58415 2.88507 9.43412 3.0351C9.28409 3.18512 9.1998 3.38861 9.1998 3.60078V9.20078H3.5998C3.38763 9.20078 3.18415 9.28507 3.03412 9.4351C2.88409 9.58513 2.7998 9.78861 2.7998 10.0008C2.7998 10.213 2.88409 10.4164 3.03412 10.5665C3.18415 10.7165 3.38763 10.8008 3.5998 10.8008H9.1998V16.4008Z" fill="white"/>
</svg>
