<svg width="24" height="24" viewBox="0 0 24 24" fill="none" xmlns="http://www.w3.org/2000/svg">
<path fill-rule="evenodd" clip-rule="evenodd" d="M10.1111 2C9.37473 2 8.77778 2.59695 8.77778 3.33333C8.77778 3.70152 8.4793 4 8.11111 4H8H5C4.44772 4 4 4.44772 4 5C4 5.55228 4.44772 6 5 6H8H8.11111H15.8873H15.8889H16H19C19.5523 6 20 5.55228 20 5C20 4.44772 19.5523 4 19 4H15.8881C15.5203 3.99956 15.2222 3.70126 15.2222 3.33333C15.2222 2.59695 14.6253 2 13.8889 2H10.1111Z" fill="#13F584"/>
<path fill-rule="evenodd" clip-rule="evenodd" d="M6 8C5.72035 8 5.45348 8.1171 5.26412 8.32289C5.07477 8.52868 4.98023 8.80436 5.00346 9.08305L5.77422 18.3322C5.94698 20.4054 7.68005 22 9.7604 22H14.2396C16.32 22 18.053 20.4054 18.2258 18.3322L18.9965 9.08305C19.0198 8.80436 18.9252 8.52868 18.7359 8.32289C18.5465 8.1171 18.2797 8 18 8H6Z" fill="#F8F8F8" fill-opacity="0.02"/>
<path fill-rule="evenodd" clip-rule="evenodd" d="M6 8C5.72035 8 5.45348 8.1171 5.26412 8.32289C5.07477 8.52868 4.98023 8.80436 5.00346 9.08305L5.77422 18.3322C5.94698 20.4054 7.68005 22 9.7604 22H14.2396C16.32 22 18.053 20.4054 18.2258 18.3322L18.9965 9.08305C19.0198 8.80436 18.9252 8.52868 18.7359 8.32289C18.5465 8.1171 18.2797 8 18 8H6Z" fill="url(#paint0_linear_17121_130141)" fill-opacity="0.25"/>
<path d="M6 8.38477H18C18.1722 8.38477 18.3365 8.45631 18.4531 8.58301C18.5697 8.70971 18.6275 8.87941 18.6133 9.05078L17.8428 18.2998C17.6866 20.1738 16.1198 21.6152 14.2393 21.6152H9.76074C7.88028 21.6152 6.31339 20.1738 6.15723 18.2998L5.38672 9.05078C5.37252 8.87932 5.43037 8.70963 5.54688 8.58301C5.66346 8.45633 5.82785 8.38477 6 8.38477Z" stroke="url(#paint1_linear_17121_130141)" stroke-opacity="0.25" stroke-width="0.768696"/>
<defs>
<linearGradient id="paint0_linear_17121_130141" x1="5" y1="8" x2="1.63924" y2="33.1156" gradientUnits="userSpaceOnUse">
<stop stop-color="white" stop-opacity="0.4"/>
<stop offset="1" stop-color="white" stop-opacity="0"/>
</linearGradient>
<linearGradient id="paint1_linear_17121_130141" x1="12" y1="15" x2="0.741632" y2="10.3823" gradientUnits="userSpaceOnUse">
<stop stop-color="white" stop-opacity="0"/>
<stop offset="1" stop-color="white" stop-opacity="0.5"/>
</linearGradient>
</defs>
</svg>
