<svg width="24" height="24" viewBox="0 0 24 24" fill="none" xmlns="http://www.w3.org/2000/svg">
<path d="M12.7134 14.8083C12.55 14.9715 12.3482 15.0963 12.1294 15.1692L10.0163 15.8736C9.86381 15.9244 9.70477 15.9503 9.54387 15.9503C9.14473 15.9503 8.76951 15.7948 8.48731 15.5126C8.08453 15.1097 7.94627 14.5239 8.12639 13.9836L8.83076 11.8706C8.90365 11.6518 9.02849 11.4497 9.19168 11.2866L13.7556 6.72266H4.82617C3.81922 6.72266 3 7.54188 3 8.54883V19.1738C3 20.1808 3.81922 21 4.82617 21H15.4512C16.4581 21 17.2773 20.1808 17.2773 19.1738V10.2444L12.7134 14.8083Z" fill="#F8F8F8" fill-opacity="0.02"/>
<path d="M12.7134 14.8083C12.55 14.9715 12.3482 15.0963 12.1294 15.1692L10.0163 15.8736C9.86381 15.9244 9.70477 15.9503 9.54387 15.9503C9.14473 15.9503 8.76951 15.7948 8.48731 15.5126C8.08453 15.1097 7.94627 14.5239 8.12639 13.9836L8.83076 11.8706C8.90365 11.6518 9.02849 11.4497 9.19168 11.2866L13.7556 6.72266H4.82617C3.81922 6.72266 3 7.54188 3 8.54883V19.1738C3 20.1808 3.81922 21 4.82617 21H15.4512C16.4581 21 17.2773 20.1808 17.2773 19.1738V10.2444L12.7134 14.8083Z" fill="url(#paint0_linear_17121_130111)" fill-opacity="0.25"/>
<path d="M4.82617 7.1543H12.7129L8.88672 10.9814C8.67612 11.192 8.515 11.4518 8.4209 11.7344L7.7168 13.8467C7.48492 14.5422 7.66321 15.2998 8.18164 15.8184C8.54484 16.1816 9.03029 16.3818 9.54395 16.3818C9.75127 16.3818 9.95677 16.3488 10.1533 16.2832L12.2656 15.5791C12.5479 15.485 12.8079 15.3247 13.0186 15.1143V15.1133L16.8457 11.2861V19.1738C16.8457 19.9422 16.2196 20.5684 15.4512 20.5684H4.82617C4.05777 20.5684 3.43164 19.9422 3.43164 19.1738V8.54883C3.43164 7.78043 4.05777 7.1543 4.82617 7.1543Z" stroke="url(#paint1_linear_17121_130111)" stroke-opacity="0.25" stroke-width="0.863861"/>
<path d="M9.89614 11.9912C9.84146 12.0459 9.80028 12.1126 9.77585 12.1859L9.07148 14.2989C9.01181 14.4779 9.05839 14.6752 9.19177 14.8086C9.32518 14.942 9.52247 14.9886 9.70144 14.9289L11.8145 14.2245C11.8879 14.2001 11.9545 14.1589 12.0092 14.1042L18.2309 7.88254L16.1179 5.76953L9.89614 11.9912Z" fill="#13F584"/>
<path d="M18.8179 4.24312C18.4937 3.91896 17.9682 3.91896 17.644 4.24312L16.8223 5.06487L18.9353 7.17791L19.7571 6.35617C20.0812 6.03201 20.0812 5.50643 19.7571 5.18227L18.8179 4.24312Z" fill="#13F584"/>
<defs>
<linearGradient id="paint0_linear_17121_130111" x1="3" y1="-31.3514" x2="-34.8033" y2="45.6972" gradientUnits="userSpaceOnUse">
<stop stop-color="white" stop-opacity="0.4"/>
<stop offset="1" stop-color="white" stop-opacity="0"/>
</linearGradient>
<linearGradient id="paint1_linear_17121_130111" x1="10.1387" y1="-5.17629" x2="-3.10846" y2="-6.65812" gradientUnits="userSpaceOnUse">
<stop stop-color="white" stop-opacity="0"/>
<stop offset="1" stop-color="white" stop-opacity="0.5"/>
</linearGradient>
</defs>
</svg>
