<svg width="30" height="30" viewBox="0 0 30 30" fill="none" xmlns="http://www.w3.org/2000/svg">
<path d="M15.0001 15.8023C18.8115 15.8023 21.9012 12.7125 21.9012 8.90113C21.9012 5.08974 18.8115 2 15.0001 2C11.1887 2 8.09894 5.08974 8.09894 8.90113C8.09894 12.7125 11.1887 15.8023 15.0001 15.8023Z" fill="#F8F8F8" fill-opacity="0.02"/>
<path d="M15.0001 15.8023C18.8115 15.8023 21.9012 12.7125 21.9012 8.90113C21.9012 5.08974 18.8115 2 15.0001 2C11.1887 2 8.09894 5.08974 8.09894 8.90113C8.09894 12.7125 11.1887 15.8023 15.0001 15.8023Z" fill="url(#paint0_linear_15020_241413)" fill-opacity="0.25"/>
<path d="M15.0003 2.48047C18.5462 2.4806 21.4212 5.3554 21.4212 8.90137C21.4211 12.4472 18.5462 15.3221 15.0003 15.3223C11.4543 15.3223 8.57954 12.4473 8.57941 8.90137C8.57941 5.35532 11.4543 2.48047 15.0003 2.48047Z" stroke="url(#paint1_linear_15020_241413)" stroke-opacity="0.25" stroke-width="0.96087"/>
<path d="M5.51102 27.9998H16.1733C14.6585 26.7858 13.6555 25.0467 13.363 23.1276C13.0706 21.2085 13.5102 19.2496 14.5946 17.6395C12.3645 17.5287 10.2632 16.5615 8.72867 14.9395C7.00848 15.6656 5.5404 16.8826 4.50787 18.4383C3.47533 19.994 2.92412 21.8195 2.9231 23.6866V25.4119C2.92514 26.0976 3.19846 26.7547 3.68334 27.2396C4.16823 27.7245 4.82529 27.9978 5.51102 27.9998Z" fill="#F8F8F8" fill-opacity="0.02"/>
<path d="M5.51102 27.9998H16.1733C14.6585 26.7858 13.6555 25.0467 13.363 23.1276C13.0706 21.2085 13.5102 19.2496 14.5946 17.6395C12.3645 17.5287 10.2632 16.5615 8.72867 14.9395C7.00848 15.6656 5.5404 16.8826 4.50787 18.4383C3.47533 19.994 2.92412 21.8195 2.9231 23.6866V25.4119C2.92514 26.0976 3.19846 26.7547 3.68334 27.2396C4.16823 27.7245 4.82529 27.9978 5.51102 27.9998Z" fill="url(#paint2_linear_15020_241413)" fill-opacity="0.25"/>
<path d="M8.62134 15.5117C10.0291 16.8926 11.8413 17.7783 13.7874 18.0439C12.9369 19.6121 12.6171 21.4226 12.8879 23.2002C13.1353 24.8234 13.8631 26.3239 14.9612 27.5195H5.51294C4.95413 27.5179 4.41784 27.2946 4.02271 26.8994C3.6773 26.5538 3.46352 26.101 3.41431 25.6191L3.40356 25.4102V23.6865C3.40461 21.9139 3.9282 20.181 4.90845 18.7041C5.82943 17.3165 7.11482 16.2119 8.62134 15.5117Z" stroke="url(#paint3_linear_15020_241413)" stroke-opacity="0.25" stroke-width="0.96087"/>
<path d="M15.0001 21.8412C15.0001 23.0355 15.3542 24.203 16.0177 25.196C16.6812 26.189 17.6243 26.963 18.7277 27.4201C19.8311 27.8771 21.0452 27.9967 22.2166 27.7637C23.388 27.5307 24.4639 26.9556 25.3084 26.1111C26.1529 25.2666 26.728 24.1906 26.961 23.0193C27.194 21.8479 27.0744 20.6338 26.6174 19.5304C26.1603 18.427 25.3864 17.4839 24.3934 16.8204C23.4003 16.1569 22.2328 15.8027 21.0385 15.8027C19.4376 15.8046 17.9028 16.4413 16.7707 17.5734C15.6387 18.7054 15.0019 20.2403 15.0001 21.8412ZM21.9012 20.1159V20.9786H22.7638C22.9926 20.9786 23.212 21.0695 23.3738 21.2312C23.5356 21.393 23.6265 21.6124 23.6265 21.8412C23.6265 22.07 23.5356 22.2894 23.3738 22.4512C23.212 22.613 22.9926 22.7039 22.7638 22.7039H21.9012V23.5665C21.9012 23.7953 21.8103 24.0147 21.6485 24.1765C21.4868 24.3383 21.2673 24.4291 21.0385 24.4291C20.8098 24.4291 20.5903 24.3383 20.4286 24.1765C20.2668 24.0147 20.1759 23.7953 20.1759 23.5665V22.7039H19.3133C19.0845 22.7039 18.8651 22.613 18.7033 22.4512C18.5415 22.2894 18.4506 22.07 18.4506 21.8412C18.4506 21.6124 18.5415 21.393 18.7033 21.2312C18.8651 21.0695 19.0845 20.9786 19.3133 20.9786H20.1759V20.1159C20.1759 19.8872 20.2668 19.6677 20.4286 19.506C20.5903 19.3442 20.8098 19.2533 21.0385 19.2533C21.2673 19.2533 21.4868 19.3442 21.6485 19.506C21.8103 19.6677 21.9012 19.8872 21.9012 20.1159Z" fill="#13F584"/>
<defs>
<linearGradient id="paint0_linear_15020_241413" x1="8.09894" y1="2" x2="4.78565" y2="26.7609" gradientUnits="userSpaceOnUse">
<stop stop-color="white" stop-opacity="0.4"/>
<stop offset="1" stop-color="white" stop-opacity="0"/>
</linearGradient>
<linearGradient id="paint1_linear_15020_241413" x1="15.0001" y1="8.90113" x2="3.90072" y2="4.34866" gradientUnits="userSpaceOnUse">
<stop stop-color="white" stop-opacity="0"/>
<stop offset="1" stop-color="white" stop-opacity="0.5"/>
</linearGradient>
<linearGradient id="paint2_linear_15020_241413" x1="2.9231" y1="14.9395" x2="-0.168742" y2="38.3812" gradientUnits="userSpaceOnUse">
<stop stop-color="white" stop-opacity="0.4"/>
<stop offset="1" stop-color="white" stop-opacity="0"/>
</linearGradient>
<linearGradient id="paint3_linear_15020_241413" x1="9.54818" y1="21.4696" x2="-1.06247" y2="17.0544" gradientUnits="userSpaceOnUse">
<stop stop-color="white" stop-opacity="0"/>
<stop offset="1" stop-color="white" stop-opacity="0.5"/>
</linearGradient>
</defs>
</svg>
