<svg width="13" height="14" viewBox="0 0 13 14" fill="none" xmlns="http://www.w3.org/2000/svg">
<g clip-path="url(#clip0_15063_453135)">
<path d="M12.672 10.9845L2.6406 0.953122C2.20311 0.515626 1.49382 0.515626 1.057 0.953122L0.528318 1.48099C0.0908212 1.91862 0.0908212 2.62791 0.528318 3.06473L10.5597 13.0961C10.9973 13.5336 11.7066 13.5336 12.1434 13.0961L12.6713 12.5682C13.1096 12.1314 13.1096 11.422 12.672 10.9845Z" fill="#F44336"/>
<path d="M10.5597 0.953264L0.528318 10.9846C0.0908212 11.4221 0.0908212 12.1316 0.528318 12.5684L1.05618 13.0962C1.49382 13.5337 2.20311 13.5337 2.63992 13.0962L12.672 3.06555C13.1096 2.62805 13.1096 1.91876 12.672 1.48195L12.1441 0.954084C11.7066 0.515768 10.9973 0.515768 10.5597 0.953264Z" fill="#F44336"/>
</g>
<defs>
<clipPath id="clip0_15063_453135">
<rect width="12.8" height="12.8" fill="white" transform="translate(0.200195 0.600098)"/>
</clipPath>
</defs>
</svg>
