<svg width="30" height="30" viewBox="0 0 30 30" fill="none" xmlns="http://www.w3.org/2000/svg">
<path fill-rule="evenodd" clip-rule="evenodd" d="M10.7409 24.375L10.5281 24.1631C9.61029 23.2472 9.60841 21.7594 10.5243 20.8406C11.1018 20.2622 11.9072 20.0475 12.6534 20.1984L12.6506 17.8153C12.6497 16.5188 13.7006 15.465 14.9972 15.4631C16.2937 15.4622 17.3475 16.5131 17.3493 17.8097L17.3522 20.1966C18.0947 20.0494 18.8953 20.2622 19.4718 20.8369C20.3897 21.7528 20.3915 23.2406 19.4756 24.1594L19.26 24.375H23.4375C26.5415 24.375 29.0625 21.8541 29.0625 18.75C29.0625 14.7 26.0015 13.5619 24.3084 13.2478C24.3525 12.9009 24.375 12.5466 24.375 12.1875C24.375 7.53094 20.594 3.75 15.9375 3.75C11.9175 3.75 8.55092 6.56718 7.70529 10.3322C3.95342 10.4747 0.951538 13.5647 0.951538 17.3512C0.951538 21.2278 4.09967 24.375 7.97623 24.375H10.7409Z" fill="#F8F8F8" fill-opacity="0.02"/>
<path fill-rule="evenodd" clip-rule="evenodd" d="M10.7409 24.375L10.5281 24.1631C9.61029 23.2472 9.60841 21.7594 10.5243 20.8406C11.1018 20.2622 11.9072 20.0475 12.6534 20.1984L12.6506 17.8153C12.6497 16.5188 13.7006 15.465 14.9972 15.4631C16.2937 15.4622 17.3475 16.5131 17.3493 17.8097L17.3522 20.1966C18.0947 20.0494 18.8953 20.2622 19.4718 20.8369C20.3897 21.7528 20.3915 23.2406 19.4756 24.1594L19.26 24.375H23.4375C26.5415 24.375 29.0625 21.8541 29.0625 18.75C29.0625 14.7 26.0015 13.5619 24.3084 13.2478C24.3525 12.9009 24.375 12.5466 24.375 12.1875C24.375 7.53094 20.594 3.75 15.9375 3.75C11.9175 3.75 8.55092 6.56718 7.70529 10.3322C3.95342 10.4747 0.951538 13.5647 0.951538 17.3512C0.951538 21.2278 4.09967 24.375 7.97623 24.375H10.7409Z" fill="url(#paint0_linear_15020_240085)" fill-opacity="0.25"/>
<path d="M15.9379 4.44336C20.2116 4.44357 23.682 7.91376 23.682 12.1875C23.682 12.5175 23.6618 12.8426 23.6215 13.1602L23.5385 13.8096L24.182 13.9287C24.9684 14.0746 26.0237 14.4057 26.8715 15.126C27.6918 15.8231 28.3695 16.9263 28.3695 18.75C28.3695 21.4712 26.1591 23.6814 23.4379 23.6816H20.6146C21.0809 22.5741 20.8638 21.2474 19.9613 20.3467V20.3457L19.8177 20.2119C19.3065 19.7634 18.6809 19.5172 18.0443 19.4688L18.0424 17.8086C18.04 16.1817 16.7592 14.8545 15.1527 14.7744L14.9965 14.7705C13.3173 14.7729 11.9564 16.1367 11.9574 17.8154V17.8164L11.9594 19.4678C11.2578 19.52 10.5697 19.8136 10.0336 20.3506V20.3516C9.135 21.253 8.92004 22.5767 9.38513 23.6816H7.97595C4.4822 23.6815 1.64507 20.8451 1.6449 17.3516C1.6449 13.939 4.3506 11.1528 7.73181 11.0244L8.26404 11.0039L8.38123 10.4844C9.1574 7.02861 12.2493 4.44336 15.9379 4.44336Z" stroke="url(#paint1_linear_15020_240085)" stroke-opacity="0.25" stroke-width="1.38587"/>
<path fill-rule="evenodd" clip-rule="evenodd" d="M14.0681 23.0522L12.8494 21.8363C12.4828 21.4706 11.8894 21.4716 11.5238 21.8381C11.1581 22.2047 11.1591 22.7981 11.5256 23.1637L14.3456 25.9762C14.5209 26.1516 14.76 26.25 15.0084 26.25C15.2569 26.25 15.495 26.1506 15.6713 25.9744L18.4763 23.1619C18.8419 22.7953 18.8409 22.2019 18.4744 21.8363C18.1078 21.4706 17.5144 21.4716 17.1488 21.8381L15.9431 23.0466L15.9375 17.8116C15.9366 17.2941 15.5166 16.8741 14.9991 16.875C14.4816 16.8759 14.0616 17.2959 14.0625 17.8134L14.0681 23.0522Z" fill="#13F584"/>
<defs>
<linearGradient id="paint0_linear_15020_240085" x1="0.951538" y1="3.75" x2="-2.71084" y2="41.0536" gradientUnits="userSpaceOnUse">
<stop stop-color="white" stop-opacity="0.4"/>
<stop offset="1" stop-color="white" stop-opacity="0"/>
</linearGradient>
<linearGradient id="paint1_linear_15020_240085" x1="15.007" y1="14.0625" x2="-5.11394" y2="2.8144" gradientUnits="userSpaceOnUse">
<stop stop-color="white" stop-opacity="0"/>
<stop offset="1" stop-color="white" stop-opacity="0.5"/>
</linearGradient>
</defs>
</svg>
