<svg width="24" height="25" viewBox="0 0 24 25" fill="none" xmlns="http://www.w3.org/2000/svg">
<path d="M13.5721 0.199951C14.1022 0.199951 14.6107 0.410459 14.9857 0.785206L21.6137 7.40822C21.9891 7.78333 22.2001 8.29227 22.2001 8.82296V21.4C22.2001 22.9464 20.9214 24.2 19.344 24.2H4.65605C3.07872 24.2 1.80005 22.9464 1.80005 21.4V2.99995C1.80005 1.45355 3.07872 0.199951 4.65605 0.199951H13.5721Z" fill="#13F584"/>
<g filter="url(#filter0_d_15059_450823)">
<path d="M20.7549 7.14203C21.0679 7.4576 20.8444 7.99414 20.3999 7.99414H17.4001C15.8537 7.99414 14.4587 6.63396 14.4587 5.12618V2.00825C14.4587 1.56182 14.9993 1.33918 15.3137 1.65615L20.7549 7.14203Z" fill="white" fill-opacity="0.24" shape-rendering="crispEdges"/>
</g>
<path d="M14.3975 9.80005L14.3974 9.80677L14.4 9.8068V18.2H13.7002L13.7001 18.199H11.5958L10.8962 18.2L10.896 18.199H9.51101L8.81129 18.2L8.81125 18.199H6.70208L6.00246 18.2L6.00231 18.199L6.00101 17.4997L6.00231 17.4996V15.3863L6.00053 14.687L6.00231 14.6869V12.5735L6 12.5737V11.8742L6.00231 11.8741V10.4995L6 10.4995V9.80005H14.3975ZM8.81125 15.3863H6.70208V17.4996H8.81125V15.3863ZM10.896 15.3863H9.51101V17.4996H10.896V15.3863ZM13.7001 15.3863H11.5958V17.4996H13.7001V15.3863ZM8.81125 12.5735H6.70208V14.6869H8.81125V12.5735ZM10.896 12.5735H9.51101V14.6869H10.896V12.5735ZM13.7001 12.5735H11.5958V14.6869H13.7001V12.5735ZM13.7001 10.4995H6.70208V11.8741H13.7001V10.4995Z" fill="white"/>
<defs>
<filter id="filter0_d_15059_450823" x="12.4587" y="1.50732" width="10.4421" height="10.4868" filterUnits="userSpaceOnUse" color-interpolation-filters="sRGB">
<feFlood flood-opacity="0" result="BackgroundImageFix"/>
<feColorMatrix in="SourceAlpha" type="matrix" values="0 0 0 0 0 0 0 0 0 0 0 0 0 0 0 0 0 0 127 0" result="hardAlpha"/>
<feOffset dy="2"/>
<feGaussianBlur stdDeviation="1"/>
<feComposite in2="hardAlpha" operator="out"/>
<feColorMatrix type="matrix" values="0 0 0 0 0 0 0 0 0 0 0 0 0 0 0 0 0 0 0.04 0"/>
<feBlend mode="normal" in2="BackgroundImageFix" result="effect1_dropShadow_15059_450823"/>
<feBlend mode="normal" in="SourceGraphic" in2="effect1_dropShadow_15059_450823" result="shape"/>
</filter>
</defs>
</svg>
