<svg width="30" height="30" viewBox="0 0 30 30" fill="none" xmlns="http://www.w3.org/2000/svg">
<path d="M11.5115 14.8333C11.9201 15.4245 11.7979 14.9319 11.7979 26.716C11.7979 27.7705 13.001 28.3741 13.849 27.7433C17.4724 25.0114 18.1963 24.7749 18.1963 23.497C18.1963 14.9097 18.0962 15.3926 18.4827 14.8333L24.3667 6.82422H5.62759L11.5115 14.8333Z" fill="#F8F8F8" fill-opacity="0.02"/>
<path d="M11.5115 14.8333C11.9201 15.4245 11.7979 14.9319 11.7979 26.716C11.7979 27.7705 13.001 28.3741 13.849 27.7433C17.4724 25.0114 18.1963 24.7749 18.1963 23.497C18.1963 14.9097 18.0962 15.3926 18.4827 14.8333L24.3667 6.82422H5.62759L11.5115 14.8333Z" fill="url(#paint0_linear_15019_240072)" fill-opacity="0.25"/>
<path d="M23.4176 7.30469L18.0954 14.5488L18.0876 14.5605C18.0113 14.6708 17.8828 14.8241 17.8112 15.0908C17.7491 15.3222 17.726 15.6385 17.7145 16.1436C17.6911 17.1732 17.7155 19.2146 17.7155 23.4971C17.7155 23.7675 17.6781 23.941 17.5983 24.0977C17.5136 24.264 17.361 24.4515 17.0631 24.7148C16.4476 25.259 15.4031 25.9695 13.5622 27.3574C13.03 27.7533 12.278 27.3738 12.278 26.7158C12.278 20.833 12.3093 17.9982 12.2887 16.5703C12.2786 15.8668 12.2558 15.4582 12.1989 15.1846C12.1476 14.9379 12.0639 14.7892 11.984 14.6709L11.9069 14.5605L11.8991 14.5488L6.57584 7.30469H23.4176Z" stroke="url(#paint1_linear_15019_240072)" stroke-opacity="0.25" stroke-width="0.96087"/>
<path d="M26.5893 2.65305C26.3791 2.25035 25.9667 2 25.5128 2H4.48143C3.5011 2 2.92427 3.10586 3.48663 3.90938C3.49125 3.9171 3.42279 3.8234 4.50835 5.30078H25.4858C26.4109 4.04176 27.0293 3.49779 26.5893 2.65305Z" fill="#13F584"/>
<defs>
<linearGradient id="paint0_linear_15019_240072" x1="5.62759" y1="6.82422" x2="-0.088898" y2="44.6289" gradientUnits="userSpaceOnUse">
<stop stop-color="white" stop-opacity="0.4"/>
<stop offset="1" stop-color="white" stop-opacity="0"/>
</linearGradient>
<linearGradient id="paint1_linear_15019_240072" x1="14.9972" y1="17.4121" x2="-0.558124" y2="11.7662" gradientUnits="userSpaceOnUse">
<stop stop-color="white" stop-opacity="0"/>
<stop offset="1" stop-color="white" stop-opacity="0.5"/>
</linearGradient>
</defs>
</svg>
