<svg width="24" height="24" viewBox="0 0 24 24" fill="none" xmlns="http://www.w3.org/2000/svg">
<mask id="path-1-inside-1_17351_44004" fill="white">
<path d="M22.9092 2C23.5116 2.00005 24 2.48842 24 3.09082V14.0381C23.4514 13.1683 22.7032 12.4376 21.8184 11.9111V8.5459H13.0908V12.9092H13.8975C12.7246 14.085 12 15.7081 12 17.5C12 19.0716 12.5579 20.5128 13.4863 21.6367H1.09082C0.488537 21.6367 0.00024015 21.1481 0 20.5459V3.09082C4.79591e-05 2.48842 0.488418 2.00005 1.09082 2H22.9092ZM2.18164 15.0908V19.4541H10.9092V15.0908H2.18164ZM2.18164 8.5459V12.9092H10.9092V8.5459H2.18164Z"/>
</mask>
<path d="M22.9092 2C23.5116 2.00005 24 2.48842 24 3.09082V14.0381C23.4514 13.1683 22.7032 12.4376 21.8184 11.9111V8.5459H13.0908V12.9092H13.8975C12.7246 14.085 12 15.7081 12 17.5C12 19.0716 12.5579 20.5128 13.4863 21.6367H1.09082C0.488537 21.6367 0.00024015 21.1481 0 20.5459V3.09082C4.79591e-05 2.48842 0.488418 2.00005 1.09082 2H22.9092ZM2.18164 15.0908V19.4541H10.9092V15.0908H2.18164ZM2.18164 8.5459V12.9092H10.9092V8.5459H2.18164Z" fill="#F8F8F8" fill-opacity="0.02"/>
<path d="M22.9092 2C23.5116 2.00005 24 2.48842 24 3.09082V14.0381C23.4514 13.1683 22.7032 12.4376 21.8184 11.9111V8.5459H13.0908V12.9092H13.8975C12.7246 14.085 12 15.7081 12 17.5C12 19.0716 12.5579 20.5128 13.4863 21.6367H1.09082C0.488537 21.6367 0.00024015 21.1481 0 20.5459V3.09082C4.79591e-05 2.48842 0.488418 2.00005 1.09082 2H22.9092ZM2.18164 15.0908V19.4541H10.9092V15.0908H2.18164ZM2.18164 8.5459V12.9092H10.9092V8.5459H2.18164Z" fill="url(#paint0_linear_17351_44004)" fill-opacity="0.25"/>
<path d="M22.9092 2L22.9092 1.25H22.9092V2ZM24 3.09082L24.75 3.09082L24.75 3.09076L24 3.09082ZM24 14.0381L23.3656 14.4382L24.75 16.6329V14.0381H24ZM21.8184 11.9111H21.0684V12.3376L21.4348 12.5557L21.8184 11.9111ZM21.8184 8.5459H22.5684V7.7959H21.8184V8.5459ZM13.0908 8.5459V7.7959H12.3408V8.5459H13.0908ZM13.0908 12.9092H12.3408V13.6592H13.0908V12.9092ZM13.8975 12.9092L14.4285 13.4388L15.7049 12.1592H13.8975V12.9092ZM13.4863 21.6367V22.3867H15.0786L14.0646 21.1591L13.4863 21.6367ZM1.09082 21.6367L1.09076 22.3867H1.09082V21.6367ZM0 20.5459L-0.75 20.5459L-0.75 20.5462L0 20.5459ZM0 3.09082L-0.75 3.09076V3.09082H0ZM1.09082 2L1.09082 1.25L1.09076 1.25L1.09082 2ZM2.18164 15.0908V14.3408H1.43164V15.0908H2.18164ZM2.18164 19.4541H1.43164V20.2041H2.18164V19.4541ZM10.9092 19.4541V20.2041H11.6592V19.4541H10.9092ZM10.9092 15.0908H11.6592V14.3408H10.9092V15.0908ZM2.18164 8.5459V7.7959H1.43164V8.5459H2.18164ZM2.18164 12.9092H1.43164V13.6592H2.18164V12.9092ZM10.9092 12.9092V13.6592H11.6592V12.9092H10.9092ZM10.9092 8.5459H11.6592V7.7959H10.9092V8.5459ZM22.9092 2L22.9091 2.75C23.0974 2.75002 23.25 2.90265 23.25 3.09088L24 3.09082L24.75 3.09076C24.7499 2.07419 23.9258 1.25008 22.9092 1.25L22.9092 2ZM24 3.09082H23.25V14.0381H24H24.75V3.09082H24ZM24 14.0381L24.6344 13.638C24.0228 12.6685 23.1889 11.8539 22.2019 11.2666L21.8184 11.9111L21.4348 12.5557C22.2175 13.0214 22.8799 13.6681 23.3656 14.4382L24 14.0381ZM21.8184 11.9111H22.5684V8.5459H21.8184H21.0684V11.9111H21.8184ZM21.8184 8.5459V7.7959H13.0908V8.5459V9.2959H21.8184V8.5459ZM13.0908 8.5459H12.3408V12.9092H13.0908H13.8408V8.5459H13.0908ZM13.0908 12.9092V13.6592H13.8975V12.9092V12.1592H13.0908V12.9092ZM13.8975 12.9092L13.3665 12.3795C12.059 13.6903 11.25 15.5017 11.25 17.5H12H12.75C12.75 15.9144 13.3903 14.4796 14.4285 13.4388L13.8975 12.9092ZM12 17.5H11.25C11.25 19.2524 11.8728 20.8611 12.9081 22.1144L13.4863 21.6367L14.0646 21.1591C13.2431 20.1645 12.75 18.8909 12.75 17.5H12ZM13.4863 21.6367V20.8867H1.09082V21.6367V22.3867H13.4863V21.6367ZM1.09082 21.6367L1.09088 20.8867C0.903001 20.8867 0.750075 20.7341 0.75 20.5456L0 20.5459L-0.75 20.5462C-0.749595 21.5622 0.0740716 22.3866 1.09076 22.3867L1.09082 21.6367ZM0 20.5459H0.75V3.09082H0H-0.75V20.5459H0ZM0 3.09082L0.75 3.09088C0.750015 2.90264 0.902645 2.75001 1.09088 2.75L1.09082 2L1.09076 1.25C0.0741913 1.25008 -0.749919 2.07419 -0.75 3.09076L0 3.09082ZM1.09082 2V2.75H22.9092V2V1.25H1.09082V2ZM2.18164 15.0908H1.43164V19.4541H2.18164H2.93164V15.0908H2.18164ZM2.18164 19.4541V20.2041H10.9092V19.4541V18.7041H2.18164V19.4541ZM10.9092 19.4541H11.6592V15.0908H10.9092H10.1592V19.4541H10.9092ZM10.9092 15.0908V14.3408H2.18164V15.0908V15.8408H10.9092V15.0908ZM2.18164 8.5459H1.43164V12.9092H2.18164H2.93164V8.5459H2.18164ZM2.18164 12.9092V13.6592H10.9092V12.9092V12.1592H2.18164V12.9092ZM10.9092 12.9092H11.6592V8.5459H10.9092H10.1592V12.9092H10.9092ZM10.9092 8.5459V7.7959H2.18164V8.5459V9.2959H10.9092V8.5459Z" fill="url(#paint1_linear_17351_44004)" fill-opacity="0.25" mask="url(#path-1-inside-1_17351_44004)"/>
<circle cx="18.5" cy="17.5" r="5.5" fill="#F8F8F8" fill-opacity="0.02"/>
<circle cx="18.5" cy="17.5" r="5.5" fill="url(#paint2_linear_17351_44004)" fill-opacity="0.25"/>
<circle cx="18.5" cy="17.5" r="5.125" stroke="url(#paint3_linear_17351_44004)" stroke-opacity="0.25" stroke-width="0.75"/>
<path d="M21.3 16.8H19.2V14.7C19.2 14.28 18.92 14 18.5 14C18.08 14 17.8 14.35 17.8 14.7V16.8H15.7C15.35 16.8 15 17.08 15 17.5C15 17.92 15.28 18.2 15.7 18.2H17.8V20.3C17.8 20.72 18.08 21 18.5 21C18.92 21 19.2 20.72 19.2 20.3V18.2H21.3C21.72 18.2 22 17.92 22 17.5C22 17.08 21.65 16.8 21.3 16.8Z" fill="#13F584"/>
<defs>
<linearGradient id="paint0_linear_17351_44004" x1="0" y1="2" x2="-3.87943" y2="37.4338" gradientUnits="userSpaceOnUse">
<stop stop-color="white" stop-opacity="0.4"/>
<stop offset="1" stop-color="white" stop-opacity="0"/>
</linearGradient>
<linearGradient id="paint1_linear_17351_44004" x1="12" y1="11.8184" x2="-6.01884" y2="2.78564" gradientUnits="userSpaceOnUse">
<stop stop-color="white" stop-opacity="0"/>
<stop offset="1" stop-color="white" stop-opacity="0.5"/>
</linearGradient>
<linearGradient id="paint2_linear_17351_44004" x1="13" y1="12" x2="10.3594" y2="31.7337" gradientUnits="userSpaceOnUse">
<stop stop-color="white" stop-opacity="0.4"/>
<stop offset="1" stop-color="white" stop-opacity="0"/>
</linearGradient>
<linearGradient id="paint3_linear_17351_44004" x1="18.5" y1="17.5" x2="9.65414" y2="13.8718" gradientUnits="userSpaceOnUse">
<stop stop-color="white" stop-opacity="0"/>
<stop offset="1" stop-color="white" stop-opacity="0.5"/>
</linearGradient>
</defs>
</svg>
