<svg width="24" height="24" viewBox="0 0 24 24" fill="none" xmlns="http://www.w3.org/2000/svg">
<path fill-rule="evenodd" clip-rule="evenodd" d="M14.6952 1.70912L15.4616 3.93164C16.0991 4.20487 16.7008 4.55274 17.2554 4.96819L19.5649 4.52C19.833 4.46783 20.1093 4.56298 20.2894 4.76867C21.2257 5.8431 21.945 7.08843 22.4065 8.43704C22.4955 8.69595 22.4393 8.98246 22.2602 9.18912L20.7182 10.9635C20.8 11.6521 20.8 12.3479 20.7182 13.0355L22.2602 14.8109C22.4393 15.0176 22.4955 15.3041 22.4065 15.563C21.945 16.9116 21.2257 18.1569 20.2894 19.2313C20.1093 19.437 19.833 19.5322 19.5649 19.48L17.2565 19.0318C16.7008 19.4473 16.0981 19.7952 15.4616 20.0674L14.6952 22.2909C14.6062 22.5497 14.3862 22.7411 14.1181 22.7943C12.7193 23.0686 11.2806 23.0686 9.88182 22.7943C9.61373 22.7411 9.39375 22.5497 9.3047 22.2909L8.5383 20.0684C7.90079 19.7951 7.29915 19.4473 6.7445 19.0318L4.43502 19.4801C4.16693 19.5323 3.89065 19.4371 3.71055 19.2314C2.77425 18.157 2.05492 16.9117 1.59341 15.563C1.50436 15.3041 1.56066 15.0176 1.73971 14.8109L3.28179 13.0366C3.19993 12.3479 3.19993 11.6521 3.28179 10.9645L1.73975 9.18912C1.5607 8.98242 1.5044 8.69591 1.59341 8.43704C2.05492 7.08839 2.77425 5.8431 3.71051 4.76863C3.89061 4.56294 4.16689 4.46779 4.43498 4.52L6.74346 4.96819C7.29911 4.55274 7.90179 4.20483 8.53826 3.93265L9.30467 1.70912C9.39371 1.45026 9.61369 1.25889 9.88178 1.20568C11.2806 0.931441 12.7193 0.931441 14.1181 1.20568C14.3862 1.25889 14.6062 1.45021 14.6952 1.70912ZM12 7.47622C9.50322 7.47622 7.47612 9.50328 7.47612 12.0001C7.47612 14.4969 9.50318 16.5239 12 16.5239C14.4968 16.5239 16.5238 14.4968 16.5238 12C16.5238 9.50328 14.4967 7.47622 12 7.47622Z" fill="#F8F8F8" fill-opacity="0.02"/>
<path fill-rule="evenodd" clip-rule="evenodd" d="M14.6952 1.70912L15.4616 3.93164C16.0991 4.20487 16.7008 4.55274 17.2554 4.96819L19.5649 4.52C19.833 4.46783 20.1093 4.56298 20.2894 4.76867C21.2257 5.8431 21.945 7.08843 22.4065 8.43704C22.4955 8.69595 22.4393 8.98246 22.2602 9.18912L20.7182 10.9635C20.8 11.6521 20.8 12.3479 20.7182 13.0355L22.2602 14.8109C22.4393 15.0176 22.4955 15.3041 22.4065 15.563C21.945 16.9116 21.2257 18.1569 20.2894 19.2313C20.1093 19.437 19.833 19.5322 19.5649 19.48L17.2565 19.0318C16.7008 19.4473 16.0981 19.7952 15.4616 20.0674L14.6952 22.2909C14.6062 22.5497 14.3862 22.7411 14.1181 22.7943C12.7193 23.0686 11.2806 23.0686 9.88182 22.7943C9.61373 22.7411 9.39375 22.5497 9.3047 22.2909L8.5383 20.0684C7.90079 19.7951 7.29915 19.4473 6.7445 19.0318L4.43502 19.4801C4.16693 19.5323 3.89065 19.4371 3.71055 19.2314C2.77425 18.157 2.05492 16.9117 1.59341 15.563C1.50436 15.3041 1.56066 15.0176 1.73971 14.8109L3.28179 13.0366C3.19993 12.3479 3.19993 11.6521 3.28179 10.9645L1.73975 9.18912C1.5607 8.98242 1.5044 8.69591 1.59341 8.43704C2.05492 7.08839 2.77425 5.8431 3.71051 4.76863C3.89061 4.56294 4.16689 4.46779 4.43498 4.52L6.74346 4.96819C7.29911 4.55274 7.90179 4.20483 8.53826 3.93265L9.30467 1.70912C9.39371 1.45026 9.61369 1.25889 9.88178 1.20568C11.2806 0.931441 12.7193 0.931441 14.1181 1.20568C14.3862 1.25889 14.6062 1.45021 14.6952 1.70912ZM12 7.47622C9.50322 7.47622 7.47612 9.50328 7.47612 12.0001C7.47612 14.4969 9.50318 16.5239 12 16.5239C14.4968 16.5239 16.5238 14.4968 16.5238 12C16.5238 9.50328 14.4967 7.47622 12 7.47622Z" fill="url(#paint0_linear_17351_44069)" fill-opacity="0.25"/>
<path d="M9.9483 1.54297C11.3029 1.27745 12.6962 1.27659 14.0508 1.54199V1.54297C14.1994 1.57244 14.3211 1.67852 14.3702 1.82129L15.1368 4.04395L15.1866 4.1875L15.3262 4.24805C15.9384 4.51043 16.5162 4.84422 17.0489 5.24316L17.171 5.33496L17.3214 5.30566L19.6299 4.85742H19.6309C19.7778 4.82896 19.9305 4.88068 20.0303 4.99414C20.9375 6.03511 21.6341 7.24242 22.0811 8.54883C22.1301 8.69123 22.0993 8.84935 22.0001 8.96387L20.459 10.7383L20.3585 10.8525L20.377 11.0039C20.4557 11.6656 20.4557 12.3345 20.377 12.9951L20.3585 13.1465L20.459 13.2607L22.0001 15.0352V15.0361C22.0993 15.1507 22.1301 15.3088 22.0811 15.4512V15.4521C21.6341 16.7582 20.9372 17.9641 20.0303 19.0049C19.9305 19.1187 19.7781 19.1711 19.6309 19.1426L17.3223 18.6943L17.1729 18.665L17.0508 18.7568C16.517 19.156 15.9375 19.4896 15.3262 19.751L15.1866 19.8115L15.1368 19.9551L14.3702 22.1787C14.3211 22.3215 14.1993 22.4276 14.0508 22.457C12.8656 22.6893 11.6508 22.7182 10.4581 22.5439L9.9483 22.457C9.83712 22.4348 9.74149 22.3696 9.67975 22.2783L9.62994 22.1787L8.86334 19.9561L8.81354 19.8125L8.67389 19.752L8.22076 19.542C7.77503 19.3186 7.34979 19.0561 6.95026 18.7568L6.82819 18.665L6.67877 18.6943L4.3692 19.1426C4.22196 19.1712 4.06869 19.119 3.96881 19.0049C3.06213 17.9642 2.36596 16.758 1.91901 15.4521L1.91803 15.4512C1.88133 15.3443 1.89015 15.2285 1.93854 15.1289L1.99908 15.0361L3.54108 13.2617L3.64069 13.1475L3.62311 12.9961C3.54445 12.3344 3.54446 11.6655 3.62311 11.0049L3.64069 10.8535L3.54108 10.7393L1.99908 8.96387H2.00006C1.90081 8.84929 1.86918 8.69109 1.91803 8.54883L1.91901 8.54785C2.36596 7.24196 3.06216 6.03581 3.96881 4.99512C4.04377 4.90951 4.14893 4.85848 4.25885 4.85059L4.3692 4.85742L6.6778 5.30566L6.82721 5.33496L6.94928 5.24316C7.48315 4.84403 8.0627 4.5104 8.67389 4.24902L8.81354 4.18848L8.86334 4.04492L9.62994 1.82129C9.66672 1.71436 9.74395 1.62803 9.84283 1.5791L9.9483 1.54297ZM12.0001 7.13281C9.31348 7.13281 7.13194 9.31339 7.1319 12C7.1319 14.6867 9.31342 16.8672 12.0001 16.8672C14.6867 16.8671 16.8672 14.6866 16.8672 12C16.8672 9.31344 14.6866 7.13286 12.0001 7.13281Z" stroke="url(#paint1_linear_17351_44069)" stroke-opacity="0.25" stroke-width="0.687504"/>
<circle cx="12" cy="12" r="2.75002" fill="#13F584"/>
<defs>
<linearGradient id="paint0_linear_17351_44069" x1="1.55182" y1="1" x2="-3.99772" y2="40.3923" gradientUnits="userSpaceOnUse">
<stop stop-color="white" stop-opacity="0.4"/>
<stop offset="1" stop-color="white" stop-opacity="0"/>
</linearGradient>
<linearGradient id="paint1_linear_17351_44069" x1="12" y1="12" x2="-5.04428" y2="5.35991" gradientUnits="userSpaceOnUse">
<stop stop-color="white" stop-opacity="0"/>
<stop offset="1" stop-color="white" stop-opacity="0.5"/>
</linearGradient>
</defs>
</svg>
