<svg width="24" height="24" viewBox="0 0 24 24" fill="none" xmlns="http://www.w3.org/2000/svg">
<path d="M22.34 19.26L19.26 16.18C20.25 14.64 20.8 12.88 20.8 10.9C20.8 5.4 16.4 1 10.9 1C5.4 1 1 5.4 1 10.9C1 16.4 5.4 20.8 10.9 20.8C12.88 20.8 14.64 20.25 16.18 19.26L19.26 22.34C20.14 23.22 21.46 23.22 22.34 22.34C23.22 21.46 23.22 20.14 22.34 19.26ZM10.9 18.6C6.61 18.6 3.2 15.19 3.2 10.9C3.2 6.61 6.61 3.2 10.9 3.2C15.19 3.2 18.6 6.61 18.6 10.9C18.6 15.19 15.08 18.6 10.9 18.6Z" fill="#F8F8F8" fill-opacity="0.02"/>
<path d="M22.34 19.26L19.26 16.18C20.25 14.64 20.8 12.88 20.8 10.9C20.8 5.4 16.4 1 10.9 1C5.4 1 1 5.4 1 10.9C1 16.4 5.4 20.8 10.9 20.8C12.88 20.8 14.64 20.25 16.18 19.26L19.26 22.34C20.14 23.22 21.46 23.22 22.34 22.34C23.22 21.46 23.22 20.14 22.34 19.26ZM10.9 18.6C6.61 18.6 3.2 15.19 3.2 10.9C3.2 6.61 6.61 3.2 10.9 3.2C15.19 3.2 18.6 6.61 18.6 10.9C18.6 15.19 15.08 18.6 10.9 18.6Z" fill="url(#paint0_linear_17351_44000)" fill-opacity="0.25"/>
<path d="M10.9004 1.375C16.1931 1.37521 20.4248 5.60763 20.4248 10.9004C20.4247 12.8068 19.8962 14.4968 18.9443 15.9775L18.7812 16.2314L22.0752 19.5254C22.8085 20.2589 22.8087 21.3417 22.0752 22.0752C21.3417 22.8087 20.2589 22.8085 19.5254 22.0752L16.2314 18.7812L15.9775 18.9443C14.4968 19.8962 12.8068 20.4247 10.9004 20.4248C5.60763 20.4248 1.37521 16.1931 1.375 10.9004C1.375 5.6075 5.6075 1.375 10.9004 1.375ZM10.9004 2.8252C6.40328 2.8252 2.8252 6.40328 2.8252 10.9004C2.8254 15.3973 6.40341 18.9746 10.9004 18.9746C15.2837 18.9744 18.9744 15.4007 18.9746 10.9004C18.9746 6.40341 15.3973 2.8254 10.9004 2.8252Z" stroke="url(#paint1_linear_17351_44000)" stroke-opacity="0.25" stroke-width="0.75"/>
<path d="M15.3 9.79883C9.04816 9.79883 12.7518 9.79883 6.49996 9.79883C5.94996 9.79883 5.39996 10.2388 5.39996 10.8988C5.39996 11.5588 5.83996 11.9988 6.49996 11.9988C12.8583 11.9988 8.9416 11.9988 15.3 11.9988C15.96 11.9988 16.4 11.5588 16.4 10.8988C16.4 10.2388 15.85 9.79883 15.3 9.79883Z" fill="#FF5630"/>
<defs>
<linearGradient id="paint0_linear_17351_44000" x1="1" y1="1" x2="-4.28118" y2="40.4674" gradientUnits="userSpaceOnUse">
<stop stop-color="white" stop-opacity="0.4"/>
<stop offset="1" stop-color="white" stop-opacity="0"/>
</linearGradient>
<linearGradient id="paint1_linear_17351_44000" x1="12" y1="12" x2="-5.69172" y2="4.74363" gradientUnits="userSpaceOnUse">
<stop stop-color="white" stop-opacity="0"/>
<stop offset="1" stop-color="white" stop-opacity="0.5"/>
</linearGradient>
</defs>
</svg>
